<?xml version="1.0" encoding="UTF-8" standalone="no"?>
<!DOCTYPE svg PUBLIC "-//W3C//DTD SVG 1.1//EN"
 "http://www.w3.org/Graphics/SVG/1.1/DTD/svg11.dtd">
<!-- Generated by graphviz version 15.0.0 (20260523.1842)
 -->
<!-- Title: G Pages: 1 -->
<svg style="background-color:#141414" width="1327pt" height="769pt"
 viewBox="0.00 0.00 1327.00 769.00" xmlns="http://www.w3.org/2000/svg" xmlns:xlink="http://www.w3.org/1999/xlink">
<g id="graph0" class="graph" transform="scale(1 1) rotate(0) translate(4 765)">
<title>G</title><style>.edge>path:hover{stroke-width:8}</style>
<polygon fill="#141414" stroke="none" points="-4,4 -4,-765 1323.19,-765 1323.19,4 -4,4"/>
<!-- faiss -->
<g id="node1" class="node">
<title>faiss</title><style>.edge>path:hover{stroke-width:8}</style>
<ellipse fill="#d02424" stroke="#ffffff" cx="302.55" cy="-315" rx="27" ry="18"/>
<text xml:space="preserve" text-anchor="middle" x="302.55" y="-311.5" font-family="Helvetica,sans-Serif" font-size="10.00" fill="#e0e0e0">faiss</text>
</g>
<!-- src_rag_agentic_retriever -->
<g id="node15" class="node">
<title>src_rag_agentic_retriever</title><style>.edge>path:hover{stroke-width:8}</style>
<ellipse fill="#872db4" stroke="#ffffff" cx="777.15" cy="-300" rx="62.23" ry="31.11"/>
<text xml:space="preserve" text-anchor="middle" x="777.15" y="-308.5" font-family="Helvetica,sans-Serif" font-size="10.00" fill="#e0e0e0">src.</text>
<text xml:space="preserve" text-anchor="middle" x="777.15" y="-296.5" font-family="Helvetica,sans-Serif" font-size="10.00" fill="#e0e0e0">rag.</text>
<text xml:space="preserve" text-anchor="middle" x="777.15" y="-284.5" font-family="Helvetica,sans-Serif" font-size="10.00" fill="#e0e0e0">agentic_retriever</text>
</g>
<!-- faiss&#45;&gt;src_rag_agentic_retriever -->
<g id="edge1" class="edge">
<title>faiss&#45;&gt;src_rag_agentic_retriever</title><style>.edge>path:hover{stroke-width:8}</style>
<path fill="none" stroke="#ffffff" d="M504.99,-321C541.19,-311.88 636.1,-306.02 703.4,-302.87"/>
<polygon fill="#d02424" stroke="#ffffff" points="703.44,-306.37 713.27,-302.41 703.12,-299.37 703.44,-306.37"/>
</g>
<!-- src_rag_index -->
<g id="node23" class="node">
<title>src_rag_index</title><style>.edge>path:hover{stroke-width:8}</style>
<ellipse fill="#812bac" stroke="#ffffff" cx="633.68" cy="-195" rx="43.45" ry="18"/>
<text xml:space="preserve" text-anchor="middle" x="633.68" y="-191.5" font-family="Helvetica,sans-Serif" font-size="10.00" fill="#e0e0e0">src.rag.index</text>
</g>
<!-- faiss&#45;&gt;src_rag_index -->
<g id="edge2" class="edge">
<title>faiss&#45;&gt;src_rag_index</title><style>.edge>path:hover{stroke-width:8}</style>
<path fill="none" stroke="#ffffff" d="M504.99,-321C561.12,-308.33 546.93,-261.86 588.43,-222 590.8,-219.72 593.4,-217.54 596.11,-215.48"/>
<polygon fill="#d02424" stroke="#ffffff" points="598.09,-218.37 604.34,-209.81 594.12,-212.6 598.09,-218.37"/>
<path fill="none" stroke="#ffffff" d="M328.81,-319.74C367.05,-326.04 441.66,-334.84 502.99,-321"/>
</g>
<!-- src_rag_retriever -->
<g id="node26" class="node">
<title>src_rag_retriever</title><style>.edge>path:hover{stroke-width:8}</style>
<ellipse fill="#8d2fbc" stroke="#ffffff" cx="633.68" cy="-262" rx="36.24" ry="31.11"/>
<text xml:space="preserve" text-anchor="middle" x="633.68" y="-270.5" font-family="Helvetica,sans-Serif" font-size="10.00" fill="#e0e0e0">src.</text>
<text xml:space="preserve" text-anchor="middle" x="633.68" y="-258.5" font-family="Helvetica,sans-Serif" font-size="10.00" fill="#e0e0e0">rag.</text>
<text xml:space="preserve" text-anchor="middle" x="633.68" y="-246.5" font-family="Helvetica,sans-Serif" font-size="10.00" fill="#e0e0e0">retriever</text>
</g>
<!-- faiss&#45;&gt;src_rag_retriever -->
<g id="edge3" class="edge">
<title>faiss&#45;&gt;src_rag_retriever</title><style>.edge>path:hover{stroke-width:8}</style>
<path fill="none" stroke="#ffffff" d="M504.99,-321C536.25,-313.95 569.02,-298.62 593.54,-285.35"/>
<polygon fill="#d02424" stroke="#ffffff" points="595.14,-288.47 602.19,-280.56 591.74,-282.34 595.14,-288.47"/>
</g>
<!-- flask -->
<g id="node2" class="node">
<title>flask</title><style>.edge>path:hover{stroke-width:8}</style>
<ellipse fill="#c09540" stroke="#ffffff" cx="392.55" cy="-64" rx="27" ry="18"/>
<text xml:space="preserve" text-anchor="middle" x="392.55" y="-60.5" font-family="Helvetica,sans-Serif" font-size="10.00" fill="#e0e0e0">flask</text>
</g>
<!-- src_rag_api_app -->
<g id="node17" class="node">
<title>src_rag_api_app</title><style>.edge>path:hover{stroke-width:8}</style>
<ellipse fill="#713091" stroke="#ffffff" cx="911.62" cy="-141" rx="27" ry="39.6"/>
<text xml:space="preserve" text-anchor="middle" x="911.62" y="-155.5" font-family="Helvetica,sans-Serif" font-size="10.00" fill="#e0e0e0">src.</text>
<text xml:space="preserve" text-anchor="middle" x="911.62" y="-143.5" font-family="Helvetica,sans-Serif" font-size="10.00" fill="#e0e0e0">rag.</text>
<text xml:space="preserve" text-anchor="middle" x="911.62" y="-131.5" font-family="Helvetica,sans-Serif" font-size="10.00" fill="#e0e0e0">api.</text>
<text xml:space="preserve" text-anchor="middle" x="911.62" y="-119.5" font-family="Helvetica,sans-Serif" font-size="10.00" fill="#e0e0e0">app</text>
</g>
<!-- flask&#45;&gt;src_rag_api_app -->
<g id="edge4" class="edge">
<title>flask&#45;&gt;src_rag_api_app</title><style>.edge>path:hover{stroke-width:8}</style>
<path fill="none" stroke="#ffffff" d="M419.84,-66.16C451.47,-68.98 506.1,-74.59 552.43,-83 609.38,-93.34 622.92,-99.36 678.93,-114 722.32,-125.34 731.32,-142.16 776.15,-141"/>
</g>
<!-- numpy -->
<g id="node3" class="node">
<title>numpy</title><style>.edge>path:hover{stroke-width:8}</style>
<ellipse fill="#a2e619" stroke="#ffffff" cx="169.95" cy="-295" rx="27.21" ry="18"/>
<text xml:space="preserve" text-anchor="middle" x="169.95" y="-291.5" font-family="Helvetica,sans-Serif" font-size="10.00" fill="#e0e0e0">numpy</text>
</g>
<!-- numpy&#45;&gt;faiss -->
<g id="edge5" class="edge">
<title>numpy&#45;&gt;faiss</title><style>.edge>path:hover{stroke-width:8}</style>
<path fill="none" stroke="#ffffff" d="M196.75,-298.95C216.16,-301.92 243.03,-306.04 264.7,-309.36"/>
<polygon fill="#a2e619" stroke="#ffffff" points="263.89,-312.77 274.31,-310.83 264.95,-305.85 263.89,-312.77"/>
</g>
<!-- src_rag_embeddings -->
<g id="node21" class="node">
<title>src_rag_embeddings</title><style>.edge>path:hover{stroke-width:8}</style>
<ellipse fill="#8d2fbc" stroke="#ffffff" cx="503.99" cy="-203" rx="48.44" ry="31.11"/>
<text xml:space="preserve" text-anchor="middle" x="503.99" y="-211.5" font-family="Helvetica,sans-Serif" font-size="10.00" fill="#e0e0e0">src.</text>
<text xml:space="preserve" text-anchor="middle" x="503.99" y="-199.5" font-family="Helvetica,sans-Serif" font-size="10.00" fill="#e0e0e0">rag.</text>
<text xml:space="preserve" text-anchor="middle" x="503.99" y="-187.5" font-family="Helvetica,sans-Serif" font-size="10.00" fill="#e0e0e0">embeddings</text>
</g>
<!-- numpy&#45;&gt;src_rag_embeddings -->
<g id="edge6" class="edge">
<title>numpy&#45;&gt;src_rag_embeddings</title><style>.edge>path:hover{stroke-width:8}</style>
<path fill="none" stroke="#ffffff" d="M393.55,-262C418.46,-258.76 443.33,-246.28 463.05,-233.63"/>
<polygon fill="#a2e619" stroke="#ffffff" points="464.96,-236.56 471.33,-228.08 461.07,-230.74 464.96,-236.56"/>
<path fill="none" stroke="#ffffff" d="M196.72,-290.82C237.84,-284.22 320.89,-271.19 391.55,-262"/>
</g>
<!-- numpy&#45;&gt;src_rag_index -->
<g id="edge7" class="edge">
<title>numpy&#45;&gt;src_rag_index</title><style>.edge>path:hover{stroke-width:8}</style>
<path fill="none" stroke="#ffffff" d="M393.55,-262C441.22,-252.35 454.74,-268.13 502.99,-262"/>
<path fill="none" stroke="#ffffff" d="M504.99,-262C527.52,-259.14 532.08,-253.08 552.43,-243 557.28,-240.6 578.88,-227.65 598.45,-215.81"/>
<polygon fill="#a2e619" stroke="#ffffff" points="600.07,-218.92 606.81,-210.75 596.44,-212.94 600.07,-218.92"/>
</g>
<!-- numpy&#45;&gt;src_rag_retriever -->
<g id="edge8" class="edge">
<title>numpy&#45;&gt;src_rag_retriever</title><style>.edge>path:hover{stroke-width:8}</style>
<path fill="none" stroke="#ffffff" d="M504.99,-262C531.64,-258.61 561.67,-258.43 585.9,-259.18"/>
<polygon fill="#a2e619" stroke="#ffffff" points="585.66,-262.68 595.79,-259.56 585.93,-255.68 585.66,-262.68"/>
</g>
<!-- openai -->
<g id="node4" class="node">
<title>openai</title><style>.edge>path:hover{stroke-width:8}</style>
<ellipse fill="#40c040" stroke="#ffffff" cx="302.55" cy="-18" rx="27" ry="18"/>
<text xml:space="preserve" text-anchor="middle" x="302.55" y="-14.5" font-family="Helvetica,sans-Serif" font-size="10.00" fill="#e0e0e0">openai</text>
</g>
<!-- src_rag_llm -->
<g id="node24" class="node">
<title>src_rag_llm</title><style>.edge>path:hover{stroke-width:8}</style>
<ellipse fill="#9540c0" stroke="#ffffff" cx="633.68" cy="-49" rx="37.13" ry="18"/>
<text xml:space="preserve" text-anchor="middle" x="633.68" y="-45.5" font-family="Helvetica,sans-Serif" font-size="10.00" fill="#e0e0e0">src.rag.llm</text>
</g>
<!-- openai&#45;&gt;src_rag_llm -->
<g id="edge9" class="edge">
<title>openai&#45;&gt;src_rag_llm</title><style>.edge>path:hover{stroke-width:8}</style>
<path fill="none" stroke="#ffffff" d="M329.65,-20.46C385.1,-25.68 515.3,-37.94 585.63,-44.57"/>
<polygon fill="#40c040" stroke="#ffffff" points="585.01,-48.03 595.29,-45.48 585.66,-41.06 585.01,-48.03"/>
</g>
<!-- pytest -->
<g id="node5" class="node">
<title>pytest</title><style>.edge>path:hover{stroke-width:8}</style>
<ellipse fill="#53b695" stroke="#ffffff" cx="169.95" cy="-167" rx="27" ry="18"/>
<text xml:space="preserve" text-anchor="middle" x="169.95" y="-163.5" font-family="Helvetica,sans-Serif" font-size="10.00" fill="#e0e0e0">pytest</text>
</g>
<!-- pytest&#45;&gt;src_rag_embeddings -->
<g id="edge10" class="edge">
<title>pytest&#45;&gt;src_rag_embeddings</title><style>.edge>path:hover{stroke-width:8}</style>
<path fill="none" stroke="#ffffff" d="M303.55,-221C351.67,-225.85 406.37,-220.11 446.31,-213.87"/>
<polygon fill="#53b695" stroke="#ffffff" points="446.62,-217.36 455.92,-212.3 445.49,-210.45 446.62,-217.36"/>
<path fill="none" stroke="#ffffff" d="M193.9,-175.8C207.27,-180.98 224.42,-187.73 239.55,-194 267.32,-205.51 271.63,-218.15 301.55,-221"/>
</g>
<!-- requests -->
<g id="node6" class="node">
<title>requests</title><style>.edge>path:hover{stroke-width:8}</style>
<ellipse fill="#3399cc" stroke="#ffffff" cx="32.17" cy="-664" rx="32.17" ry="18"/>
<text xml:space="preserve" text-anchor="middle" x="32.17" y="-660.5" font-family="Helvetica,sans-Serif" font-size="10.00" fill="#e0e0e0">requests</text>
</g>
<!-- src_mcp_client_mcp_client -->
<g id="node13" class="node">
<title>src_mcp_client_mcp_client</title><style>.edge>path:hover{stroke-width:8}</style>
<ellipse fill="#9933cc" stroke="#ffffff" cx="777.15" cy="-670" rx="46.85" ry="31.11"/>
<text xml:space="preserve" text-anchor="middle" x="777.15" y="-678.5" font-family="Helvetica,sans-Serif" font-size="10.00" fill="#e0e0e0">src.</text>
<text xml:space="preserve" text-anchor="middle" x="777.15" y="-666.5" font-family="Helvetica,sans-Serif" font-size="10.00" fill="#e0e0e0">mcp_client.</text>
<text xml:space="preserve" text-anchor="middle" x="777.15" y="-654.5" font-family="Helvetica,sans-Serif" font-size="10.00" fill="#e0e0e0">mcp_client</text>
</g>
<!-- requests&#45;&gt;src_mcp_client_mcp_client -->
<g id="edge11" class="edge">
<title>requests&#45;&gt;src_mcp_client_mcp_client</title><style>.edge>path:hover{stroke-width:8}</style>
<path fill="none" stroke="#ffffff" d="M393.55,-664C507.43,-639.77 644.7,-651.53 719.96,-661.35"/>
<polygon fill="#3399cc" stroke="#ffffff" points="719.17,-664.78 729.55,-662.65 720.11,-657.84 719.17,-664.78"/>
</g>
<!-- src_rag_api_llm -->
<g id="node18" class="node">
<title>src_rag_api_llm</title><style>.edge>path:hover{stroke-width:8}</style>
<ellipse fill="#9933cc" stroke="#ffffff" cx="503.99" cy="-590" rx="27" ry="39.6"/>
<text xml:space="preserve" text-anchor="middle" x="503.99" y="-604.5" font-family="Helvetica,sans-Serif" font-size="10.00" fill="#e0e0e0">src.</text>
<text xml:space="preserve" text-anchor="middle" x="503.99" y="-592.5" font-family="Helvetica,sans-Serif" font-size="10.00" fill="#e0e0e0">rag.</text>
<text xml:space="preserve" text-anchor="middle" x="503.99" y="-580.5" font-family="Helvetica,sans-Serif" font-size="10.00" fill="#e0e0e0">api.</text>
<text xml:space="preserve" text-anchor="middle" x="503.99" y="-568.5" font-family="Helvetica,sans-Serif" font-size="10.00" fill="#e0e0e0">llm</text>
</g>
<!-- requests&#45;&gt;src_rag_api_llm -->
<g id="edge12" class="edge">
<title>requests&#45;&gt;src_rag_api_llm</title><style>.edge>path:hover{stroke-width:8}</style>
<path fill="none" stroke="#ffffff" d="M64.12,-667.3C126.54,-673.23 271.78,-683.36 391.55,-664"/>
<path fill="none" stroke="#ffffff" d="M393.55,-664C423.84,-657.56 452.62,-637.32 473.06,-619.64"/>
<polygon fill="#3399cc" stroke="#ffffff" points="475.33,-622.31 480.44,-613.02 470.66,-617.1 475.33,-622.31"/>
</g>
<!-- sentence_transformers -->
<g id="node7" class="node">
<title>sentence_transformers</title><style>.edge>path:hover{stroke-width:8}</style>
<ellipse fill="#4040c0" stroke="#ffffff" cx="169.95" cy="-221" rx="69.6" ry="18"/>
<text xml:space="preserve" text-anchor="middle" x="169.95" y="-217.5" font-family="Helvetica,sans-Serif" font-size="10.00" fill="#e0e0e0">sentence_transformers</text>
</g>
<!-- sentence_transformers&#45;&gt;src_rag_embeddings -->
<g id="edge13" class="edge">
<title>sentence_transformers&#45;&gt;src_rag_embeddings</title><style>.edge>path:hover{stroke-width:8}</style>
<path fill="none" stroke="#ffffff" d="M239.2,-218.42C259.32,-218.35 281.36,-218.97 301.55,-221"/>
</g>
<!-- src_agent -->
<g id="node8" class="node">
<title>src_agent</title><style>.edge>path:hover{stroke-width:8}</style>
<ellipse fill="#9d3bce" stroke="#ffffff" cx="1147.04" cy="-557" rx="33.98" ry="18"/>
<text xml:space="preserve" text-anchor="middle" x="1147.04" y="-553.5" font-family="Helvetica,sans-Serif" font-size="10.00" fill="#e0e0e0">src.agent</text>
</g>
<!-- src_agent_runner -->
<g id="node11" class="node">
<title>src_agent_runner</title><style>.edge>path:hover{stroke-width:8}</style>
<ellipse fill="#572e6b" stroke="#ffffff" cx="1268.1" cy="-534" rx="51.09" ry="22.63"/>
<text xml:space="preserve" text-anchor="middle" x="1268.1" y="-536.5" font-family="Helvetica,sans-Serif" font-size="10.00" fill="#e0e0e0">src.</text>
<text xml:space="preserve" text-anchor="middle" x="1268.1" y="-524.5" font-family="Helvetica,sans-Serif" font-size="10.00" fill="#e0e0e0">agent_runner</text>
</g>
<!-- src_agent&#45;&gt;src_agent_runner -->
<g id="edge14" class="edge">
<title>src_agent&#45;&gt;src_agent_runner</title><style>.edge>path:hover{stroke-width:8}</style>
<path fill="none" stroke="#ffffff" d="M1179.32,-550.96C1188.63,-549.16 1199.14,-547.13 1209.57,-545.11"/>
<polygon fill="#9d3bce" stroke="#ffffff" points="1210.15,-548.57 1219.31,-543.23 1208.83,-541.69 1210.15,-548.57"/>
</g>
<!-- src_agent_loop -->
<g id="node9" class="node">
<title>src_agent_loop</title><style>.edge>path:hover{stroke-width:8}</style>
<ellipse fill="#652b82" stroke="#ffffff" cx="1030.46" cy="-511" rx="46.6" ry="18"/>
<text xml:space="preserve" text-anchor="middle" x="1030.46" y="-507.5" font-family="Helvetica,sans-Serif" font-size="10.00" fill="#e0e0e0">src.agent.loop</text>
</g>
<!-- src_agent_loop&#45;&gt;src_agent_runner -->
<g id="edge15" class="edge">
<title>src_agent_loop&#45;&gt;src_agent_runner</title><style>.edge>path:hover{stroke-width:8}</style>
<path fill="none" stroke="#ffffff" d="M1077.23,-512.44C1098.22,-512.73 1123.42,-512.56 1146.04,-511"/>
</g>
<!-- src_agent_prompts -->
<g id="node10" class="node">
<title>src_agent_prompts</title><style>.edge>path:hover{stroke-width:8}</style>
<ellipse fill="#9947c2" stroke="#ffffff" cx="911.62" cy="-570" rx="36.24" ry="31.11"/>
<text xml:space="preserve" text-anchor="middle" x="911.62" y="-578.5" font-family="Helvetica,sans-Serif" font-size="10.00" fill="#e0e0e0">src.</text>
<text xml:space="preserve" text-anchor="middle" x="911.62" y="-566.5" font-family="Helvetica,sans-Serif" font-size="10.00" fill="#e0e0e0">agent.</text>
<text xml:space="preserve" text-anchor="middle" x="911.62" y="-554.5" font-family="Helvetica,sans-Serif" font-size="10.00" fill="#e0e0e0">prompts</text>
</g>
<!-- src_agent_prompts&#45;&gt;src_agent_loop -->
<g id="edge16" class="edge">
<title>src_agent_prompts&#45;&gt;src_agent_loop</title><style>.edge>path:hover{stroke-width:8}</style>
<path fill="none" stroke="#ffffff" d="M943.32,-554.5C957.82,-547.17 975.29,-538.35 990.7,-530.57"/>
<polygon fill="#9947c2" stroke="#ffffff" points="992.27,-533.7 999.62,-526.07 989.12,-527.45 992.27,-533.7"/>
</g>
<!-- src_mcp_client -->
<g id="node12" class="node">
<title>src_mcp_client</title><style>.edge>path:hover{stroke-width:8}</style>
<ellipse fill="#9d3bce" stroke="#ffffff" cx="777.15" cy="-743" rx="47.96" ry="18"/>
<text xml:space="preserve" text-anchor="middle" x="777.15" y="-739.5" font-family="Helvetica,sans-Serif" font-size="10.00" fill="#e0e0e0">src.mcp_client</text>
</g>
<!-- src_mcp_client&#45;&gt;src_agent_loop -->
<g id="edge17" class="edge">
<title>src_mcp_client&#45;&gt;src_agent_loop</title><style>.edge>path:hover{stroke-width:8}</style>
<path fill="none" stroke="#ffffff" d="M810.09,-729.65C846.78,-713.09 907.14,-681.96 947.86,-641 978.01,-610.67 1002.43,-567.27 1016.45,-539.11"/>
<polygon fill="#9d3bce" stroke="#ffffff" points="1019.42,-541.01 1020.65,-530.49 1013.13,-537.95 1019.42,-541.01"/>
</g>
<!-- src_mcp_client&#45;&gt;src_agent_runner -->
<g id="edge18" class="edge">
<title>src_mcp_client&#45;&gt;src_agent_runner</title><style>.edge>path:hover{stroke-width:8}</style>
<path fill="none" stroke="#ffffff" d="M825.37,-743.51C850.65,-743.65 882.34,-743.63 910.62,-743"/>
</g>
<!-- src_mcp_client_mcp_client&#45;&gt;src_agent_loop -->
<g id="edge19" class="edge">
<title>src_mcp_client_mcp_client&#45;&gt;src_agent_loop</title><style>.edge>path:hover{stroke-width:8}</style>
<path fill="none" stroke="#ffffff" d="M822.32,-661.31C858.48,-652.64 909.71,-636.7 947.86,-610 975.08,-590.95 998.28,-560.49 1012.91,-538.38"/>
<polygon fill="#9933cc" stroke="#ffffff" points="1015.73,-540.47 1018.19,-530.16 1009.84,-536.68 1015.73,-540.47"/>
</g>
<!-- src_mcp_client_mcp_client&#45;&gt;src_agent_runner -->
<g id="edge20" class="edge">
<title>src_mcp_client_mcp_client&#45;&gt;src_agent_runner</title><style>.edge>path:hover{stroke-width:8}</style>
<path fill="none" stroke="#ffffff" d="M912.62,-743C967.21,-741.79 981.64,-731.36 1029.46,-705"/>
<path fill="none" stroke="#ffffff" d="M810.02,-692.49C841.96,-714.11 889.35,-743.47 910.62,-743"/>
</g>
<!-- src_rag -->
<g id="node14" class="node">
<title>src_rag</title><style>.edge>path:hover{stroke-width:8}</style>
<ellipse fill="#ac10f9" stroke="#ffffff" cx="777.15" cy="-443" rx="27.66" ry="18"/>
<text xml:space="preserve" text-anchor="middle" x="777.15" y="-439.5" font-family="Helvetica,sans-Serif" font-size="10.00" fill="#e0e0e0">src.rag</text>
</g>
<!-- src_rag&#45;&gt;src_agent_loop -->
<g id="edge21" class="edge">
<title>src_rag&#45;&gt;src_agent_loop</title><style>.edge>path:hover{stroke-width:8}</style>
<path fill="none" stroke="#ffffff" d="M912.62,-435C949.29,-439.61 983.79,-465.77 1005.66,-486.12"/>
<polygon fill="#ac10f9" stroke="#ffffff" points="1002.96,-488.38 1012.59,-492.81 1007.82,-483.35 1002.96,-488.38"/>
</g>
<!-- src_rag&#45;&gt;src_agent_runner -->
<g id="edge22" class="edge">
<title>src_rag&#45;&gt;src_agent_runner</title><style>.edge>path:hover{stroke-width:8}</style>
<path fill="none" stroke="#ffffff" d="M912.62,-435C964.14,-441.48 981.76,-414.46 1029.46,-435"/>
<path fill="none" stroke="#ffffff" d="M804.13,-438.6C830.91,-434.73 873.81,-430.37 910.62,-435"/>
</g>
<!-- src_rag_agentic_retriever&#45;&gt;src_agent_loop -->
<g id="edge23" class="edge">
<title>src_rag_agentic_retriever&#45;&gt;src_agent_loop</title><style>.edge>path:hover{stroke-width:8}</style>
<path fill="none" stroke="#ffffff" d="M816.98,-324.24C852.57,-347.23 905.95,-383.73 947.86,-421 970.21,-440.87 992.83,-466.34 1008.57,-485.11"/>
<polygon fill="#872db4" stroke="#ffffff" points="1005.68,-487.1 1014.75,-492.57 1011.07,-482.64 1005.68,-487.1"/>
</g>
<!-- src_rag_agentic_retriever&#45;&gt;src_agent_runner -->
<g id="edge24" class="edge">
<title>src_rag_agentic_retriever&#45;&gt;src_agent_runner</title><style>.edge>path:hover{stroke-width:8}</style>
<path fill="none" stroke="#ffffff" d="M839.51,-302.01C862.74,-304.72 888.81,-310.2 910.62,-321"/>
</g>
<!-- src_rag_api -->
<g id="node16" class="node">
<title>src_rag_api</title><style>.edge>path:hover{stroke-width:8}</style>
<ellipse fill="#a12fdb" stroke="#ffffff" cx="633.68" cy="-544" rx="37.13" ry="18"/>
<text xml:space="preserve" text-anchor="middle" x="633.68" y="-540.5" font-family="Helvetica,sans-Serif" font-size="10.00" fill="#e0e0e0">src.rag.api</text>
</g>
<!-- src_rag_api&#45;&gt;src_agent_runner -->
<g id="edge25" class="edge">
<title>src_rag_api&#45;&gt;src_agent_runner</title><style>.edge>path:hover{stroke-width:8}</style>
<path fill="none" stroke="#ffffff" d="M639.82,-525.82C649.22,-496.49 672.24,-439.62 714.93,-416 837.47,-348.2 900.83,-379.62 1029.46,-435"/>
</g>
<!-- src_rag_rewriter -->
<g id="node27" class="node">
<title>src_rag_rewriter</title><style>.edge>path:hover{stroke-width:8}</style>
<ellipse fill="#872db4" stroke="#ffffff" cx="777.15" cy="-590" rx="34.12" ry="31.11"/>
<text xml:space="preserve" text-anchor="middle" x="777.15" y="-598.5" font-family="Helvetica,sans-Serif" font-size="10.00" fill="#e0e0e0">src.</text>
<text xml:space="preserve" text-anchor="middle" x="777.15" y="-586.5" font-family="Helvetica,sans-Serif" font-size="10.00" fill="#e0e0e0">rag.</text>
<text xml:space="preserve" text-anchor="middle" x="777.15" y="-574.5" font-family="Helvetica,sans-Serif" font-size="10.00" fill="#e0e0e0">rewriter</text>
</g>
<!-- src_rag_api&#45;&gt;src_rag_rewriter -->
<g id="edge26" class="edge">
<title>src_rag_api&#45;&gt;src_rag_rewriter</title><style>.edge>path:hover{stroke-width:8}</style>
<path fill="none" stroke="#ffffff" d="M665.03,-553.87C685.17,-560.42 711.88,-569.1 734.07,-576.32"/>
<polygon fill="#a12fdb" stroke="#ffffff" points="732.84,-579.6 743.44,-579.36 735.01,-572.94 732.84,-579.6"/>
</g>
<!-- src_rag_api_server -->
<g id="node19" class="node">
<title>src_rag_api_server</title><style>.edge>path:hover{stroke-width:8}</style>
<ellipse fill="#7f439d" stroke="#ffffff" cx="1030.46" cy="-141" rx="30.41" ry="39.6"/>
<text xml:space="preserve" text-anchor="middle" x="1030.46" y="-155.5" font-family="Helvetica,sans-Serif" font-size="10.00" fill="#e0e0e0">src.</text>
<text xml:space="preserve" text-anchor="middle" x="1030.46" y="-143.5" font-family="Helvetica,sans-Serif" font-size="10.00" fill="#e0e0e0">rag.</text>
<text xml:space="preserve" text-anchor="middle" x="1030.46" y="-131.5" font-family="Helvetica,sans-Serif" font-size="10.00" fill="#e0e0e0">api.</text>
<text xml:space="preserve" text-anchor="middle" x="1030.46" y="-119.5" font-family="Helvetica,sans-Serif" font-size="10.00" fill="#e0e0e0">server</text>
</g>
<!-- src_rag_api_app&#45;&gt;src_rag_api_server -->
<g id="edge27" class="edge">
<title>src_rag_api_app&#45;&gt;src_rag_api_server</title><style>.edge>path:hover{stroke-width:8}</style>
<path fill="none" stroke="#ffffff" d="M938.84,-141C953.35,-141 971.71,-141 988.11,-141"/>
<polygon fill="#713091" stroke="#ffffff" points="988.11,-144.5 998.11,-141 988.11,-137.5 988.11,-144.5"/>
</g>
<!-- src_rag_api_llm&#45;&gt;src_agent_runner -->
<g id="edge28" class="edge">
<title>src_rag_api_llm&#45;&gt;src_agent_runner</title><style>.edge>path:hover{stroke-width:8}</style>
<path fill="none" stroke="#ffffff" d="M523.89,-562.57C557.09,-516.49 630.43,-423.74 714.93,-374 715.53,-373.64 909.99,-320.68 910.62,-321"/>
</g>
<!-- src_rag_api_llm&#45;&gt;src_rag_rewriter -->
<g id="edge29" class="edge">
<title>src_rag_api_llm&#45;&gt;src_rag_rewriter</title><style>.edge>path:hover{stroke-width:8}</style>
<path fill="none" stroke="#ffffff" d="M531.48,-590C577.99,-590 674.76,-590 731.67,-590"/>
<polygon fill="#9933cc" stroke="#ffffff" points="731.32,-593.5 741.32,-590 731.32,-586.5 731.32,-593.5"/>
</g>
<!-- src_rag_chunker -->
<g id="node20" class="node">
<title>src_rag_chunker</title><style>.edge>path:hover{stroke-width:8}</style>
<ellipse fill="#9540c0" stroke="#ffffff" cx="503.99" cy="-123" rx="35.71" ry="31.11"/>
<text xml:space="preserve" text-anchor="middle" x="503.99" y="-131.5" font-family="Helvetica,sans-Serif" font-size="10.00" fill="#e0e0e0">src.</text>
<text xml:space="preserve" text-anchor="middle" x="503.99" y="-119.5" font-family="Helvetica,sans-Serif" font-size="10.00" fill="#e0e0e0">rag.</text>
<text xml:space="preserve" text-anchor="middle" x="503.99" y="-107.5" font-family="Helvetica,sans-Serif" font-size="10.00" fill="#e0e0e0">chunker</text>
</g>
<!-- src_rag_loader -->
<g id="node25" class="node">
<title>src_rag_loader</title><style>.edge>path:hover{stroke-width:8}</style>
<ellipse fill="#9540c0" stroke="#ffffff" cx="633.68" cy="-141" rx="45.25" ry="18"/>
<text xml:space="preserve" text-anchor="middle" x="633.68" y="-137.5" font-family="Helvetica,sans-Serif" font-size="10.00" fill="#e0e0e0">src.rag.loader</text>
</g>
<!-- src_rag_chunker&#45;&gt;src_rag_loader -->
<g id="edge30" class="edge">
<title>src_rag_chunker&#45;&gt;src_rag_loader</title><style>.edge>path:hover{stroke-width:8}</style>
<path fill="none" stroke="#ffffff" d="M539.54,-127.87C551.89,-129.61 566.11,-131.62 579.65,-133.53"/>
<polygon fill="#9540c0" stroke="#ffffff" points="578.93,-136.96 589.32,-134.89 579.9,-130.03 578.93,-136.96"/>
</g>
<!-- src_rag_embeddings&#45;&gt;src_rag_index -->
<g id="edge31" class="edge">
<title>src_rag_embeddings&#45;&gt;src_rag_index</title><style>.edge>path:hover{stroke-width:8}</style>
<path fill="none" stroke="#ffffff" d="M552.54,-200.02C561.21,-199.48 570.32,-198.91 579.16,-198.35"/>
<polygon fill="#8d2fbc" stroke="#ffffff" points="579.29,-201.85 589.05,-197.73 578.85,-194.87 579.29,-201.85"/>
</g>
<!-- src_rag_embeddings&#45;&gt;src_rag_retriever -->
<g id="edge32" class="edge">
<title>src_rag_embeddings&#45;&gt;src_rag_retriever</title><style>.edge>path:hover{stroke-width:8}</style>
<path fill="none" stroke="#ffffff" d="M543.99,-221.02C558.89,-227.91 575.93,-235.78 591.06,-242.77"/>
<polygon fill="#8d2fbc" stroke="#ffffff" points="589.26,-245.79 599.81,-246.81 592.2,-239.44 589.26,-245.79"/>
</g>
<!-- src_rag_evaluator -->
<g id="node22" class="node">
<title>src_rag_evaluator</title><style>.edge>path:hover{stroke-width:8}</style>
<ellipse fill="#9d3bce" stroke="#ffffff" cx="777.15" cy="-510" rx="39.42" ry="31.11"/>
<text xml:space="preserve" text-anchor="middle" x="777.15" y="-518.5" font-family="Helvetica,sans-Serif" font-size="10.00" fill="#e0e0e0">src.</text>
<text xml:space="preserve" text-anchor="middle" x="777.15" y="-506.5" font-family="Helvetica,sans-Serif" font-size="10.00" fill="#e0e0e0">rag.</text>
<text xml:space="preserve" text-anchor="middle" x="777.15" y="-494.5" font-family="Helvetica,sans-Serif" font-size="10.00" fill="#e0e0e0">evaluator</text>
</g>
<!-- src_rag_evaluator&#45;&gt;src_agent_loop -->
<g id="edge33" class="edge">
<title>src_rag_evaluator&#45;&gt;src_agent_loop</title><style>.edge>path:hover{stroke-width:8}</style>
<path fill="none" stroke="#ffffff" d="M912.62,-473C940.9,-469.18 971.54,-479.73 994.35,-490.68"/>
<polygon fill="#9d3bce" stroke="#ffffff" points="992.7,-493.77 1003.2,-495.17 995.86,-487.53 992.7,-493.77"/>
</g>
<!-- src_rag_evaluator&#45;&gt;src_agent_runner -->
<g id="edge34" class="edge">
<title>src_rag_evaluator&#45;&gt;src_agent_runner</title><style>.edge>path:hover{stroke-width:8}</style>
<path fill="none" stroke="#ffffff" d="M912.62,-473C966.73,-465.69 979.3,-413.41 1029.46,-435"/>
<path fill="none" stroke="#ffffff" d="M813.57,-497.22C839.94,-488.43 877.02,-477.54 910.62,-473"/>
</g>
<!-- src_rag_index&#45;&gt;src_agent_runner -->
<g id="edge35" class="edge">
<title>src_rag_index&#45;&gt;src_agent_runner</title><style>.edge>path:hover{stroke-width:8}</style>
<path fill="none" stroke="#ffffff" d="M1031.46,-435C1087.43,-459.54 1085.08,-515.2 1146.04,-511"/>
<path fill="none" stroke="#ffffff" d="M1148.04,-511C1170.19,-509.47 1194.3,-513.11 1214.99,-517.91"/>
<polygon fill="#812bac" stroke="#ffffff" points="1214.09,-521.29 1224.63,-520.31 1215.78,-514.5 1214.09,-521.29"/>
<path fill="none" stroke="#ffffff" d="M912.62,-321C977.64,-353.19 963.02,-405.86 1029.46,-435"/>
<path fill="none" stroke="#ffffff" d="M673.51,-202.46C716.12,-211.73 785.62,-230.08 839.38,-260 875.8,-280.27 873.26,-302.5 910.62,-321"/>
</g>
<!-- src_rag_index&#45;&gt;src_rag_api_app -->
<g id="edge36" class="edge">
<title>src_rag_index&#45;&gt;src_rag_api_app</title><style>.edge>path:hover{stroke-width:8}</style>
<path fill="none" stroke="#ffffff" d="M658.66,-180.09C685.99,-164.5 732.53,-142.12 776.15,-141"/>
</g>
<!-- src_rag_llm&#45;&gt;src_rag_api_app -->
<g id="edge37" class="edge">
<title>src_rag_llm&#45;&gt;src_rag_api_app</title><style>.edge>path:hover{stroke-width:8}</style>
<path fill="none" stroke="#ffffff" d="M656.06,-63.82C693.85,-89.88 769.16,-141.18 776.15,-141"/>
<path fill="none" stroke="#ffffff" d="M778.15,-141C810.05,-140.18 846.28,-140.25 872.78,-140.48"/>
<polygon fill="#9540c0" stroke="#ffffff" points="872.67,-143.98 882.71,-140.58 872.75,-136.98 872.67,-143.98"/>
</g>
<!-- src_rag_loader&#45;&gt;src_rag_api_app -->
<g id="edge38" class="edge">
<title>src_rag_loader&#45;&gt;src_rag_api_app</title><style>.edge>path:hover{stroke-width:8}</style>
<path fill="none" stroke="#ffffff" d="M679.29,-141.59C707.14,-141.81 743.74,-141.84 776.15,-141"/>
</g>
<!-- src_rag_retriever&#45;&gt;src_rag_agentic_retriever -->
<g id="edge39" class="edge">
<title>src_rag_retriever&#45;&gt;src_rag_agentic_retriever</title><style>.edge>path:hover{stroke-width:8}</style>
<path fill="none" stroke="#ffffff" d="M668.56,-271.1C681.27,-274.51 696.17,-278.52 710.77,-282.44"/>
<polygon fill="#8d2fbc" stroke="#ffffff" points="709.8,-285.8 720.37,-285.02 711.62,-279.04 709.8,-285.8"/>
</g>
<!-- src_rag_retriever&#45;&gt;src_rag_api_app -->
<g id="edge40" class="edge">
<title>src_rag_retriever&#45;&gt;src_rag_api_app</title><style>.edge>path:hover{stroke-width:8}</style>
<path fill="none" stroke="#ffffff" d="M659.78,-239.83C699.41,-204.93 772.4,-141.1 776.15,-141"/>
</g>
<!-- src_rag_rewriter&#45;&gt;src_agent_loop -->
<g id="edge41" class="edge">
<title>src_rag_rewriter&#45;&gt;src_agent_loop</title><style>.edge>path:hover{stroke-width:8}</style>
<path fill="none" stroke="#ffffff" d="M805.27,-572.44C831.33,-555.7 867.85,-532.65 875.38,-530 906.25,-519.16 942.48,-514.32 972.06,-512.24"/>
<polygon fill="#872db4" stroke="#ffffff" points="972.18,-515.74 981.95,-511.64 971.75,-508.75 972.18,-515.74"/>
</g>
<!-- src_rag_rewriter&#45;&gt;src_agent_runner -->
<g id="edge42" class="edge">
<title>src_rag_rewriter&#45;&gt;src_agent_runner</title><style>.edge>path:hover{stroke-width:8}</style>
<path fill="none" stroke="#ffffff" d="M806.43,-606.05C867.65,-640.36 1008.63,-716.78 1029.46,-705"/>
<path fill="none" stroke="#ffffff" d="M1031.46,-705C1119.16,-656.66 1046.14,-517.89 1146.04,-511"/>
</g>
<!-- tiktoken -->
<g id="node28" class="node">
<title>tiktoken</title><style>.edge>path:hover{stroke-width:8}</style>
<ellipse fill="#b65395" stroke="#ffffff" cx="169.95" cy="-113" rx="30.37" ry="18"/>
<text xml:space="preserve" text-anchor="middle" x="169.95" y="-109.5" font-family="Helvetica,sans-Serif" font-size="10.00" fill="#e0e0e0">tiktoken</text>
</g>
<!-- tiktoken&#45;&gt;src_rag_chunker -->
<g id="edge43" class="edge">
<title>tiktoken&#45;&gt;src_rag_chunker</title><style>.edge>path:hover{stroke-width:8}</style>
<path fill="none" stroke="#ffffff" d="M200.71,-113.9C258.71,-115.64 387.28,-119.52 456.58,-121.6"/>
<polygon fill="#b65395" stroke="#ffffff" points="456.37,-125.1 466.48,-121.9 456.59,-118.1 456.37,-125.1"/>
</g>
</g>
</svg>

