<?xml version="1.0" encoding="UTF-8" standalone="no"?>
<!DOCTYPE svg PUBLIC "-//W3C//DTD SVG 1.1//EN"
 "http://www.w3.org/Graphics/SVG/1.1/DTD/svg11.dtd">
<!-- Generated by graphviz version 14.1.5 (20260411.2331)
 -->
<!-- Title: G Pages: 1 -->
<svg style="background-color:#141414" width="819pt" height="368pt"
 viewBox="0.00 0.00 819.00 368.00" xmlns="http://www.w3.org/2000/svg" xmlns:xlink="http://www.w3.org/1999/xlink">
<g id="graph0" class="graph" transform="scale(1 1) rotate(0) translate(4 364.11)">
<title>G</title><style>.edge>path:hover{stroke-width:8}</style>
<polygon fill="#141414" stroke="none" points="-4,4 -4,-364.11 815.28,-364.11 815.28,4 -4,4"/>
<!-- faiss -->
<g id="node1" class="node">
<title>faiss</title><style>.edge>path:hover{stroke-width:8}</style>
<ellipse fill="#c43131" stroke="#ffffff" cx="202.21" cy="-283.11" rx="27" ry="18"/>
<text xml:space="preserve" text-anchor="middle" x="202.21" y="-279.61" font-family="Helvetica,sans-Serif" font-size="10.00" fill="#e0e0e0">faiss</text>
</g>
<!-- src_rag_index -->
<g id="node12" class="node">
<title>src_rag_index</title><style>.edge>path:hover{stroke-width:8}</style>
<ellipse fill="#6b35a1" stroke="#ffffff" cx="480.33" cy="-288.11" rx="43.45" ry="18"/>
<text xml:space="preserve" text-anchor="middle" x="480.33" y="-284.61" font-family="Helvetica,sans-Serif" font-size="10.00" fill="#e0e0e0">src.rag.index</text>
</g>
<!-- faiss&#45;&gt;src_rag_index -->
<g id="edge1" class="edge">
<title>faiss&#45;&gt;src_rag_index</title><style>.edge>path:hover{stroke-width:8}</style>
<path fill="none" stroke="#ffffff" d="M351.65,-288.11C375.82,-285.04 402.78,-284.61 425.67,-285.11"/>
<polygon fill="#c43131" stroke="#ffffff" points="425.28,-288.6 435.38,-285.4 425.49,-281.61 425.28,-288.6"/>
</g>
<!-- src_rag_retriever -->
<g id="node15" class="node">
<title>src_rag_retriever</title><style>.edge>path:hover{stroke-width:8}</style>
<ellipse fill="#753ab0" stroke="#ffffff" cx="480.33" cy="-221.11" rx="36.24" ry="31.11"/>
<text xml:space="preserve" text-anchor="middle" x="480.33" y="-229.61" font-family="Helvetica,sans-Serif" font-size="10.00" fill="#e0e0e0">src.</text>
<text xml:space="preserve" text-anchor="middle" x="480.33" y="-217.61" font-family="Helvetica,sans-Serif" font-size="10.00" fill="#e0e0e0">rag.</text>
<text xml:space="preserve" text-anchor="middle" x="480.33" y="-205.61" font-family="Helvetica,sans-Serif" font-size="10.00" fill="#e0e0e0">retriever</text>
</g>
<!-- faiss&#45;&gt;src_rag_retriever -->
<g id="edge2" class="edge">
<title>faiss&#45;&gt;src_rag_retriever</title><style>.edge>path:hover{stroke-width:8}</style>
<path fill="none" stroke="#ffffff" d="M351.65,-288.11C385.63,-283.79 419.76,-264.95 444.18,-248.34"/>
<polygon fill="#c43131" stroke="#ffffff" points="445.96,-251.37 452.13,-242.76 441.93,-245.64 445.96,-251.37"/>
<path fill="none" stroke="#ffffff" d="M228.98,-286.48C258.32,-289.73 307.63,-293.45 349.65,-288.11"/>
</g>
<!-- flask -->
<g id="node2" class="node">
<title>flask</title><style>.edge>path:hover{stroke-width:8}</style>
<ellipse fill="#c0a040" stroke="#ffffff" cx="480.33" cy="-342.11" rx="27" ry="18"/>
<text xml:space="preserve" text-anchor="middle" x="480.33" y="-338.61" font-family="Helvetica,sans-Serif" font-size="10.00" fill="#e0e0e0">flask</text>
</g>
<!-- src_app -->
<g id="node7" class="node">
<title>src_app</title><style>.edge>path:hover{stroke-width:8}</style>
<ellipse fill="#613091" stroke="#ffffff" cx="681.92" cy="-282.11" rx="29.01" ry="18"/>
<text xml:space="preserve" text-anchor="middle" x="681.92" y="-278.61" font-family="Helvetica,sans-Serif" font-size="10.00" fill="#e0e0e0">src.app</text>
</g>
<!-- flask&#45;&gt;src_app -->
<g id="edge3" class="edge">
<title>flask&#45;&gt;src_app</title><style>.edge>path:hover{stroke-width:8}</style>
<path fill="none" stroke="#ffffff" d="M506.66,-337.22C534.15,-331.61 579.18,-321.57 616.91,-309.11 627.06,-305.76 637.86,-301.49 647.63,-297.34"/>
<polygon fill="#c0a040" stroke="#ffffff" points="648.99,-300.57 656.76,-293.37 646.2,-294.15 648.99,-300.57"/>
</g>
<!-- numpy -->
<g id="node3" class="node">
<title>numpy</title><style>.edge>path:hover{stroke-width:8}</style>
<ellipse fill="#80e619" stroke="#ffffff" cx="69.6" cy="-237.11" rx="27.21" ry="18"/>
<text xml:space="preserve" text-anchor="middle" x="69.6" y="-233.61" font-family="Helvetica,sans-Serif" font-size="10.00" fill="#e0e0e0">numpy</text>
</g>
<!-- numpy&#45;&gt;faiss -->
<g id="edge4" class="edge">
<title>numpy&#45;&gt;faiss</title><style>.edge>path:hover{stroke-width:8}</style>
<path fill="none" stroke="#ffffff" d="M94.26,-245.44C114.6,-252.61 144.19,-263.03 167.1,-271.1"/>
<polygon fill="#80e619" stroke="#ffffff" points="165.71,-274.32 176.31,-274.34 168.04,-267.72 165.71,-274.32"/>
</g>
<!-- src_rag_embeddings -->
<g id="node11" class="node">
<title>src_rag_embeddings</title><style>.edge>path:hover{stroke-width:8}</style>
<ellipse fill="#752fbc" stroke="#ffffff" cx="350.65" cy="-229.11" rx="48.44" ry="31.11"/>
<text xml:space="preserve" text-anchor="middle" x="350.65" y="-237.61" font-family="Helvetica,sans-Serif" font-size="10.00" fill="#e0e0e0">src.</text>
<text xml:space="preserve" text-anchor="middle" x="350.65" y="-225.61" font-family="Helvetica,sans-Serif" font-size="10.00" fill="#e0e0e0">rag.</text>
<text xml:space="preserve" text-anchor="middle" x="350.65" y="-213.61" font-family="Helvetica,sans-Serif" font-size="10.00" fill="#e0e0e0">embeddings</text>
</g>
<!-- numpy&#45;&gt;src_rag_embeddings -->
<g id="edge5" class="edge">
<title>numpy&#45;&gt;src_rag_embeddings</title><style>.edge>path:hover{stroke-width:8}</style>
<path fill="none" stroke="#ffffff" d="M97.2,-235.56C123.64,-234.37 165.34,-233.5 201.21,-237.11"/>
</g>
<!-- numpy&#45;&gt;src_rag_index -->
<g id="edge6" class="edge">
<title>numpy&#45;&gt;src_rag_index</title><style>.edge>path:hover{stroke-width:8}</style>
<path fill="none" stroke="#ffffff" d="M85.6,-252.16C104.55,-270 139.08,-298.75 175.21,-310.11 263.45,-337.86 372.92,-317.48 433.53,-301.74"/>
<polygon fill="#80e619" stroke="#ffffff" points="434.41,-305.13 443.16,-299.16 432.59,-298.37 434.41,-305.13"/>
</g>
<!-- numpy&#45;&gt;src_rag_retriever -->
<g id="edge7" class="edge">
<title>numpy&#45;&gt;src_rag_retriever</title><style>.edge>path:hover{stroke-width:8}</style>
<path fill="none" stroke="#ffffff" d="M93.82,-228.39C147.7,-209.32 285.32,-167.27 399.08,-189.11 412.19,-191.63 425.87,-196.26 438.15,-201.23"/>
<polygon fill="#80e619" stroke="#ffffff" points="436.57,-204.36 447.14,-205.05 439.31,-197.92 436.57,-204.36"/>
</g>
<!-- openai -->
<g id="node4" class="node">
<title>openai</title><style>.edge>path:hover{stroke-width:8}</style>
<ellipse fill="#40c060" stroke="#ffffff" cx="202.21" cy="-86.11" rx="27" ry="18"/>
<text xml:space="preserve" text-anchor="middle" x="202.21" y="-82.61" font-family="Helvetica,sans-Serif" font-size="10.00" fill="#e0e0e0">openai</text>
</g>
<!-- src_rag_llm -->
<g id="node13" class="node">
<title>src_rag_llm</title><style>.edge>path:hover{stroke-width:8}</style>
<ellipse fill="#7f40c0" stroke="#ffffff" cx="480.33" cy="-154.11" rx="37.13" ry="18"/>
<text xml:space="preserve" text-anchor="middle" x="480.33" y="-150.61" font-family="Helvetica,sans-Serif" font-size="10.00" fill="#e0e0e0">src.rag.llm</text>
</g>
<!-- openai&#45;&gt;src_rag_llm -->
<g id="edge8" class="edge">
<title>openai&#45;&gt;src_rag_llm</title><style>.edge>path:hover{stroke-width:8}</style>
<path fill="none" stroke="#ffffff" d="M227.71,-92.15C274.49,-103.67 377.05,-128.92 435.77,-143.39"/>
<polygon fill="#40c060" stroke="#ffffff" points="434.89,-146.77 445.43,-145.76 436.56,-139.97 434.89,-146.77"/>
</g>
<!-- pytest -->
<g id="node5" class="node">
<title>pytest</title><style>.edge>path:hover{stroke-width:8}</style>
<ellipse fill="#53b6b6" stroke="#ffffff" cx="69.6" cy="-183.11" rx="27" ry="18"/>
<text xml:space="preserve" text-anchor="middle" x="69.6" y="-179.61" font-family="Helvetica,sans-Serif" font-size="10.00" fill="#e0e0e0">pytest</text>
</g>
<!-- pytest&#45;&gt;src_rag_embeddings -->
<g id="edge9" class="edge">
<title>pytest&#45;&gt;src_rag_embeddings</title><style>.edge>path:hover{stroke-width:8}</style>
<path fill="none" stroke="#ffffff" d="M93.56,-191.91C106.92,-197.09 124.07,-203.84 139.21,-210.11 166.98,-221.62 171.31,-234.1 201.21,-237.11"/>
<path fill="none" stroke="#ffffff" d="M203.21,-237.11C232.25,-240.04 264.64,-238.74 291.56,-236.41"/>
<polygon fill="#53b6b6" stroke="#ffffff" points="291.6,-239.93 301.23,-235.51 290.95,-232.96 291.6,-239.93"/>
</g>
<!-- sentence_transformers -->
<g id="node6" class="node">
<title>sentence_transformers</title><style>.edge>path:hover{stroke-width:8}</style>
<ellipse fill="#405fc0" stroke="#ffffff" cx="69.6" cy="-129.11" rx="69.6" ry="18"/>
<text xml:space="preserve" text-anchor="middle" x="69.6" y="-125.61" font-family="Helvetica,sans-Serif" font-size="10.00" fill="#e0e0e0">sentence_transformers</text>
</g>
<!-- sentence_transformers&#45;&gt;src_rag_embeddings -->
<g id="edge10" class="edge">
<title>sentence_transformers&#45;&gt;src_rag_embeddings</title><style>.edge>path:hover{stroke-width:8}</style>
<path fill="none" stroke="#ffffff" d="M111.78,-143.87C160.99,-161.51 243.43,-191.05 297.17,-210.31"/>
<polygon fill="#405fc0" stroke="#ffffff" points="295.83,-213.54 306.42,-213.62 298.19,-206.95 295.83,-213.54"/>
</g>
<!-- src_main -->
<g id="node8" class="node">
<title>src_main</title><style>.edge>path:hover{stroke-width:8}</style>
<ellipse fill="#7a49ac" stroke="#ffffff" cx="779.11" cy="-282.11" rx="32.17" ry="18"/>
<text xml:space="preserve" text-anchor="middle" x="779.11" y="-278.61" font-family="Helvetica,sans-Serif" font-size="10.00" fill="#e0e0e0">src.main</text>
</g>
<!-- src_app&#45;&gt;src_main -->
<g id="edge11" class="edge">
<title>src_app&#45;&gt;src_main</title><style>.edge>path:hover{stroke-width:8}</style>
<path fill="none" stroke="#ffffff" d="M711.22,-282.11C718.82,-282.11 727.21,-282.11 735.4,-282.11"/>
<polygon fill="#613091" stroke="#ffffff" points="735.24,-285.61 745.24,-282.11 735.24,-278.61 735.24,-285.61"/>
</g>
<!-- src_rag -->
<g id="node9" class="node">
<title>src_rag</title><style>.edge>path:hover{stroke-width:8}</style>
<ellipse fill="#853bce" stroke="#ffffff" cx="589.25" cy="-282.11" rx="27.66" ry="18"/>
<text xml:space="preserve" text-anchor="middle" x="589.25" y="-278.61" font-family="Helvetica,sans-Serif" font-size="10.00" fill="#e0e0e0">src.rag</text>
</g>
<!-- src_rag&#45;&gt;src_app -->
<g id="edge12" class="edge">
<title>src_rag&#45;&gt;src_app</title><style>.edge>path:hover{stroke-width:8}</style>
<path fill="none" stroke="#ffffff" d="M616.96,-282.11C624.56,-282.11 633,-282.11 641.2,-282.11"/>
<polygon fill="#853bce" stroke="#ffffff" points="640.99,-285.61 650.99,-282.11 640.99,-278.61 640.99,-285.61"/>
</g>
<!-- src_rag_chunker -->
<g id="node10" class="node">
<title>src_rag_chunker</title><style>.edge>path:hover{stroke-width:8}</style>
<ellipse fill="#7f40c0" stroke="#ffffff" cx="350.65" cy="-31.11" rx="35.71" ry="31.11"/>
<text xml:space="preserve" text-anchor="middle" x="350.65" y="-39.61" font-family="Helvetica,sans-Serif" font-size="10.00" fill="#e0e0e0">src.</text>
<text xml:space="preserve" text-anchor="middle" x="350.65" y="-27.61" font-family="Helvetica,sans-Serif" font-size="10.00" fill="#e0e0e0">rag.</text>
<text xml:space="preserve" text-anchor="middle" x="350.65" y="-15.61" font-family="Helvetica,sans-Serif" font-size="10.00" fill="#e0e0e0">chunker</text>
</g>
<!-- src_rag_loader -->
<g id="node14" class="node">
<title>src_rag_loader</title><style>.edge>path:hover{stroke-width:8}</style>
<ellipse fill="#7f40c0" stroke="#ffffff" cx="480.33" cy="-31.11" rx="45.25" ry="18"/>
<text xml:space="preserve" text-anchor="middle" x="480.33" y="-27.61" font-family="Helvetica,sans-Serif" font-size="10.00" fill="#e0e0e0">src.rag.loader</text>
</g>
<!-- src_rag_chunker&#45;&gt;src_rag_loader -->
<g id="edge13" class="edge">
<title>src_rag_chunker&#45;&gt;src_rag_loader</title><style>.edge>path:hover{stroke-width:8}</style>
<path fill="none" stroke="#ffffff" d="M386.54,-31.11C397.96,-31.11 410.95,-31.11 423.51,-31.11"/>
<polygon fill="#7f40c0" stroke="#ffffff" points="423.36,-34.61 433.36,-31.11 423.36,-27.61 423.36,-34.61"/>
</g>
<!-- src_rag_embeddings&#45;&gt;src_rag_index -->
<g id="edge14" class="edge">
<title>src_rag_embeddings&#45;&gt;src_rag_index</title><style>.edge>path:hover{stroke-width:8}</style>
<path fill="none" stroke="#ffffff" d="M390.65,-247.14C406.26,-254.35 424.22,-262.65 439.88,-269.88"/>
<polygon fill="#752fbc" stroke="#ffffff" points="438.38,-273.04 448.92,-274.06 441.31,-266.69 438.38,-273.04"/>
</g>
<!-- src_rag_embeddings&#45;&gt;src_rag_retriever -->
<g id="edge15" class="edge">
<title>src_rag_embeddings&#45;&gt;src_rag_retriever</title><style>.edge>path:hover{stroke-width:8}</style>
<path fill="none" stroke="#ffffff" d="M399.19,-226.13C410.02,-225.46 421.52,-224.73 432.33,-224.06"/>
<polygon fill="#752fbc" stroke="#ffffff" points="432.45,-227.56 442.21,-223.44 432.01,-220.57 432.45,-227.56"/>
</g>
<!-- src_rag_index&#45;&gt;src_app -->
<g id="edge16" class="edge">
<title>src_rag_index&#45;&gt;src_app</title><style>.edge>path:hover{stroke-width:8}</style>
<path fill="none" stroke="#ffffff" d="M505.73,-273.35C512.2,-269.4 519.17,-265.12 525.58,-261.11 553.61,-243.62 559.2,-205.37 588.25,-221.11"/>
</g>
<!-- src_rag_llm&#45;&gt;src_app -->
<g id="edge17" class="edge">
<title>src_rag_llm&#45;&gt;src_app</title><style>.edge>path:hover{stroke-width:8}</style>
<path fill="none" stroke="#ffffff" d="M504.36,-168.04C511.2,-172.21 518.71,-176.82 525.58,-181.11 553.61,-198.61 559.2,-205.37 588.25,-221.11"/>
</g>
<!-- src_rag_loader&#45;&gt;src_app -->
<g id="edge18" class="edge">
<title>src_rag_loader&#45;&gt;src_app</title><style>.edge>path:hover{stroke-width:8}</style>
<path fill="none" stroke="#ffffff" d="M590.25,-221.11C612.48,-233.17 636.15,-249.21 653.73,-261.82"/>
<polygon fill="#7f40c0" stroke="#ffffff" points="651.45,-264.48 661.59,-267.53 655.56,-258.82 651.45,-264.48"/>
<path fill="none" stroke="#ffffff" d="M490.01,-48.96C512.32,-94.46 571.11,-211.82 588.25,-221.11"/>
</g>
<!-- src_rag_retriever&#45;&gt;src_app -->
<g id="edge19" class="edge">
<title>src_rag_retriever&#45;&gt;src_app</title><style>.edge>path:hover{stroke-width:8}</style>
<path fill="none" stroke="#ffffff" d="M515.64,-213.11C537.69,-209.83 566.22,-209.17 588.25,-221.11"/>
</g>
<!-- tiktoken -->
<g id="node16" class="node">
<title>tiktoken</title><style>.edge>path:hover{stroke-width:8}</style>
<ellipse fill="#b6539d" stroke="#ffffff" cx="69.6" cy="-31.11" rx="30.37" ry="18"/>
<text xml:space="preserve" text-anchor="middle" x="69.6" y="-27.61" font-family="Helvetica,sans-Serif" font-size="10.00" fill="#e0e0e0">tiktoken</text>
</g>
<!-- tiktoken&#45;&gt;src_rag_chunker -->
<g id="edge20" class="edge">
<title>tiktoken&#45;&gt;src_rag_chunker</title><style>.edge>path:hover{stroke-width:8}</style>
<path fill="none" stroke="#ffffff" d="M100.47,-31.11C149.13,-31.11 245.89,-31.11 303.47,-31.11"/>
<polygon fill="#b6539d" stroke="#ffffff" points="303.27,-34.61 313.27,-31.11 303.27,-27.61 303.27,-34.61"/>
</g>
</g>
</svg>

