<?xml version="1.0" encoding="UTF-8" standalone="no"?>
<!DOCTYPE svg PUBLIC "-//W3C//DTD SVG 1.1//EN"
 "http://www.w3.org/Graphics/SVG/1.1/DTD/svg11.dtd">
<!-- Generated by graphviz version 15.0.0 (20260523.1842)
 -->
<!-- Title: G Pages: 1 -->
<svg style="background-color:#141414" width="1227pt" height="592pt"
 viewBox="0.00 0.00 1227.00 592.00" xmlns="http://www.w3.org/2000/svg" xmlns:xlink="http://www.w3.org/1999/xlink">
<g id="graph0" class="graph" transform="scale(1 1) rotate(0) translate(4 588.24)">
<title>G</title><style>.edge>path:hover{stroke-width:8}</style>
<polygon fill="#141414" stroke="none" points="-4,4 -4,-588.24 1223.04,-588.24 1223.04,4 -4,4"/>
<!-- agent_runner_py -->
<g id="node1" class="node">
<title>agent_runner_py</title><style>.edge>path:hover{stroke-width:8}</style>
<ellipse fill="#633535" stroke="#ffffff" cx="1165.83" cy="-367.13" rx="53.21" ry="22.63"/>
<text xml:space="preserve" text-anchor="middle" x="1165.83" y="-369.63" font-family="Helvetica,sans-Serif" font-size="10.00" fill="#e0e0e0">agent_runner.</text>
<text xml:space="preserve" text-anchor="middle" x="1165.83" y="-357.63" font-family="Helvetica,sans-Serif" font-size="10.00" fill="#e0e0e0">py</text>
</g>
<!-- faiss -->
<g id="node2" class="node">
<title>faiss</title><style>.edge>path:hover{stroke-width:8}</style>
<ellipse fill="#aed024" stroke="#ffffff" cx="217.76" cy="-51.13" rx="27" ry="18"/>
<text xml:space="preserve" text-anchor="middle" x="217.76" y="-47.63" font-family="Helvetica,sans-Serif" font-size="10.00" fill="#e0e0e0">faiss</text>
</g>
<!-- src_rag_agentic_retriever -->
<g id="node12" class="node">
<title>src_rag_agentic_retriever</title><style>.edge>path:hover{stroke-width:8}</style>
<ellipse fill="#9238a8" stroke="#ffffff" cx="635.76" cy="-100.13" rx="62.23" ry="31.11"/>
<text xml:space="preserve" text-anchor="middle" x="635.76" y="-108.63" font-family="Helvetica,sans-Serif" font-size="10.00" fill="#e0e0e0">src.</text>
<text xml:space="preserve" text-anchor="middle" x="635.76" y="-96.63" font-family="Helvetica,sans-Serif" font-size="10.00" fill="#e0e0e0">rag.</text>
<text xml:space="preserve" text-anchor="middle" x="635.76" y="-84.63" font-family="Helvetica,sans-Serif" font-size="10.00" fill="#e0e0e0">agentic_retriever</text>
</g>
<!-- faiss&#45;&gt;src_rag_agentic_retriever -->
<g id="edge1" class="edge">
<title>faiss&#45;&gt;src_rag_agentic_retriever</title><style>.edge>path:hover{stroke-width:8}</style>
<path fill="none" stroke="#ffffff" d="M367.2,-123.13C389.77,-120.56 394.23,-114.1 414.64,-104.13 431.28,-95.99 432.76,-87.96 450.64,-83.13 487.92,-73.05 499.06,-79.79 537.53,-83.13 546.92,-83.94 556.76,-85.19 566.42,-86.65"/>
<polygon fill="#aed024" stroke="#ffffff" points="565.73,-90.08 576.16,-88.2 566.83,-83.17 565.73,-90.08"/>
<path fill="none" stroke="#ffffff" d="M234.26,-65.67C259.75,-87.92 312.97,-127.45 365.2,-123.13"/>
</g>
<!-- src_rag_index -->
<g id="node17" class="node">
<title>src_rag_index</title><style>.edge>path:hover{stroke-width:8}</style>
<ellipse fill="#854096" stroke="#ffffff" cx="494.08" cy="-18.13" rx="43.45" ry="18"/>
<text xml:space="preserve" text-anchor="middle" x="494.08" y="-14.63" font-family="Helvetica,sans-Serif" font-size="10.00" fill="#e0e0e0">src.rag.index</text>
</g>
<!-- faiss&#45;&gt;src_rag_index -->
<g id="edge2" class="edge">
<title>faiss&#45;&gt;src_rag_index</title><style>.edge>path:hover{stroke-width:8}</style>
<path fill="none" stroke="#ffffff" d="M231.67,-35.78C243.08,-23.8 260.96,-8.6 280.76,-5.13"/>
</g>
<!-- src_rag_retriever -->
<g id="node18" class="node">
<title>src_rag_retriever</title><style>.edge>path:hover{stroke-width:8}</style>
<ellipse fill="#9246a4" stroke="#ffffff" cx="494.08" cy="-123.13" rx="36.24" ry="31.11"/>
<text xml:space="preserve" text-anchor="middle" x="494.08" y="-131.63" font-family="Helvetica,sans-Serif" font-size="10.00" fill="#e0e0e0">src.</text>
<text xml:space="preserve" text-anchor="middle" x="494.08" y="-119.63" font-family="Helvetica,sans-Serif" font-size="10.00" fill="#e0e0e0">rag.</text>
<text xml:space="preserve" text-anchor="middle" x="494.08" y="-107.63" font-family="Helvetica,sans-Serif" font-size="10.00" fill="#e0e0e0">retriever</text>
</g>
<!-- faiss&#45;&gt;src_rag_retriever -->
<g id="edge3" class="edge">
<title>faiss&#45;&gt;src_rag_retriever</title><style>.edge>path:hover{stroke-width:8}</style>
<path fill="none" stroke="#ffffff" d="M367.2,-123.13C393.33,-120.15 422.7,-119.97 446.5,-120.62"/>
<polygon fill="#aed024" stroke="#ffffff" points="446.07,-124.11 456.18,-120.94 446.3,-117.11 446.07,-124.11"/>
</g>
<!-- numpy -->
<g id="node3" class="node">
<title>numpy</title><style>.edge>path:hover{stroke-width:8}</style>
<ellipse fill="#19e66b" stroke="#ffffff" cx="127.55" cy="-51.13" rx="27.21" ry="18"/>
<text xml:space="preserve" text-anchor="middle" x="127.55" y="-47.63" font-family="Helvetica,sans-Serif" font-size="10.00" fill="#e0e0e0">numpy</text>
</g>
<!-- numpy&#45;&gt;faiss -->
<g id="edge4" class="edge">
<title>numpy&#45;&gt;faiss</title><style>.edge>path:hover{stroke-width:8}</style>
<path fill="none" stroke="#ffffff" d="M155.02,-51.13C162.52,-51.13 170.84,-51.13 178.87,-51.13"/>
<polygon fill="#19e66b" stroke="#ffffff" points="178.8,-54.63 188.8,-51.13 178.8,-47.63 178.8,-54.63"/>
</g>
<!-- src_rag_embeddings -->
<g id="node15" class="node">
<title>src_rag_embeddings</title><style>.edge>path:hover{stroke-width:8}</style>
<ellipse fill="#a640c0" stroke="#ffffff" cx="366.2" cy="-64.13" rx="48.44" ry="31.11"/>
<text xml:space="preserve" text-anchor="middle" x="366.2" y="-72.63" font-family="Helvetica,sans-Serif" font-size="10.00" fill="#e0e0e0">src.</text>
<text xml:space="preserve" text-anchor="middle" x="366.2" y="-60.63" font-family="Helvetica,sans-Serif" font-size="10.00" fill="#e0e0e0">rag.</text>
<text xml:space="preserve" text-anchor="middle" x="366.2" y="-48.63" font-family="Helvetica,sans-Serif" font-size="10.00" fill="#e0e0e0">embeddings</text>
</g>
<!-- numpy&#45;&gt;src_rag_embeddings -->
<g id="edge5" class="edge">
<title>numpy&#45;&gt;src_rag_embeddings</title><style>.edge>path:hover{stroke-width:8}</style>
<path fill="none" stroke="#ffffff" d="M218.76,-5.13C238.64,-3.32 283.29,-22.66 318.09,-39.68"/>
<polygon fill="#19e66b" stroke="#ffffff" points="316.21,-42.65 326.72,-43.95 319.32,-36.37 316.21,-42.65"/>
</g>
<!-- numpy&#45;&gt;src_rag_index -->
<g id="edge6" class="edge">
<title>numpy&#45;&gt;src_rag_index</title><style>.edge>path:hover{stroke-width:8}</style>
<path fill="none" stroke="#ffffff" d="M146.25,-37.6C163.25,-25.7 190.19,-9.59 216.76,-5.13"/>
<path fill="none" stroke="#ffffff" d="M218.76,-5.13C245.94,-0.56 253.62,-9.89 280.76,-5.13"/>
<path fill="none" stroke="#ffffff" d="M281.76,-5.13C336.48,4.48 400.25,-1.79 443.31,-8.53"/>
<polygon fill="#19e66b" stroke="#ffffff" points="442.68,-11.98 453.11,-10.15 443.81,-5.07 442.68,-11.98"/>
</g>
<!-- numpy&#45;&gt;src_rag_retriever -->
<g id="edge7" class="edge">
<title>numpy&#45;&gt;src_rag_retriever</title><style>.edge>path:hover{stroke-width:8}</style>
<path fill="none" stroke="#ffffff" d="M148.01,-63.39C181.26,-83.54 251.82,-122.84 317.76,-137.13 361.25,-146.54 412.04,-140.7 447.73,-133.92"/>
<polygon fill="#19e66b" stroke="#ffffff" points="448.16,-137.41 457.27,-132.01 446.78,-130.54 448.16,-137.41"/>
</g>
<!-- requests -->
<g id="node4" class="node">
<title>requests</title><style>.edge>path:hover{stroke-width:8}</style>
<ellipse fill="#3370cc" stroke="#ffffff" cx="32.17" cy="-562.13" rx="32.17" ry="18"/>
<text xml:space="preserve" text-anchor="middle" x="32.17" y="-558.63" font-family="Helvetica,sans-Serif" font-size="10.00" fill="#e0e0e0">requests</text>
</g>
<!-- src_mcp_client_mcp_client -->
<g id="node10" class="node">
<title>src_mcp_client_mcp_client</title><style>.edge>path:hover{stroke-width:8}</style>
<ellipse fill="#a640c0" stroke="#ffffff" cx="635.76" cy="-553.13" rx="46.85" ry="31.11"/>
<text xml:space="preserve" text-anchor="middle" x="635.76" y="-561.63" font-family="Helvetica,sans-Serif" font-size="10.00" fill="#e0e0e0">src.</text>
<text xml:space="preserve" text-anchor="middle" x="635.76" y="-549.63" font-family="Helvetica,sans-Serif" font-size="10.00" fill="#e0e0e0">mcp_client.</text>
<text xml:space="preserve" text-anchor="middle" x="635.76" y="-537.63" font-family="Helvetica,sans-Serif" font-size="10.00" fill="#e0e0e0">mcp_client</text>
</g>
<!-- requests&#45;&gt;src_mcp_client_mcp_client -->
<g id="edge8" class="edge">
<title>requests&#45;&gt;src_mcp_client_mcp_client</title><style>.edge>path:hover{stroke-width:8}</style>
<path fill="none" stroke="#ffffff" d="M281.76,-562.13C383.68,-536.42 507.42,-541.11 578.03,-547.01"/>
<polygon fill="#3370cc" stroke="#ffffff" points="577.54,-550.48 587.81,-547.87 578.16,-543.51 577.54,-550.48"/>
</g>
<!-- src_rag_api_llm -->
<g id="node14" class="node">
<title>src_rag_api_llm</title><style>.edge>path:hover{stroke-width:8}</style>
<ellipse fill="#a640c0" stroke="#ffffff" cx="366.2" cy="-494.13" rx="27" ry="39.6"/>
<text xml:space="preserve" text-anchor="middle" x="366.2" y="-508.63" font-family="Helvetica,sans-Serif" font-size="10.00" fill="#e0e0e0">src.</text>
<text xml:space="preserve" text-anchor="middle" x="366.2" y="-496.63" font-family="Helvetica,sans-Serif" font-size="10.00" fill="#e0e0e0">rag.</text>
<text xml:space="preserve" text-anchor="middle" x="366.2" y="-484.63" font-family="Helvetica,sans-Serif" font-size="10.00" fill="#e0e0e0">api.</text>
<text xml:space="preserve" text-anchor="middle" x="366.2" y="-472.63" font-family="Helvetica,sans-Serif" font-size="10.00" fill="#e0e0e0">llm</text>
</g>
<!-- requests&#45;&gt;src_rag_api_llm -->
<g id="edge9" class="edge">
<title>requests&#45;&gt;src_rag_api_llm</title><style>.edge>path:hover{stroke-width:8}</style>
<path fill="none" stroke="#ffffff" d="M281.76,-562.13C303.59,-557.92 323.15,-542.94 337.84,-528.1"/>
<polygon fill="#3370cc" stroke="#ffffff" points="340.16,-530.74 344.44,-521.05 335.05,-525.96 340.16,-530.74"/>
<path fill="none" stroke="#ffffff" d="M64.02,-565.84C111.21,-570.68 203.95,-576.93 280.76,-562.13"/>
</g>
<!-- src -->
<g id="node5" class="node">
<title>src</title><style>.edge>path:hover{stroke-width:8}</style>
<ellipse fill="#c022e7" stroke="#ffffff" cx="1005.64" cy="-421.13" rx="27" ry="18"/>
<text xml:space="preserve" text-anchor="middle" x="1005.64" y="-417.63" font-family="Helvetica,sans-Serif" font-size="10.00" fill="#e0e0e0">src</text>
</g>
<!-- src&#45;&gt;agent_runner_py -->
<g id="edge10" class="edge">
<title>src&#45;&gt;agent_runner_py</title><style>.edge>path:hover{stroke-width:8}</style>
<path fill="none" stroke="#ffffff" d="M1023.52,-407.51C1043.41,-391.52 1073.98,-367.16 1075.62,-367.13"/>
</g>
<!-- src_agent -->
<g id="node6" class="node">
<title>src_agent</title><style>.edge>path:hover{stroke-width:8}</style>
<ellipse fill="#a947c2" stroke="#ffffff" cx="1005.64" cy="-367.13" rx="33.98" ry="18"/>
<text xml:space="preserve" text-anchor="middle" x="1005.64" y="-363.63" font-family="Helvetica,sans-Serif" font-size="10.00" fill="#e0e0e0">src.agent</text>
</g>
<!-- src_agent&#45;&gt;agent_runner_py -->
<g id="edge11" class="edge">
<title>src_agent&#45;&gt;agent_runner_py</title><style>.edge>path:hover{stroke-width:8}</style>
<path fill="none" stroke="#ffffff" d="M1039.97,-367.38C1051.29,-367.4 1064.01,-367.35 1075.62,-367.13"/>
</g>
<!-- src_agent_loop -->
<g id="node7" class="node">
<title>src_agent_loop</title><style>.edge>path:hover{stroke-width:8}</style>
<ellipse fill="#6b3479" stroke="#ffffff" cx="889.06" cy="-321.13" rx="46.6" ry="18"/>
<text xml:space="preserve" text-anchor="middle" x="889.06" y="-317.63" font-family="Helvetica,sans-Serif" font-size="10.00" fill="#e0e0e0">src.agent.loop</text>
</g>
<!-- src_agent_loop&#45;&gt;agent_runner_py -->
<g id="edge12" class="edge">
<title>src_agent_loop&#45;&gt;agent_runner_py</title><style>.edge>path:hover{stroke-width:8}</style>
<path fill="none" stroke="#ffffff" d="M933.24,-314.86C955.14,-313.23 981.86,-313.67 1004.64,-321.13"/>
</g>
<!-- src_agent_prompts -->
<g id="node8" class="node">
<title>src_agent_prompts</title><style>.edge>path:hover{stroke-width:8}</style>
<ellipse fill="#a253b6" stroke="#ffffff" cx="770.22" cy="-321.13" rx="36.24" ry="31.11"/>
<text xml:space="preserve" text-anchor="middle" x="770.22" y="-329.63" font-family="Helvetica,sans-Serif" font-size="10.00" fill="#e0e0e0">src.</text>
<text xml:space="preserve" text-anchor="middle" x="770.22" y="-317.63" font-family="Helvetica,sans-Serif" font-size="10.00" fill="#e0e0e0">agent.</text>
<text xml:space="preserve" text-anchor="middle" x="770.22" y="-305.63" font-family="Helvetica,sans-Serif" font-size="10.00" fill="#e0e0e0">prompts</text>
</g>
<!-- src_agent_prompts&#45;&gt;src_agent_loop -->
<g id="edge13" class="edge">
<title>src_agent_prompts&#45;&gt;src_agent_loop</title><style>.edge>path:hover{stroke-width:8}</style>
<path fill="none" stroke="#ffffff" d="M806.91,-321.13C814.48,-321.13 822.66,-321.13 830.81,-321.13"/>
<polygon fill="#a253b6" stroke="#ffffff" points="830.72,-324.63 840.72,-321.13 830.72,-317.63 830.72,-324.63"/>
</g>
<!-- src_mcp_client -->
<g id="node9" class="node">
<title>src_mcp_client</title><style>.edge>path:hover{stroke-width:8}</style>
<ellipse fill="#a947c2" stroke="#ffffff" cx="635.76" cy="-448.13" rx="47.96" ry="18"/>
<text xml:space="preserve" text-anchor="middle" x="635.76" y="-444.63" font-family="Helvetica,sans-Serif" font-size="10.00" fill="#e0e0e0">src.mcp_client</text>
</g>
<!-- src_mcp_client&#45;&gt;agent_runner_py -->
<g id="edge14" class="edge">
<title>src_mcp_client&#45;&gt;agent_runner_py</title><style>.edge>path:hover{stroke-width:8}</style>
<path fill="none" stroke="#ffffff" d="M771.22,-494.13C825.03,-484.84 839.35,-480.79 888.06,-456.13"/>
<path fill="none" stroke="#ffffff" d="M666.68,-462.32C699.22,-477.08 749.25,-497.57 769.22,-494.13"/>
</g>
<!-- src_mcp_client&#45;&gt;src_agent_loop -->
<g id="edge15" class="edge">
<title>src_mcp_client&#45;&gt;src_agent_loop</title><style>.edge>path:hover{stroke-width:8}</style>
<path fill="none" stroke="#ffffff" d="M668.41,-434.66C677.97,-430.46 688.46,-425.72 697.98,-421.13 752,-395.04 813.19,-362.25 851.21,-341.48"/>
<polygon fill="#a947c2" stroke="#ffffff" points="852.88,-344.56 859.96,-336.69 849.51,-338.42 852.88,-344.56"/>
</g>
<!-- src_mcp_client_mcp_client&#45;&gt;agent_runner_py -->
<g id="edge16" class="edge">
<title>src_mcp_client_mcp_client&#45;&gt;agent_runner_py</title><style>.edge>path:hover{stroke-width:8}</style>
<path fill="none" stroke="#ffffff" d="M670.94,-532.21C696.83,-517.81 733.87,-500.22 769.22,-494.13"/>
</g>
<!-- src_mcp_client_mcp_client&#45;&gt;src_agent_loop -->
<g id="edge17" class="edge">
<title>src_mcp_client_mcp_client&#45;&gt;src_agent_loop</title><style>.edge>path:hover{stroke-width:8}</style>
<path fill="none" stroke="#ffffff" d="M664.59,-528.27C698.37,-498.01 756.97,-445.22 806.46,-399.13 825.51,-381.38 846.77,-361.05 862.8,-345.59"/>
<polygon fill="#a640c0" stroke="#ffffff" points="864.82,-348.51 869.59,-339.05 859.96,-343.47 864.82,-348.51"/>
</g>
<!-- src_rag -->
<g id="node11" class="node">
<title>src_rag</title><style>.edge>path:hover{stroke-width:8}</style>
<ellipse fill="#c022e7" stroke="#ffffff" cx="635.76" cy="-205.13" rx="27.66" ry="18"/>
<text xml:space="preserve" text-anchor="middle" x="635.76" y="-201.63" font-family="Helvetica,sans-Serif" font-size="10.00" fill="#e0e0e0">src.rag</text>
</g>
<!-- src_rag&#45;&gt;agent_runner_py -->
<g id="edge18" class="edge">
<title>src_rag&#45;&gt;agent_runner_py</title><style>.edge>path:hover{stroke-width:8}</style>
<path fill="none" stroke="#ffffff" d="M771.22,-186.13C823.19,-194.34 843.18,-139.68 888.06,-167.13"/>
<path fill="none" stroke="#ffffff" d="M661.2,-197.22C687.81,-189.65 731.59,-180.17 769.22,-186.13"/>
</g>
<!-- src_rag&#45;&gt;src_agent_loop -->
<g id="edge19" class="edge">
<title>src_rag&#45;&gt;src_agent_loop</title><style>.edge>path:hover{stroke-width:8}</style>
<path fill="none" stroke="#ffffff" d="M771.22,-186.13C825.42,-194.7 860.53,-255.97 877.04,-292.96"/>
<polygon fill="#c022e7" stroke="#ffffff" points="873.64,-293.91 880.79,-301.73 880.08,-291.16 873.64,-293.91"/>
</g>
<!-- src_rag_agentic_retriever&#45;&gt;agent_runner_py -->
<g id="edge20" class="edge">
<title>src_rag_agentic_retriever&#45;&gt;agent_runner_py</title><style>.edge>path:hover{stroke-width:8}</style>
<path fill="none" stroke="#ffffff" d="M697.66,-95.24C721.09,-95.73 747.42,-99.33 769.22,-110.13"/>
<path fill="none" stroke="#ffffff" d="M771.22,-110.13C823,-135.76 838.77,-136.98 888.06,-167.13"/>
</g>
<!-- src_rag_agentic_retriever&#45;&gt;src_agent_loop -->
<g id="edge21" class="edge">
<title>src_rag_agentic_retriever&#45;&gt;src_agent_loop</title><style>.edge>path:hover{stroke-width:8}</style>
<path fill="none" stroke="#ffffff" d="M771.22,-110.13C841.77,-145.06 871.71,-242.48 882.64,-291.77"/>
<polygon fill="#9238a8" stroke="#ffffff" points="879.19,-292.36 884.66,-301.43 886.04,-290.93 879.19,-292.36"/>
</g>
<!-- src_rag_api -->
<g id="node13" class="node">
<title>src_rag_api</title><style>.edge>path:hover{stroke-width:8}</style>
<ellipse fill="#a947c2" stroke="#ffffff" cx="494.08" cy="-381.13" rx="37.13" ry="18"/>
<text xml:space="preserve" text-anchor="middle" x="494.08" y="-377.63" font-family="Helvetica,sans-Serif" font-size="10.00" fill="#e0e0e0">src.rag.api</text>
</g>
<!-- src_rag_api&#45;&gt;agent_runner_py -->
<g id="edge22" class="edge">
<title>src_rag_api&#45;&gt;agent_runner_py</title><style>.edge>path:hover{stroke-width:8}</style>
<path fill="none" stroke="#ffffff" d="M495.85,-362.84C498.67,-321.72 511.86,-222.12 573.53,-178.13 630.46,-137.51 828.4,-130.64 888.06,-167.13"/>
</g>
<!-- src_rag_rewriter -->
<g id="node19" class="node">
<title>src_rag_rewriter</title><style>.edge>path:hover{stroke-width:8}</style>
<ellipse fill="#9238a8" stroke="#ffffff" cx="635.76" cy="-381.13" rx="34.12" ry="31.11"/>
<text xml:space="preserve" text-anchor="middle" x="635.76" y="-389.63" font-family="Helvetica,sans-Serif" font-size="10.00" fill="#e0e0e0">src.</text>
<text xml:space="preserve" text-anchor="middle" x="635.76" y="-377.63" font-family="Helvetica,sans-Serif" font-size="10.00" fill="#e0e0e0">rag.</text>
<text xml:space="preserve" text-anchor="middle" x="635.76" y="-365.63" font-family="Helvetica,sans-Serif" font-size="10.00" fill="#e0e0e0">rewriter</text>
</g>
<!-- src_rag_api&#45;&gt;src_rag_rewriter -->
<g id="edge23" class="edge">
<title>src_rag_api&#45;&gt;src_rag_rewriter</title><style>.edge>path:hover{stroke-width:8}</style>
<path fill="none" stroke="#ffffff" d="M531.42,-381.13C549.36,-381.13 571.16,-381.13 590.11,-381.13"/>
<polygon fill="#a947c2" stroke="#ffffff" points="589.96,-384.63 599.96,-381.13 589.96,-377.63 589.96,-384.63"/>
</g>
<!-- src_rag_api_llm&#45;&gt;agent_runner_py -->
<g id="edge24" class="edge">
<title>src_rag_api_llm&#45;&gt;agent_runner_py</title><style>.edge>path:hover{stroke-width:8}</style>
<path fill="none" stroke="#ffffff" d="M495.08,-494.13C614.74,-471.15 649.16,-514.84 769.22,-494.13"/>
</g>
<!-- src_rag_api_llm&#45;&gt;src_rag_rewriter -->
<g id="edge25" class="edge">
<title>src_rag_api_llm&#45;&gt;src_rag_rewriter</title><style>.edge>path:hover{stroke-width:8}</style>
<path fill="none" stroke="#ffffff" d="M393.51,-496.99C419.17,-499.11 459.17,-500.64 493.08,-494.13"/>
<path fill="none" stroke="#ffffff" d="M495.08,-494.13C541.86,-485.14 536.03,-450.48 573.53,-421.13 580.92,-415.34 589.15,-409.56 597.12,-404.26"/>
<polygon fill="#a640c0" stroke="#ffffff" points="598.89,-407.29 605.36,-398.9 595.07,-401.42 598.89,-407.29"/>
</g>
<!-- src_rag_embeddings&#45;&gt;src_rag_index -->
<g id="edge26" class="edge">
<title>src_rag_embeddings&#45;&gt;src_rag_index</title><style>.edge>path:hover{stroke-width:8}</style>
<path fill="none" stroke="#ffffff" d="M408.77,-48.94C422.1,-44.06 436.89,-38.66 450.31,-33.75"/>
<polygon fill="#a640c0" stroke="#ffffff" points="451.12,-37.19 459.31,-30.47 448.71,-30.61 451.12,-37.19"/>
</g>
<!-- src_rag_embeddings&#45;&gt;src_rag_retriever -->
<g id="edge27" class="edge">
<title>src_rag_embeddings&#45;&gt;src_rag_retriever</title><style>.edge>path:hover{stroke-width:8}</style>
<path fill="none" stroke="#ffffff" d="M406,-82.31C420.41,-89.07 436.82,-96.76 451.48,-103.63"/>
<polygon fill="#a640c0" stroke="#ffffff" points="449.88,-106.74 460.42,-107.82 452.85,-100.4 449.88,-106.74"/>
</g>
<!-- src_rag_evaluator -->
<g id="node16" class="node">
<title>src_rag_evaluator</title><style>.edge>path:hover{stroke-width:8}</style>
<ellipse fill="#a947c2" stroke="#ffffff" cx="635.76" cy="-272.13" rx="39.42" ry="31.11"/>
<text xml:space="preserve" text-anchor="middle" x="635.76" y="-280.63" font-family="Helvetica,sans-Serif" font-size="10.00" fill="#e0e0e0">src.</text>
<text xml:space="preserve" text-anchor="middle" x="635.76" y="-268.63" font-family="Helvetica,sans-Serif" font-size="10.00" fill="#e0e0e0">rag.</text>
<text xml:space="preserve" text-anchor="middle" x="635.76" y="-256.63" font-family="Helvetica,sans-Serif" font-size="10.00" fill="#e0e0e0">evaluator</text>
</g>
<!-- src_rag_evaluator&#45;&gt;agent_runner_py -->
<g id="edge28" class="edge">
<title>src_rag_evaluator&#45;&gt;agent_runner_py</title><style>.edge>path:hover{stroke-width:8}</style>
<path fill="none" stroke="#ffffff" d="M771.22,-224.13C828.78,-219.04 838.77,-136.98 888.06,-167.13"/>
<path fill="none" stroke="#ffffff" d="M669.14,-255.02C695.3,-242.54 733.53,-227.28 769.22,-224.13"/>
</g>
<!-- src_rag_evaluator&#45;&gt;src_agent_loop -->
<g id="edge29" class="edge">
<title>src_rag_evaluator&#45;&gt;src_agent_loop</title><style>.edge>path:hover{stroke-width:8}</style>
<path fill="none" stroke="#ffffff" d="M771.22,-224.13C815.58,-220.21 852.27,-263.69 872.1,-293.72"/>
<polygon fill="#a947c2" stroke="#ffffff" points="869.05,-295.45 877.35,-302.03 874.96,-291.71 869.05,-295.45"/>
</g>
<!-- src_rag_index&#45;&gt;agent_runner_py -->
<g id="edge30" class="edge">
<title>src_rag_index&#45;&gt;agent_runner_py</title><style>.edge>path:hover{stroke-width:8}</style>
<path fill="none" stroke="#ffffff" d="M1006.64,-321.13C1022.72,-326.39 1025.5,-330.81 1039.62,-340.13 1056.31,-351.14 1055.62,-367.5 1075.62,-367.13"/>
<path fill="none" stroke="#ffffff" d="M537.3,-21.45C599.79,-27.91 718.96,-46.23 806.46,-96.13 848.22,-119.94 847.12,-141.92 888.06,-167.13"/>
<path fill="none" stroke="#ffffff" d="M890.06,-167.13C963.38,-210.74 923.56,-294.59 1004.64,-321.13"/>
<path fill="none" stroke="#ffffff" d="M1076.62,-367.13C1084.62,-366.97 1093.03,-366.88 1101.35,-366.84"/>
<polygon fill="#854096" stroke="#ffffff" points="1101.08,-370.34 1111.07,-366.8 1101.06,-363.34 1101.08,-370.34"/>
</g>
<!-- src_rag_retriever&#45;&gt;src_rag_agentic_retriever -->
<g id="edge31" class="edge">
<title>src_rag_retriever&#45;&gt;src_rag_agentic_retriever</title><style>.edge>path:hover{stroke-width:8}</style>
<path fill="none" stroke="#ffffff" d="M529.97,-117.38C540.67,-115.62 552.85,-113.61 565.02,-111.61"/>
<polygon fill="#9246a4" stroke="#ffffff" points="565.37,-115.1 574.67,-110.02 564.23,-108.19 565.37,-115.1"/>
</g>
<!-- src_rag_rewriter&#45;&gt;agent_runner_py -->
<g id="edge32" class="edge">
<title>src_rag_rewriter&#45;&gt;agent_runner_py</title><style>.edge>path:hover{stroke-width:8}</style>
<path fill="none" stroke="#ffffff" d="M890.06,-456.13C961.62,-423.37 929.85,-296.65 1004.64,-321.13"/>
<path fill="none" stroke="#ffffff" d="M666.33,-395.22C723.65,-421.69 847.8,-474.55 888.06,-456.13"/>
</g>
<!-- src_rag_rewriter&#45;&gt;src_agent_loop -->
<g id="edge33" class="edge">
<title>src_rag_rewriter&#45;&gt;src_agent_loop</title><style>.edge>path:hover{stroke-width:8}</style>
<path fill="none" stroke="#ffffff" d="M658.19,-357.2C683.8,-328.93 724.39,-285.18 733.98,-281.13 773.84,-264.29 822.57,-283 854.42,-300.08"/>
<polygon fill="#9238a8" stroke="#ffffff" points="852.38,-302.95 862.81,-304.79 855.8,-296.85 852.38,-302.95"/>
</g>
</g>
</svg>

