<?xml version="1.0" encoding="UTF-8" standalone="no"?>
<!DOCTYPE svg PUBLIC "-//W3C//DTD SVG 1.1//EN"
 "http://www.w3.org/Graphics/SVG/1.1/DTD/svg11.dtd">
<!-- Generated by graphviz version 15.0.0 (20260523.1842)
 -->
<!-- Title: G Pages: 1 -->
<svg style="background-color:#141414" width="1071pt" height="1232pt"
 viewBox="0.00 0.00 1071.00 1232.00" xmlns="http://www.w3.org/2000/svg" xmlns:xlink="http://www.w3.org/1999/xlink">
<g id="graph0" class="graph" transform="scale(1 1) rotate(0) translate(4 1227.93)">
<title>G</title><style>.edge>path:hover{stroke-width:8}</style>
<polygon fill="#141414" stroke="none" points="-4,4 -4,-1227.93 1066.72,-1227.93 1066.72,4 -4,4"/>
<!-- flask -->
<g id="node1" class="node">
<title>flask</title><style>.edge>path:hover{stroke-width:8}</style>
<ellipse fill="#f90606" stroke="#ffffff" cx="342.55" cy="-1095.23" rx="27" ry="18"/>
<text xml:space="preserve" text-anchor="middle" x="342.55" y="-1091.73" font-family="Helvetica,sans-Serif" font-size="10.00" fill="#e0e0e0">flask</text>
</g>
<!-- src_app -->
<g id="node7" class="node">
<title>src_app</title><style>.edge>path:hover{stroke-width:8}</style>
<ellipse fill="#1e1eae" stroke="#ffffff" cx="542.81" cy="-563.23" rx="29.01" ry="18"/>
<text xml:space="preserve" text-anchor="middle" x="542.81" y="-559.73" font-family="Helvetica,sans-Serif" font-size="10.00" fill="#e0e0e0">src.app</text>
</g>
<!-- flask&#45;&gt;src_app -->
<g id="edge1" class="edge">
<title>flask&#45;&gt;src_app</title><style>.edge>path:hover{stroke-width:8}</style>
<path fill="none" stroke="#ffffff" d="M451.8,-951.23C495.74,-894.17 527.77,-673.07 538.18,-592.67"/>
<polygon fill="#f90606" stroke="#ffffff" points="541.62,-593.31 539.42,-582.94 534.68,-592.42 541.62,-593.31"/>
<path fill="none" stroke="#ffffff" d="M364.02,-1083.88C372.27,-1078.49 381.35,-1071.43 387.8,-1063.23 413.92,-1030.02 399.7,-1009.94 423.8,-975.23 432.76,-962.31 440.2,-963.69 449.8,-951.23"/>
</g>
<!-- tests_api_test_api -->
<g id="node14" class="node">
<title>tests_api_test_api</title><style>.edge>path:hover{stroke-width:8}</style>
<ellipse fill="#ac49ac" stroke="#ffffff" cx="679.6" cy="-1081.23" rx="35.71" ry="31.11"/>
<text xml:space="preserve" text-anchor="middle" x="679.6" y="-1089.73" font-family="Helvetica,sans-Serif" font-size="10.00" fill="#e0e0e0">tests.</text>
<text xml:space="preserve" text-anchor="middle" x="679.6" y="-1077.73" font-family="Helvetica,sans-Serif" font-size="10.00" fill="#e0e0e0">api.</text>
<text xml:space="preserve" text-anchor="middle" x="679.6" y="-1065.73" font-family="Helvetica,sans-Serif" font-size="10.00" fill="#e0e0e0">test_api</text>
</g>
<!-- flask&#45;&gt;tests_api_test_api -->
<g id="edge2" class="edge">
<title>flask&#45;&gt;tests_api_test_api</title><style>.edge>path:hover{stroke-width:8}</style>
<path fill="none" stroke="#ffffff" d="M543.81,-1081.23C573.07,-1078.11 606.1,-1078.06 632.15,-1078.81"/>
<polygon fill="#f90606" stroke="#ffffff" points="631.95,-1082.3 642.07,-1079.15 632.19,-1075.31 631.95,-1082.3"/>
</g>
<!-- tests_conftest -->
<g id="node15" class="node">
<title>tests_conftest</title><style>.edge>path:hover{stroke-width:8}</style>
<ellipse fill="#813781" stroke="#ffffff" cx="838.99" cy="-666.23" rx="45.7" ry="18"/>
<text xml:space="preserve" text-anchor="middle" x="838.99" y="-662.73" font-family="Helvetica,sans-Serif" font-size="10.00" fill="#e0e0e0">tests.conftest</text>
</g>
<!-- flask&#45;&gt;tests_conftest -->
<g id="edge3" class="edge">
<title>flask&#45;&gt;tests_conftest</title><style>.edge>path:hover{stroke-width:8}</style>
<path fill="none" stroke="#ffffff" d="M451.8,-951.23C476.2,-919.53 502.68,-959.56 541.81,-951.23"/>
</g>
<!-- tests_eval_test_rag_accuracy -->
<g id="node17" class="node">
<title>tests_eval_test_rag_accuracy</title><style>.edge>path:hover{stroke-width:8}</style>
<ellipse fill="#813781" stroke="#ffffff" cx="994.66" cy="-620.23" rx="68.06" ry="31.11"/>
<text xml:space="preserve" text-anchor="middle" x="994.66" y="-628.73" font-family="Helvetica,sans-Serif" font-size="10.00" fill="#e0e0e0">tests.</text>
<text xml:space="preserve" text-anchor="middle" x="994.66" y="-616.73" font-family="Helvetica,sans-Serif" font-size="10.00" fill="#e0e0e0">eval.</text>
<text xml:space="preserve" text-anchor="middle" x="994.66" y="-604.73" font-family="Helvetica,sans-Serif" font-size="10.00" fill="#e0e0e0">test_rag_accuracy</text>
</g>
<!-- flask&#45;&gt;tests_eval_test_rag_accuracy -->
<g id="edge4" class="edge">
<title>flask&#45;&gt;tests_eval_test_rag_accuracy</title><style>.edge>path:hover{stroke-width:8}</style>
<path fill="none" stroke="#ffffff" d="M839.99,-1136.23C920.43,-1082.14 971.4,-776.99 987.85,-663.1"/>
<polygon fill="#f90606" stroke="#ffffff" points="991.31,-663.63 989.25,-653.24 984.38,-662.65 991.31,-663.63"/>
<path fill="none" stroke="#ffffff" d="M543.81,-1081.23C577.17,-1077.67 575.58,-1050.48 607.83,-1041.23 669.15,-1023.65 693.01,-1015.46 751.37,-1041.23 803.64,-1064.31 790.57,-1168.11 837.99,-1136.23"/>
<path fill="none" stroke="#ffffff" d="M369.87,-1093.65C407.86,-1091.31 480.28,-1086.61 541.81,-1081.23"/>
</g>
<!-- tests_integration_test_rag_integration -->
<g id="node19" class="node">
<title>tests_integration_test_rag_integration</title><style>.edge>path:hover{stroke-width:8}</style>
<ellipse fill="#a446a4" stroke="#ffffff" cx="679.6" cy="-1161.23" rx="71.77" ry="31.11"/>
<text xml:space="preserve" text-anchor="middle" x="679.6" y="-1169.73" font-family="Helvetica,sans-Serif" font-size="10.00" fill="#e0e0e0">tests.</text>
<text xml:space="preserve" text-anchor="middle" x="679.6" y="-1157.73" font-family="Helvetica,sans-Serif" font-size="10.00" fill="#e0e0e0">integration.</text>
<text xml:space="preserve" text-anchor="middle" x="679.6" y="-1145.73" font-family="Helvetica,sans-Serif" font-size="10.00" fill="#e0e0e0">test_rag_integration</text>
</g>
<!-- flask&#45;&gt;tests_integration_test_rag_integration -->
<g id="edge5" class="edge">
<title>flask&#45;&gt;tests_integration_test_rag_integration</title><style>.edge>path:hover{stroke-width:8}</style>
<path fill="none" stroke="#ffffff" d="M363.45,-1107.16C393.53,-1125.13 447.34,-1157.11 449.8,-1157.23"/>
<path fill="none" stroke="#ffffff" d="M451.8,-1157.23C499.64,-1159.58 553.22,-1160.6 596.28,-1161.02"/>
<polygon fill="#f90606" stroke="#ffffff" points="596.02,-1164.52 606.05,-1161.11 596.08,-1157.52 596.02,-1164.52"/>
</g>
<!-- tests_llm_test_ask_endpoint -->
<g id="node20" class="node">
<title>tests_llm_test_ask_endpoint</title><style>.edge>path:hover{stroke-width:8}</style>
<ellipse fill="#964096" stroke="#ffffff" cx="994.66" cy="-540.23" rx="67.53" ry="31.11"/>
<text xml:space="preserve" text-anchor="middle" x="994.66" y="-548.73" font-family="Helvetica,sans-Serif" font-size="10.00" fill="#e0e0e0">tests.</text>
<text xml:space="preserve" text-anchor="middle" x="994.66" y="-536.73" font-family="Helvetica,sans-Serif" font-size="10.00" fill="#e0e0e0">llm.</text>
<text xml:space="preserve" text-anchor="middle" x="994.66" y="-524.73" font-family="Helvetica,sans-Serif" font-size="10.00" fill="#e0e0e0">test_ask_endpoint</text>
</g>
<!-- flask&#45;&gt;tests_llm_test_ask_endpoint -->
<g id="edge6" class="edge">
<title>flask&#45;&gt;tests_llm_test_ask_endpoint</title><style>.edge>path:hover{stroke-width:8}</style>
<path fill="none" stroke="#ffffff" d="M543.81,-989.23C643.27,-982.56 674.37,-967.54 751.37,-904.23 838.16,-832.88 842.15,-794.6 890.61,-693.23 913.34,-645.67 893.85,-621.52 926.61,-580.23 929.77,-576.24 933.45,-572.56 937.43,-569.18"/>
<polygon fill="#f90606" stroke="#ffffff" points="939.47,-572.03 945.32,-563.19 935.24,-566.45 939.47,-572.03"/>
<path fill="none" stroke="#ffffff" d="M451.8,-951.23C478.29,-916.82 498.47,-991.89 541.81,-989.23"/>
</g>
<!-- flask_testing -->
<g id="node2" class="node">
<title>flask_testing</title><style>.edge>path:hover{stroke-width:8}</style>
<ellipse fill="#e72222" stroke="#ffffff" cx="342.55" cy="-1149.23" rx="41.64" ry="18"/>
<text xml:space="preserve" text-anchor="middle" x="342.55" y="-1145.73" font-family="Helvetica,sans-Serif" font-size="10.00" fill="#e0e0e0">flask.testing</text>
</g>
<!-- flask_testing&#45;&gt;tests_api_test_api -->
<g id="edge7" class="edge">
<title>flask_testing&#45;&gt;tests_api_test_api</title><style>.edge>path:hover{stroke-width:8}</style>
<path fill="none" stroke="#ffffff" d="M380.68,-1141.69C442.53,-1129.14 566.43,-1104 633.3,-1090.42"/>
<polygon fill="#e72222" stroke="#ffffff" points="633.73,-1093.91 642.83,-1088.49 632.34,-1087.05 633.73,-1093.91"/>
</g>
<!-- flask_testing&#45;&gt;tests_conftest -->
<g id="edge8" class="edge">
<title>flask_testing&#45;&gt;tests_conftest</title><style>.edge>path:hover{stroke-width:8}</style>
<path fill="none" stroke="#ffffff" d="M451.8,-989.23C487.88,-965.08 499.34,-960.27 541.81,-951.23"/>
<path fill="none" stroke="#ffffff" d="M371.7,-1136.24C377.67,-1132.42 383.47,-1127.76 387.8,-1122.23 420.56,-1080.4 392.8,-1051.39 423.8,-1008.23 432.14,-996.61 437.9,-997.19 449.8,-989.23"/>
</g>
<!-- flask_testing&#45;&gt;tests_eval_test_rag_accuracy -->
<g id="edge9" class="edge">
<title>flask_testing&#45;&gt;tests_eval_test_rag_accuracy</title><style>.edge>path:hover{stroke-width:8}</style>
<path fill="none" stroke="#ffffff" d="M451.8,-1195.23C583.06,-1217.7 625.04,-1243.36 751.37,-1201.23 797.03,-1186 798.5,-1163.76 837.99,-1136.23"/>
<path fill="none" stroke="#ffffff" d="M368.33,-1163.52C389.26,-1174.7 420.44,-1189.31 449.8,-1195.23"/>
</g>
<!-- flask_testing&#45;&gt;tests_integration_test_rag_integration -->
<g id="edge10" class="edge">
<title>flask_testing&#45;&gt;tests_integration_test_rag_integration</title><style>.edge>path:hover{stroke-width:8}</style>
<path fill="none" stroke="#ffffff" d="M383.88,-1152.76C403.72,-1154.38 427.99,-1156.16 449.8,-1157.23"/>
</g>
<!-- flask_testing&#45;&gt;tests_llm_test_ask_endpoint -->
<g id="edge11" class="edge">
<title>flask_testing&#45;&gt;tests_llm_test_ask_endpoint</title><style>.edge>path:hover{stroke-width:8}</style>
<path fill="none" stroke="#ffffff" d="M451.8,-989.23C485.04,-966.98 501.88,-991.68 541.81,-989.23"/>
</g>
<!-- numpy -->
<g id="node3" class="node">
<title>numpy</title><style>.edge>path:hover{stroke-width:8}</style>
<ellipse fill="#f9f906" stroke="#ffffff" cx="27.21" cy="-281.23" rx="27.21" ry="18"/>
<text xml:space="preserve" text-anchor="middle" x="27.21" y="-277.73" font-family="Helvetica,sans-Serif" font-size="10.00" fill="#e0e0e0">numpy</text>
</g>
<!-- src_rag_embeddings -->
<g id="node10" class="node">
<title>src_rag_embeddings</title><style>.edge>path:hover{stroke-width:8}</style>
<ellipse fill="#1818dd" stroke="#ffffff" cx="212.86" cy="-219.23" rx="48.44" ry="31.11"/>
<text xml:space="preserve" text-anchor="middle" x="212.86" y="-227.73" font-family="Helvetica,sans-Serif" font-size="10.00" fill="#e0e0e0">src.</text>
<text xml:space="preserve" text-anchor="middle" x="212.86" y="-215.73" font-family="Helvetica,sans-Serif" font-size="10.00" fill="#e0e0e0">rag.</text>
<text xml:space="preserve" text-anchor="middle" x="212.86" y="-203.73" font-family="Helvetica,sans-Serif" font-size="10.00" fill="#e0e0e0">embeddings</text>
</g>
<!-- numpy&#45;&gt;src_rag_embeddings -->
<g id="edge12" class="edge">
<title>numpy&#45;&gt;src_rag_embeddings</title><style>.edge>path:hover{stroke-width:8}</style>
<path fill="none" stroke="#ffffff" d="M128.42,-160.23C139.18,-158.46 158.83,-171.99 176.37,-186.53"/>
<polygon fill="#f9f906" stroke="#ffffff" points="173.73,-188.88 183.6,-192.71 178.27,-183.55 173.73,-188.88"/>
</g>
<!-- src_rag_index -->
<g id="node11" class="node">
<title>src_rag_index</title><style>.edge>path:hover{stroke-width:8}</style>
<ellipse fill="#2d2db4" stroke="#ffffff" cx="342.55" cy="-125.23" rx="43.45" ry="18"/>
<text xml:space="preserve" text-anchor="middle" x="342.55" y="-121.73" font-family="Helvetica,sans-Serif" font-size="10.00" fill="#e0e0e0">src.rag.index</text>
</g>
<!-- numpy&#45;&gt;src_rag_index -->
<g id="edge13" class="edge">
<title>numpy&#45;&gt;src_rag_index</title><style>.edge>path:hover{stroke-width:8}</style>
<path fill="none" stroke="#ffffff" d="M128.42,-160.23C165.01,-154.22 174.78,-160.45 211.86,-160.23"/>
<path fill="none" stroke="#ffffff" d="M213.86,-160.23C243.66,-160.06 276.02,-151.08 300.71,-142.27"/>
<polygon fill="#f9f906" stroke="#ffffff" points="301.91,-145.56 310.06,-138.79 299.47,-139 301.91,-145.56"/>
</g>
<!-- src_rag_retriever -->
<g id="node13" class="node">
<title>src_rag_retriever</title><style>.edge>path:hover{stroke-width:8}</style>
<ellipse fill="#3d3db8" stroke="#ffffff" cx="342.55" cy="-192.23" rx="36.24" ry="31.11"/>
<text xml:space="preserve" text-anchor="middle" x="342.55" y="-200.73" font-family="Helvetica,sans-Serif" font-size="10.00" fill="#e0e0e0">src.</text>
<text xml:space="preserve" text-anchor="middle" x="342.55" y="-188.73" font-family="Helvetica,sans-Serif" font-size="10.00" fill="#e0e0e0">rag.</text>
<text xml:space="preserve" text-anchor="middle" x="342.55" y="-176.73" font-family="Helvetica,sans-Serif" font-size="10.00" fill="#e0e0e0">retriever</text>
</g>
<!-- numpy&#45;&gt;src_rag_retriever -->
<g id="edge14" class="edge">
<title>numpy&#45;&gt;src_rag_retriever</title><style>.edge>path:hover{stroke-width:8}</style>
<path fill="none" stroke="#ffffff" d="M213.86,-160.23C242.59,-160.06 273.91,-167.78 298.33,-175.68"/>
<polygon fill="#f9f906" stroke="#ffffff" points="297.01,-178.93 307.6,-178.81 299.25,-172.29 297.01,-178.93"/>
</g>
<!-- numpy&#45;&gt;tests_conftest -->
<g id="edge15" class="edge">
<title>numpy&#45;&gt;tests_conftest</title><style>.edge>path:hover{stroke-width:8}</style>
<path fill="none" stroke="#ffffff" d="M44.75,-295.49C48.38,-299.31 51.89,-303.66 54.42,-308.23 225.58,-617.18 -6.71,-990.37 341.55,-1049.23"/>
</g>
<!-- tests_integration_test_persistence -->
<g id="node18" class="node">
<title>tests_integration_test_persistence</title><style>.edge>path:hover{stroke-width:8}</style>
<ellipse fill="#964096" stroke="#ffffff" cx="994.66" cy="-460.23" rx="62.23" ry="31.11"/>
<text xml:space="preserve" text-anchor="middle" x="994.66" y="-468.73" font-family="Helvetica,sans-Serif" font-size="10.00" fill="#e0e0e0">tests.</text>
<text xml:space="preserve" text-anchor="middle" x="994.66" y="-456.73" font-family="Helvetica,sans-Serif" font-size="10.00" fill="#e0e0e0">integration.</text>
<text xml:space="preserve" text-anchor="middle" x="994.66" y="-444.73" font-family="Helvetica,sans-Serif" font-size="10.00" fill="#e0e0e0">test_persistence</text>
</g>
<!-- numpy&#45;&gt;tests_integration_test_persistence -->
<g id="edge16" class="edge">
<title>numpy&#45;&gt;tests_integration_test_persistence</title><style>.edge>path:hover{stroke-width:8}</style>
<path fill="none" stroke="#ffffff" d="M839.99,-468.23C867.2,-476.38 898.31,-476.38 925.39,-473.59"/>
<polygon fill="#f9f906" stroke="#ffffff" points="925.71,-477.08 935.23,-472.42 924.88,-470.13 925.71,-477.08"/>
<path fill="none" stroke="#ffffff" d="M128.42,-160.23C155.8,-155.74 144.08,-128.1 164.42,-109.23 231.69,-46.85 251.56,14.65 341.55,-3.23"/>
<path fill="none" stroke="#ffffff" d="M543.81,-3.23C644.88,-9.59 687.11,-18.97 751.37,-97.23 858.82,-228.09 675.78,-419.66 837.99,-468.23"/>
<path fill="none" stroke="#ffffff" d="M33.87,-263.33C45.46,-230.63 75.28,-164.22 127.42,-160.23"/>
<path fill="none" stroke="#ffffff" d="M343.55,-3.23C390.75,-4.62 402.82,1.57 449.8,-3.23"/>
<path fill="none" stroke="#ffffff" d="M451.8,-3.23C491.6,-7.3 502.02,0.91 541.81,-3.23"/>
</g>
<!-- tests_unit_test_embeddings -->
<g id="node22" class="node">
<title>tests_unit_test_embeddings</title><style>.edge>path:hover{stroke-width:8}</style>
<ellipse fill="#964096" stroke="#ffffff" cx="679.6" cy="-348.23" rx="63.82" ry="31.11"/>
<text xml:space="preserve" text-anchor="middle" x="679.6" y="-356.73" font-family="Helvetica,sans-Serif" font-size="10.00" fill="#e0e0e0">tests.</text>
<text xml:space="preserve" text-anchor="middle" x="679.6" y="-344.73" font-family="Helvetica,sans-Serif" font-size="10.00" fill="#e0e0e0">unit.</text>
<text xml:space="preserve" text-anchor="middle" x="679.6" y="-332.73" font-family="Helvetica,sans-Serif" font-size="10.00" fill="#e0e0e0">test_embeddings</text>
</g>
<!-- numpy&#45;&gt;tests_unit_test_embeddings -->
<g id="edge17" class="edge">
<title>numpy&#45;&gt;tests_unit_test_embeddings</title><style>.edge>path:hover{stroke-width:8}</style>
<path fill="none" stroke="#ffffff" d="M54.27,-284.48C74.26,-286.7 102.54,-289.23 127.42,-289.23 127.42,-289.23 127.42,-289.23 451.8,-289.23 510.24,-289.23 574.51,-307.81 619.67,-324.12"/>
<polygon fill="#f9f906" stroke="#ffffff" points="618.42,-327.39 629.01,-327.57 620.84,-320.82 618.42,-327.39"/>
</g>
<!-- tests_unit_test_faiss -->
<g id="node23" class="node">
<title>tests_unit_test_faiss</title><style>.edge>path:hover{stroke-width:8}</style>
<ellipse fill="#8f3d8f" stroke="#ffffff" cx="679.6" cy="-137.23" rx="41.54" ry="31.11"/>
<text xml:space="preserve" text-anchor="middle" x="679.6" y="-145.73" font-family="Helvetica,sans-Serif" font-size="10.00" fill="#e0e0e0">tests.</text>
<text xml:space="preserve" text-anchor="middle" x="679.6" y="-133.73" font-family="Helvetica,sans-Serif" font-size="10.00" fill="#e0e0e0">unit.</text>
<text xml:space="preserve" text-anchor="middle" x="679.6" y="-121.73" font-family="Helvetica,sans-Serif" font-size="10.00" fill="#e0e0e0">test_faiss</text>
</g>
<!-- numpy&#45;&gt;tests_unit_test_faiss -->
<g id="edge18" class="edge">
<title>numpy&#45;&gt;tests_unit_test_faiss</title><style>.edge>path:hover{stroke-width:8}</style>
<path fill="none" stroke="#ffffff" d="M451.8,-3.23C495,-7.64 500.4,-28.15 541.81,-41.23"/>
<path fill="none" stroke="#ffffff" d="M543.81,-41.23C582.77,-53.54 620.05,-81.8 645.48,-104.5"/>
<polygon fill="#f9f906" stroke="#ffffff" points="643.11,-107.07 652.85,-111.23 647.83,-101.9 643.11,-107.07"/>
</g>
<!-- tests_unit_test_index_store -->
<g id="node24" class="node">
<title>tests_unit_test_index_store</title><style>.edge>path:hover{stroke-width:8}</style>
<ellipse fill="#964096" stroke="#ffffff" cx="679.6" cy="-234.23" rx="62.23" ry="31.11"/>
<text xml:space="preserve" text-anchor="middle" x="679.6" y="-242.73" font-family="Helvetica,sans-Serif" font-size="10.00" fill="#e0e0e0">tests.</text>
<text xml:space="preserve" text-anchor="middle" x="679.6" y="-230.73" font-family="Helvetica,sans-Serif" font-size="10.00" fill="#e0e0e0">unit.</text>
<text xml:space="preserve" text-anchor="middle" x="679.6" y="-218.73" font-family="Helvetica,sans-Serif" font-size="10.00" fill="#e0e0e0">test_index_store</text>
</g>
<!-- numpy&#45;&gt;tests_unit_test_index_store -->
<g id="edge19" class="edge">
<title>numpy&#45;&gt;tests_unit_test_index_store</title><style>.edge>path:hover{stroke-width:8}</style>
<path fill="none" stroke="#ffffff" d="M451.8,-117.23C522.18,-126.51 593.32,-170.01 636.68,-201.26"/>
<polygon fill="#f9f906" stroke="#ffffff" points="634.41,-203.94 644.55,-207.03 638.55,-198.29 634.41,-203.94"/>
<path fill="none" stroke="#ffffff" d="M343.55,-3.23C411.48,-16.73 385.55,-91.36 449.8,-117.23"/>
</g>
<!-- openai -->
<g id="node4" class="node">
<title>openai</title><style>.edge>path:hover{stroke-width:8}</style>
<ellipse fill="#40c040" stroke="#ffffff" cx="450.8" cy="-1035.23" rx="27" ry="18"/>
<text xml:space="preserve" text-anchor="middle" x="450.8" y="-1031.73" font-family="Helvetica,sans-Serif" font-size="10.00" fill="#e0e0e0">openai</text>
</g>
<!-- tests_eval_ollama_judge -->
<g id="node16" class="node">
<title>tests_eval_ollama_judge</title><style>.edge>path:hover{stroke-width:8}</style>
<ellipse fill="#c040bf" stroke="#ffffff" cx="838.99" cy="-994.23" rx="51.62" ry="31.11"/>
<text xml:space="preserve" text-anchor="middle" x="838.99" y="-1002.73" font-family="Helvetica,sans-Serif" font-size="10.00" fill="#e0e0e0">tests.</text>
<text xml:space="preserve" text-anchor="middle" x="838.99" y="-990.73" font-family="Helvetica,sans-Serif" font-size="10.00" fill="#e0e0e0">eval.</text>
<text xml:space="preserve" text-anchor="middle" x="838.99" y="-978.73" font-family="Helvetica,sans-Serif" font-size="10.00" fill="#e0e0e0">ollama_judge</text>
</g>
<!-- openai&#45;&gt;tests_eval_ollama_judge -->
<g id="edge20" class="edge">
<title>openai&#45;&gt;tests_eval_ollama_judge</title><style>.edge>path:hover{stroke-width:8}</style>
<path fill="none" stroke="#ffffff" d="M477.07,-1029.97C507.83,-1023.77 561.4,-1013.64 607.83,-1008.23 664.46,-1001.63 729.32,-998.04 775.72,-996.15"/>
<polygon fill="#40c040" stroke="#ffffff" points="775.74,-999.66 785.59,-995.77 775.46,-992.66 775.74,-999.66"/>
</g>
<!-- pytest -->
<g id="node5" class="node">
<title>pytest</title><style>.edge>path:hover{stroke-width:8}</style>
<ellipse fill="#10f9f9" stroke="#ffffff" cx="27.21" cy="-335.23" rx="27" ry="18"/>
<text xml:space="preserve" text-anchor="middle" x="27.21" y="-331.73" font-family="Helvetica,sans-Serif" font-size="10.00" fill="#e0e0e0">pytest</text>
</g>
<!-- pytest&#45;&gt;src_rag_embeddings -->
<g id="edge21" class="edge">
<title>pytest&#45;&gt;src_rag_embeddings</title><style>.edge>path:hover{stroke-width:8}</style>
<path fill="none" stroke="#ffffff" d="M128.42,-219.23C136.3,-216.73 144.81,-215.34 153.28,-214.7"/>
<polygon fill="#10f9f9" stroke="#ffffff" points="153.38,-218.2 163.23,-214.3 153.1,-211.2 153.38,-218.2"/>
</g>
<!-- pytest&#45;&gt;tests_conftest -->
<g id="edge22" class="edge">
<title>pytest&#45;&gt;tests_conftest</title><style>.edge>path:hover{stroke-width:8}</style>
<path fill="none" stroke="#ffffff" d="M213.86,-1049.23C270.53,-1052.14 285.59,-1039.77 341.55,-1049.23"/>
</g>
<!-- pytest&#45;&gt;tests_eval_test_rag_accuracy -->
<g id="edge23" class="edge">
<title>pytest&#45;&gt;tests_eval_test_rag_accuracy</title><style>.edge>path:hover{stroke-width:8}</style>
<path fill="none" stroke="#ffffff" d="M343.55,-1195.23C388.14,-1210.77 403.5,-1185.9 449.8,-1195.23"/>
</g>
<!-- pytest&#45;&gt;tests_integration_test_rag_integration -->
<g id="edge24" class="edge">
<title>pytest&#45;&gt;tests_integration_test_rag_integration</title><style>.edge>path:hover{stroke-width:8}</style>
<path fill="none" stroke="#ffffff" d="M213.86,-1049.23C281.31,-1052.69 245.53,-1132.85 297.29,-1176.23 313.7,-1189.98 321.33,-1188.19 341.55,-1195.23"/>
<path fill="none" stroke="#ffffff" d="M343.55,-1195.23C390.9,-1211.74 399.75,-1153.98 449.8,-1157.23"/>
</g>
<!-- pytest&#45;&gt;tests_llm_test_ask_endpoint -->
<g id="edge25" class="edge">
<title>pytest&#45;&gt;tests_llm_test_ask_endpoint</title><style>.edge>path:hover{stroke-width:8}</style>
<path fill="none" stroke="#ffffff" d="M28.87,-353.39C33.36,-463.9 63.9,-1041.64 211.86,-1049.23"/>
<path fill="none" stroke="#ffffff" d="M213.86,-1049.23C262.65,-1072 375.29,-951.6 423.8,-928.23 494.28,-894.27 700.46,-858.64 751.37,-799.23 798.8,-743.88 741.97,-696.26 787.37,-639.23 821.08,-596.88 877.35,-571.56 922.62,-557.15"/>
<polygon fill="#10f9f9" stroke="#ffffff" points="923.58,-560.51 932.12,-554.24 921.54,-553.82 923.58,-560.51"/>
</g>
<!-- pytest&#45;&gt;tests_unit_test_embeddings -->
<g id="edge26" class="edge">
<title>pytest&#45;&gt;tests_unit_test_embeddings</title><style>.edge>path:hover{stroke-width:8}</style>
<path fill="none" stroke="#ffffff" d="M343.55,-327.23C434.43,-311.74 540.94,-323.41 609.05,-334.59"/>
<polygon fill="#10f9f9" stroke="#ffffff" points="608.12,-337.99 618.56,-336.2 609.29,-331.08 608.12,-337.99"/>
</g>
<!-- pytest&#45;&gt;tests_unit_test_faiss -->
<g id="edge27" class="edge">
<title>pytest&#45;&gt;tests_unit_test_faiss</title><style>.edge>path:hover{stroke-width:8}</style>
<path fill="none" stroke="#ffffff" d="M128.42,-219.23C151.22,-211.99 146.02,-194.51 164.42,-179.23 217.64,-135.06 231.99,-121.01 297.29,-98.23 361.78,-75.73 386.22,-104.19 449.8,-79.23"/>
<path fill="none" stroke="#ffffff" d="M43.13,-320.31C46.88,-316.43 50.85,-312.23 54.42,-308.23 88.49,-270.07 77.32,-229.56 127.42,-219.23"/>
<path fill="none" stroke="#ffffff" d="M451.8,-79.23C491.07,-60.7 500.4,-28.15 541.81,-41.23"/>
</g>
<!-- pytest&#45;&gt;tests_unit_test_index_store -->
<g id="edge28" class="edge">
<title>pytest&#45;&gt;tests_unit_test_index_store</title><style>.edge>path:hover{stroke-width:8}</style>
<path fill="none" stroke="#ffffff" d="M343.55,-327.23C440.4,-309.28 549.9,-276.43 616.58,-254.97"/>
<polygon fill="#10f9f9" stroke="#ffffff" points="617.43,-258.37 625.87,-251.96 615.28,-251.71 617.43,-258.37"/>
<path fill="none" stroke="#ffffff" d="M54.66,-335.41C108.66,-335.57 235.45,-335.01 341.55,-327.23"/>
</g>
<!-- src -->
<g id="node6" class="node">
<title>src</title><style>.edge>path:hover{stroke-width:8}</style>
<ellipse fill="#1010f9" stroke="#ffffff" cx="342.55" cy="-479.23" rx="27" ry="18"/>
<text xml:space="preserve" text-anchor="middle" x="342.55" y="-475.73" font-family="Helvetica,sans-Serif" font-size="10.00" fill="#e0e0e0">src</text>
</g>
<!-- src&#45;&gt;tests_conftest -->
<g id="edge29" class="edge">
<title>src&#45;&gt;tests_conftest</title><style>.edge>path:hover{stroke-width:8}</style>
<path fill="none" stroke="#ffffff" d="M451.8,-479.23C507.57,-488.28 468.22,-556.83 513.8,-590.23 600.76,-653.96 646.98,-612.27 751.37,-639.23 764.83,-642.71 779.31,-647 792.5,-651.13"/>
<polygon fill="#1010f9" stroke="#ffffff" points="791.2,-654.38 801.79,-654.08 793.32,-647.71 791.2,-654.38"/>
</g>
<!-- src&#45;&gt;tests_eval_test_rag_accuracy -->
<g id="edge30" class="edge">
<title>src&#45;&gt;tests_eval_test_rag_accuracy</title><style>.edge>path:hover{stroke-width:8}</style>
<path fill="none" stroke="#ffffff" d="M362.69,-491.72C389.59,-509.65 439.56,-544.38 477.8,-579.23 495.47,-595.34 497.33,-601.88 513.8,-619.23 525.91,-632 525.17,-641.48 541.81,-647.23"/>
<path fill="none" stroke="#ffffff" d="M543.81,-647.23C570.97,-656.43 579.26,-641.72 607.83,-639.23 714.02,-629.99 837.07,-624.9 915.12,-622.37"/>
<polygon fill="#1010f9" stroke="#ffffff" points="914.9,-625.88 924.79,-622.06 914.68,-618.88 914.9,-625.88"/>
</g>
<!-- src&#45;&gt;tests_integration_test_persistence -->
<g id="edge31" class="edge">
<title>src&#45;&gt;tests_integration_test_persistence</title><style>.edge>path:hover{stroke-width:8}</style>
<path fill="none" stroke="#ffffff" d="M451.8,-479.23C491.33,-485.39 501.82,-478.06 541.81,-479.23"/>
<path fill="none" stroke="#ffffff" d="M680.6,-468.23C750.14,-460.69 770.98,-448.17 837.99,-468.23"/>
<path fill="none" stroke="#ffffff" d="M543.81,-479.23C603.89,-480.99 618.84,-474.71 678.6,-468.23"/>
</g>
<!-- src&#45;&gt;tests_llm_test_ask_endpoint -->
<g id="edge32" class="edge">
<title>src&#45;&gt;tests_llm_test_ask_endpoint</title><style>.edge>path:hover{stroke-width:8}</style>
<path fill="none" stroke="#ffffff" d="M543.81,-479.23C677.96,-483.15 832.69,-508.85 921.26,-525.61"/>
<polygon fill="#1010f9" stroke="#ffffff" points="920.55,-529.04 931.03,-527.48 921.87,-522.17 920.55,-529.04"/>
</g>
<!-- tests_unit_test_chunker -->
<g id="node21" class="node">
<title>tests_unit_test_chunker</title><style>.edge>path:hover{stroke-width:8}</style>
<ellipse fill="#a446a4" stroke="#ffffff" cx="679.6" cy="-679.23" rx="51.09" ry="31.11"/>
<text xml:space="preserve" text-anchor="middle" x="679.6" y="-687.73" font-family="Helvetica,sans-Serif" font-size="10.00" fill="#e0e0e0">tests.</text>
<text xml:space="preserve" text-anchor="middle" x="679.6" y="-675.73" font-family="Helvetica,sans-Serif" font-size="10.00" fill="#e0e0e0">unit.</text>
<text xml:space="preserve" text-anchor="middle" x="679.6" y="-663.73" font-family="Helvetica,sans-Serif" font-size="10.00" fill="#e0e0e0">test_chunker</text>
</g>
<!-- src&#45;&gt;tests_unit_test_chunker -->
<g id="edge33" class="edge">
<title>src&#45;&gt;tests_unit_test_chunker</title><style>.edge>path:hover{stroke-width:8}</style>
<path fill="none" stroke="#ffffff" d="M543.81,-647.23C568.05,-655.6 595.47,-662.55 619.23,-667.81"/>
<polygon fill="#1010f9" stroke="#ffffff" points="618.22,-671.17 628.73,-669.86 619.7,-664.33 618.22,-671.17"/>
</g>
<!-- src&#45;&gt;tests_unit_test_embeddings -->
<g id="edge34" class="edge">
<title>src&#45;&gt;tests_unit_test_embeddings</title><style>.edge>path:hover{stroke-width:8}</style>
<path fill="none" stroke="#ffffff" d="M451.8,-479.23C494.66,-486.19 505.39,-464.88 541.81,-441.23"/>
<path fill="none" stroke="#ffffff" d="M543.81,-441.23C574.07,-421.58 607.46,-398.56 633.43,-380.33"/>
<polygon fill="#1010f9" stroke="#ffffff" points="635.24,-383.34 641.41,-374.72 631.21,-377.62 635.24,-383.34"/>
<path fill="none" stroke="#ffffff" d="M369.5,-476.92C391.12,-475.55 422.67,-474.83 449.8,-479.23"/>
</g>
<!-- src&#45;&gt;tests_unit_test_faiss -->
<g id="edge35" class="edge">
<title>src&#45;&gt;tests_unit_test_faiss</title><style>.edge>path:hover{stroke-width:8}</style>
<path fill="none" stroke="#ffffff" d="M351.8,-462.13C373.18,-419.3 434.34,-305.94 513.8,-237.23 550.89,-205.15 599.51,-177.03 634.32,-158.85"/>
<polygon fill="#1010f9" stroke="#ffffff" points="635.56,-162.15 642.85,-154.46 632.36,-155.92 635.56,-162.15"/>
</g>
<!-- src&#45;&gt;tests_unit_test_index_store -->
<g id="edge36" class="edge">
<title>src&#45;&gt;tests_unit_test_index_store</title><style>.edge>path:hover{stroke-width:8}</style>
<path fill="none" stroke="#ffffff" d="M355.37,-463.3C370.04,-444.22 396.45,-412.01 423.8,-389.23 487.33,-336.3 570.76,-289.09 624.53,-261.06"/>
<polygon fill="#1010f9" stroke="#ffffff" points="625.93,-264.28 633.2,-256.58 622.71,-258.06 625.93,-264.28"/>
</g>
<!-- tests_unit_test_loader -->
<g id="node25" class="node">
<title>tests_unit_test_loader</title><style>.edge>path:hover{stroke-width:8}</style>
<ellipse fill="#a446a4" stroke="#ffffff" cx="679.6" cy="-759.23" rx="45.25" ry="31.11"/>
<text xml:space="preserve" text-anchor="middle" x="679.6" y="-767.73" font-family="Helvetica,sans-Serif" font-size="10.00" fill="#e0e0e0">tests.</text>
<text xml:space="preserve" text-anchor="middle" x="679.6" y="-755.73" font-family="Helvetica,sans-Serif" font-size="10.00" fill="#e0e0e0">unit.</text>
<text xml:space="preserve" text-anchor="middle" x="679.6" y="-743.73" font-family="Helvetica,sans-Serif" font-size="10.00" fill="#e0e0e0">test_loader</text>
</g>
<!-- src&#45;&gt;tests_unit_test_loader -->
<g id="edge37" class="edge">
<title>src&#45;&gt;tests_unit_test_loader</title><style>.edge>path:hover{stroke-width:8}</style>
<path fill="none" stroke="#ffffff" d="M356.96,-494.71C372.73,-512.8 399.79,-543.53 423.8,-569.23 462.84,-611.03 469.12,-625.51 513.8,-661.23 552.14,-691.9 565.55,-694.26 607.83,-719.23 616.21,-724.18 625.22,-729.37 633.9,-734.31"/>
<polygon fill="#1010f9" stroke="#ffffff" points="632.14,-737.34 642.57,-739.22 635.59,-731.25 632.14,-737.34"/>
</g>
<!-- src_app&#45;&gt;tests_conftest -->
<g id="edge38" class="edge">
<title>src_app&#45;&gt;tests_conftest</title><style>.edge>path:hover{stroke-width:8}</style>
<path fill="none" stroke="#ffffff" d="M680.6,-544.23C742.47,-542.93 794.77,-603.1 820.63,-639.41"/>
<polygon fill="#1e1eae" stroke="#ffffff" points="817.49,-641.03 826.06,-647.26 823.25,-637.05 817.49,-641.03"/>
</g>
<!-- src_app&#45;&gt;tests_eval_test_rag_accuracy -->
<g id="edge39" class="edge">
<title>src_app&#45;&gt;tests_eval_test_rag_accuracy</title><style>.edge>path:hover{stroke-width:8}</style>
<path fill="none" stroke="#ffffff" d="M839.99,-544.23C861.07,-546.64 906.35,-569.94 942.32,-590.12"/>
<polygon fill="#1e1eae" stroke="#ffffff" points="940.45,-593.08 950.88,-594.96 943.9,-586.99 940.45,-593.08"/>
</g>
<!-- src_app&#45;&gt;tests_integration_test_persistence -->
<g id="edge40" class="edge">
<title>src_app&#45;&gt;tests_integration_test_persistence</title><style>.edge>path:hover{stroke-width:8}</style>
<path fill="none" stroke="#ffffff" d="M570.76,-557.51C597.86,-552.2 640.91,-545.02 678.6,-544.23"/>
<path fill="none" stroke="#ffffff" d="M680.6,-544.23C758.26,-542.6 763.57,-445.95 837.99,-468.23"/>
</g>
<!-- src_app&#45;&gt;tests_llm_test_ask_endpoint -->
<g id="edge41" class="edge">
<title>src_app&#45;&gt;tests_llm_test_ask_endpoint</title><style>.edge>path:hover{stroke-width:8}</style>
<path fill="none" stroke="#ffffff" d="M839.99,-544.23C864.82,-547.07 892.06,-547.29 916.61,-546.44"/>
<polygon fill="#1e1eae" stroke="#ffffff" points="916.7,-549.93 926.54,-546.02 916.41,-542.94 916.7,-549.93"/>
<path fill="none" stroke="#ffffff" d="M680.6,-544.23C750.53,-542.76 768.49,-536.3 837.99,-544.23"/>
</g>
<!-- src_rag -->
<g id="node8" class="node">
<title>src_rag</title><style>.edge>path:hover{stroke-width:8}</style>
<ellipse fill="#1010f9" stroke="#ffffff" cx="342.55" cy="-593.23" rx="27.66" ry="18"/>
<text xml:space="preserve" text-anchor="middle" x="342.55" y="-589.73" font-family="Helvetica,sans-Serif" font-size="10.00" fill="#e0e0e0">src.rag</text>
</g>
<!-- src_rag&#45;&gt;src_app -->
<g id="edge42" class="edge">
<title>src_rag&#45;&gt;src_app</title><style>.edge>path:hover{stroke-width:8}</style>
<path fill="none" stroke="#ffffff" d="M451.8,-593.23C470.03,-588.36 489.97,-581.84 506.44,-576.12"/>
<polygon fill="#1010f9" stroke="#ffffff" points="507.52,-579.45 515.79,-572.82 505.2,-572.85 507.52,-579.45"/>
</g>
<!-- src_rag&#45;&gt;tests_conftest -->
<g id="edge43" class="edge">
<title>src_rag&#45;&gt;tests_conftest</title><style>.edge>path:hover{stroke-width:8}</style>
<path fill="none" stroke="#ffffff" d="M680.6,-890.23C715.74,-874.47 726.3,-869.47 751.37,-840.23 789.49,-795.77 815.73,-731.63 828.68,-694.92"/>
<polygon fill="#1010f9" stroke="#ffffff" points="831.84,-696.49 831.78,-685.89 825.22,-694.21 831.84,-696.49"/>
<path fill="none" stroke="#ffffff" d="M351.15,-610.79C384.19,-684.4 520.78,-961 678.6,-890.23"/>
</g>
<!-- src_rag&#45;&gt;tests_integration_test_persistence -->
<g id="edge44" class="edge">
<title>src_rag&#45;&gt;tests_integration_test_persistence</title><style>.edge>path:hover{stroke-width:8}</style>
<path fill="none" stroke="#ffffff" d="M451.8,-593.23C487.96,-583.56 482.23,-556.35 513.8,-536.23 580.62,-493.65 599.82,-476.77 678.6,-468.23"/>
<path fill="none" stroke="#ffffff" d="M369.79,-596.91C391.59,-599.1 423.22,-600.25 449.8,-593.23"/>
</g>
<!-- src_rag&#45;&gt;tests_unit_test_chunker -->
<g id="edge45" class="edge">
<title>src_rag&#45;&gt;tests_unit_test_chunker</title><style>.edge>path:hover{stroke-width:8}</style>
<path fill="none" stroke="#ffffff" d="M351.67,-610.66C363.81,-634.65 389.02,-677.35 423.8,-699.23 469.1,-727.74 488.29,-724.01 541.81,-723.23"/>
<path fill="none" stroke="#ffffff" d="M543.81,-723.23C573.49,-724.83 605.16,-715.13 630.34,-704.44"/>
<polygon fill="#1010f9" stroke="#ffffff" points="631.61,-707.7 639.32,-700.44 628.76,-701.31 631.61,-707.7"/>
</g>
<!-- src_rag&#45;&gt;tests_unit_test_embeddings -->
<g id="edge46" class="edge">
<title>src_rag&#45;&gt;tests_unit_test_embeddings</title><style>.edge>path:hover{stroke-width:8}</style>
<path fill="none" stroke="#ffffff" d="M361.97,-579.88C388.01,-560.93 436.97,-525 477.8,-493.23 506.73,-470.72 511.07,-461.19 541.81,-441.23"/>
</g>
<!-- src_rag&#45;&gt;tests_unit_test_faiss -->
<g id="edge47" class="edge">
<title>src_rag&#45;&gt;tests_unit_test_faiss</title><style>.edge>path:hover{stroke-width:8}</style>
<path fill="none" stroke="#ffffff" d="M352.58,-576.01C361.68,-558.53 376.03,-530.66 387.8,-506.23 404.55,-471.47 401.17,-458.49 423.8,-427.23 433.02,-414.49 440.75,-416.09 449.8,-403.23"/>
<path fill="none" stroke="#ffffff" d="M451.8,-403.23C518.49,-308.42 526.9,-277.23 607.83,-194.23 617.63,-184.17 629.18,-174.21 640.08,-165.5"/>
<polygon fill="#1010f9" stroke="#ffffff" points="642.11,-168.35 647.83,-159.43 637.79,-162.84 642.11,-168.35"/>
</g>
<!-- src_rag&#45;&gt;tests_unit_test_index_store -->
<g id="edge48" class="edge">
<title>src_rag&#45;&gt;tests_unit_test_index_store</title><style>.edge>path:hover{stroke-width:8}</style>
<path fill="none" stroke="#ffffff" d="M451.8,-403.23C456.99,-397.05 565.35,-326.06 571.83,-321.23 594.42,-304.36 618.86,-284.56 638.64,-268.12"/>
<polygon fill="#1010f9" stroke="#ffffff" points="640.79,-270.89 646.22,-261.8 636.3,-265.52 640.79,-270.89"/>
</g>
<!-- src_rag&#45;&gt;tests_unit_test_loader -->
<g id="edge49" class="edge">
<title>src_rag&#45;&gt;tests_unit_test_loader</title><style>.edge>path:hover{stroke-width:8}</style>
<path fill="none" stroke="#ffffff" d="M543.81,-723.23C572.57,-724.78 603.69,-732.66 628.77,-740.65"/>
<polygon fill="#1010f9" stroke="#ffffff" points="627.46,-743.9 638.05,-743.71 629.65,-737.25 627.46,-743.9"/>
</g>
<!-- src_rag_chunker -->
<g id="node9" class="node">
<title>src_rag_chunker</title><style>.edge>path:hover{stroke-width:8}</style>
<ellipse fill="#4747c2" stroke="#ffffff" cx="212.86" cy="-715.23" rx="35.71" ry="31.11"/>
<text xml:space="preserve" text-anchor="middle" x="212.86" y="-723.73" font-family="Helvetica,sans-Serif" font-size="10.00" fill="#e0e0e0">src.</text>
<text xml:space="preserve" text-anchor="middle" x="212.86" y="-711.73" font-family="Helvetica,sans-Serif" font-size="10.00" fill="#e0e0e0">rag.</text>
<text xml:space="preserve" text-anchor="middle" x="212.86" y="-699.73" font-family="Helvetica,sans-Serif" font-size="10.00" fill="#e0e0e0">chunker</text>
</g>
<!-- src_rag_loader -->
<g id="node12" class="node">
<title>src_rag_loader</title><style>.edge>path:hover{stroke-width:8}</style>
<ellipse fill="#4040c0" stroke="#ffffff" cx="342.55" cy="-715.23" rx="45.25" ry="18"/>
<text xml:space="preserve" text-anchor="middle" x="342.55" y="-711.73" font-family="Helvetica,sans-Serif" font-size="10.00" fill="#e0e0e0">src.rag.loader</text>
</g>
<!-- src_rag_chunker&#45;&gt;src_rag_loader -->
<g id="edge50" class="edge">
<title>src_rag_chunker&#45;&gt;src_rag_loader</title><style>.edge>path:hover{stroke-width:8}</style>
<path fill="none" stroke="#ffffff" d="M248.75,-715.23C260.17,-715.23 273.16,-715.23 285.72,-715.23"/>
<polygon fill="#4747c2" stroke="#ffffff" points="285.57,-718.73 295.57,-715.23 285.57,-711.73 285.57,-718.73"/>
</g>
<!-- src_rag_chunker&#45;&gt;tests_unit_test_chunker -->
<g id="edge51" class="edge">
<title>src_rag_chunker&#45;&gt;tests_unit_test_chunker</title><style>.edge>path:hover{stroke-width:8}</style>
<path fill="none" stroke="#ffffff" d="M245.77,-728.15C261.08,-733.68 279.85,-739.48 297.29,-742.23 345.36,-749.81 543.28,-744.9 571.83,-737.23 575.24,-736.31 604.35,-720.46 631.31,-705.56"/>
<polygon fill="#4747c2" stroke="#ffffff" points="632.72,-708.78 639.77,-700.87 629.33,-702.65 632.72,-708.78"/>
</g>
<!-- src_rag_embeddings&#45;&gt;src_rag_index -->
<g id="edge52" class="edge">
<title>src_rag_embeddings&#45;&gt;src_rag_index</title><style>.edge>path:hover{stroke-width:8}</style>
<path fill="none" stroke="#ffffff" d="M242.88,-194.4C258.6,-181.34 278.59,-165.36 297.29,-152.23 300.31,-150.11 303.5,-147.98 306.73,-145.89"/>
<polygon fill="#1818dd" stroke="#ffffff" points="308.49,-148.91 315.1,-140.62 304.77,-142.99 308.49,-148.91"/>
</g>
<!-- src_rag_embeddings&#45;&gt;src_rag_retriever -->
<g id="edge53" class="edge">
<title>src_rag_embeddings&#45;&gt;src_rag_retriever</title><style>.edge>path:hover{stroke-width:8}</style>
<path fill="none" stroke="#ffffff" d="M259.24,-209.64C271.19,-207.11 284.08,-204.38 296.04,-201.85"/>
<polygon fill="#1818dd" stroke="#ffffff" points="296.61,-205.31 305.67,-199.82 295.17,-198.46 296.61,-205.31"/>
</g>
<!-- src_rag_embeddings&#45;&gt;tests_conftest -->
<g id="edge54" class="edge">
<title>src_rag_embeddings&#45;&gt;tests_conftest</title><style>.edge>path:hover{stroke-width:8}</style>
<path fill="none" stroke="#ffffff" d="M543.81,-951.23C575.97,-944.39 650.64,-907.53 678.6,-890.23"/>
<path fill="none" stroke="#ffffff" d="M343.55,-1049.23C404.3,-1056.89 369.33,-965.21 423.8,-937.23 445.14,-926.26 453.93,-934.65 477.8,-937.23 506.75,-940.36 513.33,-957.29 541.81,-951.23"/>
<path fill="none" stroke="#ffffff" d="M217.06,-250.72C232.59,-401.46 300.96,-1042.37 341.55,-1049.23"/>
</g>
<!-- src_rag_embeddings&#45;&gt;tests_integration_test_persistence -->
<g id="edge55" class="edge">
<title>src_rag_embeddings&#45;&gt;tests_integration_test_persistence</title><style>.edge>path:hover{stroke-width:8}</style>
<path fill="none" stroke="#ffffff" d="M243.23,-194.62C249.67,-188.38 256.1,-181.4 261.29,-174.23 283.23,-143.97 269.93,-123.69 297.29,-98.23 318.63,-78.37 512.68,-2.25 541.81,-3.23"/>
</g>
<!-- src_rag_embeddings&#45;&gt;tests_unit_test_embeddings -->
<g id="edge56" class="edge">
<title>src_rag_embeddings&#45;&gt;tests_unit_test_embeddings</title><style>.edge>path:hover{stroke-width:8}</style>
<path fill="none" stroke="#ffffff" d="M260.15,-226.44C356.74,-241.48 570.92,-274.87 571.83,-275.23 595.5,-284.62 619.16,-300.02 638.17,-314.26"/>
<polygon fill="#1818dd" stroke="#ffffff" points="635.84,-316.89 645.91,-320.21 640.11,-311.34 635.84,-316.89"/>
</g>
<!-- src_rag_index&#45;&gt;src_app -->
<g id="edge57" class="edge">
<title>src_rag_index&#45;&gt;src_app</title><style>.edge>path:hover{stroke-width:8}</style>
<path fill="none" stroke="#ffffff" d="M451.8,-441.23C459.42,-454.99 467.64,-453.22 477.8,-465.23 496.68,-487.56 514.56,-515.76 526.6,-536.16"/>
<polygon fill="#2d2db4" stroke="#ffffff" points="523.54,-537.85 531.58,-544.75 529.59,-534.34 523.54,-537.85"/>
<path fill="none" stroke="#ffffff" d="M373,-138.53C378.62,-142.25 383.94,-146.8 387.8,-152.23 463.82,-259.37 386.12,-326.33 449.8,-441.23"/>
</g>
<!-- src_rag_index&#45;&gt;tests_unit_test_faiss -->
<g id="edge58" class="edge">
<title>src_rag_index&#45;&gt;tests_unit_test_faiss</title><style>.edge>path:hover{stroke-width:8}</style>
<path fill="none" stroke="#ffffff" d="M372.63,-111.99C393.86,-102.49 423.41,-89.59 449.8,-79.23"/>
</g>
<!-- src_rag_index&#45;&gt;tests_unit_test_index_store -->
<g id="edge59" class="edge">
<title>src_rag_index&#45;&gt;tests_unit_test_index_store</title><style>.edge>path:hover{stroke-width:8}</style>
<path fill="none" stroke="#ffffff" d="M383.26,-118.37C403.27,-115.89 427.88,-114.34 449.8,-117.23"/>
</g>
<!-- src_rag_loader&#45;&gt;src_app -->
<g id="edge60" class="edge">
<title>src_rag_loader&#45;&gt;src_app</title><style>.edge>path:hover{stroke-width:8}</style>
<path fill="none" stroke="#ffffff" d="M364.39,-699.25C400.47,-671.59 474.54,-614.8 514.62,-584.08"/>
<polygon fill="#4040c0" stroke="#ffffff" points="516.56,-587 522.36,-578.14 512.3,-581.45 516.56,-587"/>
</g>
<!-- src_rag_loader&#45;&gt;tests_unit_test_loader -->
<g id="edge61" class="edge">
<title>src_rag_loader&#45;&gt;tests_unit_test_loader</title><style>.edge>path:hover{stroke-width:8}</style>
<path fill="none" stroke="#ffffff" d="M378.78,-726.38C392.68,-730.38 408.86,-734.56 423.8,-737.23 491.66,-749.36 570.92,-754.87 622.8,-757.33"/>
<polygon fill="#4040c0" stroke="#ffffff" points="622.43,-760.81 632.58,-757.76 622.74,-753.82 622.43,-760.81"/>
</g>
<!-- src_rag_retriever&#45;&gt;src_app -->
<g id="edge62" class="edge">
<title>src_rag_retriever&#45;&gt;src_app</title><style>.edge>path:hover{stroke-width:8}</style>
<path fill="none" stroke="#ffffff" d="M353.94,-221.9C371.13,-269.53 407.76,-365.38 449.8,-441.23"/>
</g>
<!-- src_rag_retriever&#45;&gt;tests_unit_test_faiss -->
<g id="edge63" class="edge">
<title>src_rag_retriever&#45;&gt;tests_unit_test_faiss</title><style>.edge>path:hover{stroke-width:8}</style>
<path fill="none" stroke="#ffffff" d="M369.19,-170.65C375.52,-164.9 382.1,-158.53 387.8,-152.23 416.33,-120.65 410.17,-94.79 449.8,-79.23"/>
</g>
<!-- tests_eval_ollama_judge&#45;&gt;tests_eval_test_rag_accuracy -->
<g id="edge64" class="edge">
<title>tests_eval_ollama_judge&#45;&gt;tests_eval_test_rag_accuracy</title><style>.edge>path:hover{stroke-width:8}</style>
<path fill="none" stroke="#ffffff" d="M872.41,-970.15C879.15,-963.94 885.69,-956.83 890.61,-949.23 950.07,-857.23 977.18,-728.63 987.81,-662.78"/>
<polygon fill="#c040bf" stroke="#ffffff" points="991.24,-663.53 989.32,-653.11 984.32,-662.45 991.24,-663.53"/>
</g>
</g>
</svg>

