<?xml version="1.0" encoding="UTF-8" standalone="no"?>
<!DOCTYPE svg PUBLIC "-//W3C//DTD SVG 1.1//EN"
 "http://www.w3.org/Graphics/SVG/1.1/DTD/svg11.dtd">
<!-- Generated by graphviz version 15.0.0 (20260523.1842)
 -->
<!-- Title: G Pages: 1 -->
<svg style="background-color:#141414" width="1171pt" height="692pt"
 viewBox="0.00 0.00 1171.00 692.00" xmlns="http://www.w3.org/2000/svg" xmlns:xlink="http://www.w3.org/1999/xlink">
<g id="graph0" class="graph" transform="scale(1 1) rotate(0) translate(4 687.74)">
<title>G</title><style>.edge>path:hover{stroke-width:8}</style>
<polygon fill="#141414" stroke="none" points="-4,4 -4,-687.74 1167.19,-687.74 1167.19,4 -4,4"/>
<!-- faiss -->
<g id="node1" class="node">
<title>faiss</title><style>.edge>path:hover{stroke-width:8}</style>
<ellipse fill="#d02424" stroke="#ffffff" cx="202.21" cy="-370.11" rx="27" ry="18"/>
<text xml:space="preserve" text-anchor="middle" x="202.21" y="-366.61" font-family="Helvetica,sans-Serif" font-size="10.00" fill="#e0e0e0">faiss</text>
</g>
<!-- src_rag_agentic_retriever -->
<g id="node17" class="node">
<title>src_rag_agentic_retriever</title><style>.edge>path:hover{stroke-width:8}</style>
<ellipse fill="#702db4" stroke="#ffffff" cx="623.81" cy="-372.11" rx="62.23" ry="31.11"/>
<text xml:space="preserve" text-anchor="middle" x="623.81" y="-380.61" font-family="Helvetica,sans-Serif" font-size="10.00" fill="#e0e0e0">src.</text>
<text xml:space="preserve" text-anchor="middle" x="623.81" y="-368.61" font-family="Helvetica,sans-Serif" font-size="10.00" fill="#e0e0e0">rag.</text>
<text xml:space="preserve" text-anchor="middle" x="623.81" y="-356.61" font-family="Helvetica,sans-Serif" font-size="10.00" fill="#e0e0e0">agentic_retriever</text>
</g>
<!-- faiss&#45;&gt;src_rag_agentic_retriever -->
<g id="edge1" class="edge">
<title>faiss&#45;&gt;src_rag_agentic_retriever</title><style>.edge>path:hover{stroke-width:8}</style>
<path fill="none" stroke="#ffffff" d="M351.65,-370.11C418.57,-357.95 496.32,-360.16 551.36,-364.38"/>
<polygon fill="#d02424" stroke="#ffffff" points="550.99,-367.86 561.24,-365.19 551.56,-360.89 550.99,-367.86"/>
</g>
<!-- src_rag_index -->
<g id="node21" class="node">
<title>src_rag_index</title><style>.edge>path:hover{stroke-width:8}</style>
<ellipse fill="#6b2bac" stroke="#ffffff" cx="480.33" cy="-195.11" rx="43.45" ry="18"/>
<text xml:space="preserve" text-anchor="middle" x="480.33" y="-191.61" font-family="Helvetica,sans-Serif" font-size="10.00" fill="#e0e0e0">src.rag.index</text>
</g>
<!-- faiss&#45;&gt;src_rag_index -->
<g id="edge2" class="edge">
<title>faiss&#45;&gt;src_rag_index</title><style>.edge>path:hover{stroke-width:8}</style>
<path fill="none" stroke="#ffffff" d="M216.11,-354.44C239.41,-327.54 291.53,-273.6 349.65,-254.11"/>
</g>
<!-- src_rag_retriever -->
<g id="node24" class="node">
<title>src_rag_retriever</title><style>.edge>path:hover{stroke-width:8}</style>
<ellipse fill="#752fbc" stroke="#ffffff" cx="480.33" cy="-287.11" rx="36.24" ry="31.11"/>
<text xml:space="preserve" text-anchor="middle" x="480.33" y="-295.61" font-family="Helvetica,sans-Serif" font-size="10.00" fill="#e0e0e0">src.</text>
<text xml:space="preserve" text-anchor="middle" x="480.33" y="-283.61" font-family="Helvetica,sans-Serif" font-size="10.00" fill="#e0e0e0">rag.</text>
<text xml:space="preserve" text-anchor="middle" x="480.33" y="-271.61" font-family="Helvetica,sans-Serif" font-size="10.00" fill="#e0e0e0">retriever</text>
</g>
<!-- faiss&#45;&gt;src_rag_retriever -->
<g id="edge3" class="edge">
<title>faiss&#45;&gt;src_rag_retriever</title><style>.edge>path:hover{stroke-width:8}</style>
<path fill="none" stroke="#ffffff" d="M351.65,-370.11C388.87,-364.3 424.22,-339.24 448.24,-318.16"/>
<polygon fill="#d02424" stroke="#ffffff" points="450.39,-320.95 455.44,-311.64 445.68,-315.76 450.39,-320.95"/>
<path fill="none" stroke="#ffffff" d="M229.32,-372.53C258.76,-374.69 307.95,-376.62 349.65,-370.11"/>
</g>
<!-- flask -->
<g id="node2" class="node">
<title>flask</title><style>.edge>path:hover{stroke-width:8}</style>
<ellipse fill="#c0a040" stroke="#ffffff" cx="480.33" cy="-141.11" rx="27" ry="18"/>
<text xml:space="preserve" text-anchor="middle" x="480.33" y="-137.61" font-family="Helvetica,sans-Serif" font-size="10.00" fill="#e0e0e0">flask</text>
</g>
<!-- src_app -->
<g id="node11" class="node">
<title>src_app</title><style>.edge>path:hover{stroke-width:8}</style>
<ellipse fill="#613091" stroke="#ffffff" cx="758.27" cy="-176.11" rx="29.01" ry="18"/>
<text xml:space="preserve" text-anchor="middle" x="758.27" y="-172.61" font-family="Helvetica,sans-Serif" font-size="10.00" fill="#e0e0e0">src.app</text>
</g>
<!-- flask&#45;&gt;src_app -->
<g id="edge4" class="edge">
<title>flask&#45;&gt;src_app</title><style>.edge>path:hover{stroke-width:8}</style>
<path fill="none" stroke="#ffffff" d="M507.49,-139.52C535.95,-138.16 582.74,-137 622.81,-141.11"/>
</g>
<!-- numpy -->
<g id="node3" class="node">
<title>numpy</title><style>.edge>path:hover{stroke-width:8}</style>
<ellipse fill="#80e619" stroke="#ffffff" cx="69.6" cy="-347.11" rx="27.21" ry="18"/>
<text xml:space="preserve" text-anchor="middle" x="69.6" y="-343.61" font-family="Helvetica,sans-Serif" font-size="10.00" fill="#e0e0e0">numpy</text>
</g>
<!-- numpy&#45;&gt;faiss -->
<g id="edge5" class="edge">
<title>numpy&#45;&gt;faiss</title><style>.edge>path:hover{stroke-width:8}</style>
<path fill="none" stroke="#ffffff" d="M96.41,-351.66C115.94,-355.1 143.03,-359.87 164.77,-363.7"/>
<polygon fill="#80e619" stroke="#ffffff" points="163.96,-367.11 174.41,-365.39 165.17,-360.21 163.96,-367.11"/>
</g>
<!-- src_rag_embeddings -->
<g id="node19" class="node">
<title>src_rag_embeddings</title><style>.edge>path:hover{stroke-width:8}</style>
<ellipse fill="#752fbc" stroke="#ffffff" cx="350.65" cy="-195.11" rx="48.44" ry="31.11"/>
<text xml:space="preserve" text-anchor="middle" x="350.65" y="-203.61" font-family="Helvetica,sans-Serif" font-size="10.00" fill="#e0e0e0">src.</text>
<text xml:space="preserve" text-anchor="middle" x="350.65" y="-191.61" font-family="Helvetica,sans-Serif" font-size="10.00" fill="#e0e0e0">rag.</text>
<text xml:space="preserve" text-anchor="middle" x="350.65" y="-179.61" font-family="Helvetica,sans-Serif" font-size="10.00" fill="#e0e0e0">embeddings</text>
</g>
<!-- numpy&#45;&gt;src_rag_embeddings -->
<g id="edge6" class="edge">
<title>numpy&#45;&gt;src_rag_embeddings</title><style>.edge>path:hover{stroke-width:8}</style>
<path fill="none" stroke="#ffffff" d="M96.67,-344.77C123.43,-341.84 166.02,-335.75 201.21,-324.11"/>
<path fill="none" stroke="#ffffff" d="M203.21,-324.11C242.67,-311.07 230.54,-277.03 265.21,-254.11"/>
<path fill="none" stroke="#ffffff" d="M266.21,-254.11C280.28,-244.81 295.4,-234.28 308.86,-224.72"/>
<polygon fill="#80e619" stroke="#ffffff" points="310.54,-227.82 316.65,-219.16 306.47,-222.12 310.54,-227.82"/>
</g>
<!-- numpy&#45;&gt;src_rag_index -->
<g id="edge7" class="edge">
<title>numpy&#45;&gt;src_rag_index</title><style>.edge>path:hover{stroke-width:8}</style>
<path fill="none" stroke="#ffffff" d="M351.65,-254.11C372.91,-246.15 378.36,-244.41 399.08,-235.11 413.46,-228.66 429.01,-221.06 442.56,-214.23"/>
<polygon fill="#80e619" stroke="#ffffff" points="443.8,-217.52 451.13,-209.87 440.63,-211.28 443.8,-217.52"/>
<path fill="none" stroke="#ffffff" d="M266.21,-254.11C297.14,-233.66 314.92,-267.12 349.65,-254.11"/>
</g>
<!-- numpy&#45;&gt;src_rag_retriever -->
<g id="edge8" class="edge">
<title>numpy&#45;&gt;src_rag_retriever</title><style>.edge>path:hover{stroke-width:8}</style>
<path fill="none" stroke="#ffffff" d="M203.21,-324.11C281.02,-298.39 376.8,-290.51 432.67,-288.12"/>
<polygon fill="#80e619" stroke="#ffffff" points="432.59,-291.63 442.45,-287.75 432.33,-284.63 432.59,-291.63"/>
</g>
<!-- openai -->
<g id="node4" class="node">
<title>openai</title><style>.edge>path:hover{stroke-width:8}</style>
<ellipse fill="#40c060" stroke="#ffffff" cx="202.21" cy="-90.11" rx="27" ry="18"/>
<text xml:space="preserve" text-anchor="middle" x="202.21" y="-86.61" font-family="Helvetica,sans-Serif" font-size="10.00" fill="#e0e0e0">openai</text>
</g>
<!-- src_rag_llm -->
<g id="node22" class="node">
<title>src_rag_llm</title><style>.edge>path:hover{stroke-width:8}</style>
<ellipse fill="#7f40c0" stroke="#ffffff" cx="480.33" cy="-87.11" rx="37.13" ry="18"/>
<text xml:space="preserve" text-anchor="middle" x="480.33" y="-83.61" font-family="Helvetica,sans-Serif" font-size="10.00" fill="#e0e0e0">src.rag.llm</text>
</g>
<!-- openai&#45;&gt;src_rag_llm -->
<g id="edge9" class="edge">
<title>openai&#45;&gt;src_rag_llm</title><style>.edge>path:hover{stroke-width:8}</style>
<path fill="none" stroke="#ffffff" d="M229.69,-89.83C276.16,-89.32 373.01,-88.27 431.48,-87.63"/>
<polygon fill="#40c060" stroke="#ffffff" points="431.51,-91.13 441.47,-87.52 431.44,-84.13 431.51,-91.13"/>
</g>
<!-- pytest -->
<g id="node5" class="node">
<title>pytest</title><style>.edge>path:hover{stroke-width:8}</style>
<ellipse fill="#53b6b6" stroke="#ffffff" cx="69.6" cy="-141.11" rx="27" ry="18"/>
<text xml:space="preserve" text-anchor="middle" x="69.6" y="-137.61" font-family="Helvetica,sans-Serif" font-size="10.00" fill="#e0e0e0">pytest</text>
</g>
<!-- pytest&#45;&gt;src_rag_embeddings -->
<g id="edge10" class="edge">
<title>pytest&#45;&gt;src_rag_embeddings</title><style>.edge>path:hover{stroke-width:8}</style>
<path fill="none" stroke="#ffffff" d="M93.56,-149.91C106.92,-155.09 124.07,-161.84 139.21,-168.11 166.98,-179.62 171.31,-192.1 201.21,-195.11"/>
<path fill="none" stroke="#ffffff" d="M203.21,-195.11C231.85,-198 263.81,-198.33 290.54,-197.81"/>
<polygon fill="#53b6b6" stroke="#ffffff" points="290.62,-201.3 300.53,-197.56 290.45,-194.31 290.62,-201.3"/>
</g>
<!-- sentence_transformers -->
<g id="node6" class="node">
<title>sentence_transformers</title><style>.edge>path:hover{stroke-width:8}</style>
<ellipse fill="#405fc0" stroke="#ffffff" cx="69.6" cy="-195.11" rx="69.6" ry="18"/>
<text xml:space="preserve" text-anchor="middle" x="69.6" y="-191.61" font-family="Helvetica,sans-Serif" font-size="10.00" fill="#e0e0e0">sentence_transformers</text>
</g>
<!-- sentence_transformers&#45;&gt;src_rag_embeddings -->
<g id="edge11" class="edge">
<title>sentence_transformers&#45;&gt;src_rag_embeddings</title><style>.edge>path:hover{stroke-width:8}</style>
<path fill="none" stroke="#ffffff" d="M138.86,-192.53C158.98,-192.47 181.02,-193.08 201.21,-195.11"/>
</g>
<!-- src_agent -->
<g id="node7" class="node">
<title>src_agent</title><style>.edge>path:hover{stroke-width:8}</style>
<ellipse fill="#853bce" stroke="#ffffff" cx="993.7" cy="-451.11" rx="33.98" ry="18"/>
<text xml:space="preserve" text-anchor="middle" x="993.7" y="-447.61" font-family="Helvetica,sans-Serif" font-size="10.00" fill="#e0e0e0">src.agent</text>
</g>
<!-- src_agent_main -->
<g id="node10" class="node">
<title>src_agent_main</title><style>.edge>path:hover{stroke-width:8}</style>
<ellipse fill="#4c2e6b" stroke="#ffffff" cx="1113.43" cy="-428.11" rx="49.76" ry="18"/>
<text xml:space="preserve" text-anchor="middle" x="1113.43" y="-424.61" font-family="Helvetica,sans-Serif" font-size="10.00" fill="#e0e0e0">src.agent_main</text>
</g>
<!-- src_agent&#45;&gt;src_agent_main -->
<g id="edge12" class="edge">
<title>src_agent&#45;&gt;src_agent_main</title><style>.edge>path:hover{stroke-width:8}</style>
<path fill="none" stroke="#ffffff" d="M1025.94,-445.01C1035.75,-443.09 1046.88,-440.92 1057.82,-438.78"/>
<polygon fill="#853bce" stroke="#ffffff" points="1058.45,-442.22 1067.59,-436.87 1057.11,-435.35 1058.45,-442.22"/>
</g>
<!-- src_agent_loop -->
<g id="node8" class="node">
<title>src_agent_loop</title><style>.edge>path:hover{stroke-width:8}</style>
<ellipse fill="#51287a" stroke="#ffffff" cx="877.12" cy="-405.11" rx="46.6" ry="18"/>
<text xml:space="preserve" text-anchor="middle" x="877.12" y="-401.61" font-family="Helvetica,sans-Serif" font-size="10.00" fill="#e0e0e0">src.agent.loop</text>
</g>
<!-- src_agent_loop&#45;&gt;src_agent_main -->
<g id="edge13" class="edge">
<title>src_agent_loop&#45;&gt;src_agent_main</title><style>.edge>path:hover{stroke-width:8}</style>
<path fill="none" stroke="#ffffff" d="M923.68,-407.31C944.74,-407.76 970.05,-407.51 992.7,-405.11"/>
</g>
<!-- src_agent_prompts -->
<g id="node9" class="node">
<title>src_agent_prompts</title><style>.edge>path:hover{stroke-width:8}</style>
<ellipse fill="#8547c2" stroke="#ffffff" cx="758.27" cy="-479.11" rx="36.24" ry="31.11"/>
<text xml:space="preserve" text-anchor="middle" x="758.27" y="-487.61" font-family="Helvetica,sans-Serif" font-size="10.00" fill="#e0e0e0">src.</text>
<text xml:space="preserve" text-anchor="middle" x="758.27" y="-475.61" font-family="Helvetica,sans-Serif" font-size="10.00" fill="#e0e0e0">agent.</text>
<text xml:space="preserve" text-anchor="middle" x="758.27" y="-463.61" font-family="Helvetica,sans-Serif" font-size="10.00" fill="#e0e0e0">prompts</text>
</g>
<!-- src_agent_prompts&#45;&gt;src_agent_loop -->
<g id="edge14" class="edge">
<title>src_agent_prompts&#45;&gt;src_agent_loop</title><style>.edge>path:hover{stroke-width:8}</style>
<path fill="none" stroke="#ffffff" d="M788.16,-460.82C804.54,-450.44 825.13,-437.41 842.27,-426.55"/>
<polygon fill="#8547c2" stroke="#ffffff" points="844.05,-429.57 850.62,-421.26 840.3,-423.65 844.05,-429.57"/>
</g>
<!-- src_main -->
<g id="node13" class="node">
<title>src_main</title><style>.edge>path:hover{stroke-width:8}</style>
<ellipse fill="#7a49ac" stroke="#ffffff" cx="877.12" cy="-176.11" rx="32.17" ry="18"/>
<text xml:space="preserve" text-anchor="middle" x="877.12" y="-172.61" font-family="Helvetica,sans-Serif" font-size="10.00" fill="#e0e0e0">src.main</text>
</g>
<!-- src_app&#45;&gt;src_main -->
<g id="edge15" class="edge">
<title>src_app&#45;&gt;src_main</title><style>.edge>path:hover{stroke-width:8}</style>
<path fill="none" stroke="#ffffff" d="M787.56,-176.11C801.34,-176.11 818.19,-176.11 833.49,-176.11"/>
<polygon fill="#613091" stroke="#ffffff" points="833.29,-179.61 843.29,-176.11 833.29,-172.61 833.29,-179.61"/>
</g>
<!-- src_llm -->
<g id="node12" class="node">
<title>src_llm</title><style>.edge>path:hover{stroke-width:8}</style>
<ellipse fill="#852fdb" stroke="#ffffff" cx="350.65" cy="-490.11" rx="27.21" ry="18"/>
<text xml:space="preserve" text-anchor="middle" x="350.65" y="-486.61" font-family="Helvetica,sans-Serif" font-size="10.00" fill="#e0e0e0">src.llm</text>
</g>
<!-- src_llm&#45;&gt;src_agent_loop -->
<g id="edge16" class="edge">
<title>src_llm&#45;&gt;src_agent_loop</title><style>.edge>path:hover{stroke-width:8}</style>
<path fill="none" stroke="#ffffff" d="M481.33,-490.11C520.73,-496.1 523.54,-461.98 561.58,-450.11 648.84,-422.91 754.9,-412.07 818.88,-407.8"/>
<polygon fill="#852fdb" stroke="#ffffff" points="819.05,-411.3 828.81,-407.18 818.61,-404.31 819.05,-411.3"/>
<path fill="none" stroke="#ffffff" d="M377.75,-487.75C403.69,-485.95 444.52,-484.62 479.33,-490.11"/>
</g>
<!-- src_llm&#45;&gt;src_agent_main -->
<g id="edge17" class="edge">
<title>src_llm&#45;&gt;src_agent_main</title><style>.edge>path:hover{stroke-width:8}</style>
<path fill="none" stroke="#ffffff" d="M481.33,-490.11C565.45,-503.39 489.86,-618.2 561.58,-664.11 634.98,-711.09 670.37,-658.52 757.27,-652.11"/>
</g>
<!-- src_rag_rewriter -->
<g id="node25" class="node">
<title>src_rag_rewriter</title><style>.edge>path:hover{stroke-width:8}</style>
<ellipse fill="#7a31c4" stroke="#ffffff" cx="623.81" cy="-490.11" rx="34.12" ry="31.11"/>
<text xml:space="preserve" text-anchor="middle" x="623.81" y="-498.61" font-family="Helvetica,sans-Serif" font-size="10.00" fill="#e0e0e0">src.</text>
<text xml:space="preserve" text-anchor="middle" x="623.81" y="-486.61" font-family="Helvetica,sans-Serif" font-size="10.00" fill="#e0e0e0">rag.</text>
<text xml:space="preserve" text-anchor="middle" x="623.81" y="-474.61" font-family="Helvetica,sans-Serif" font-size="10.00" fill="#e0e0e0">rewriter</text>
</g>
<!-- src_llm&#45;&gt;src_rag_rewriter -->
<g id="edge18" class="edge">
<title>src_llm&#45;&gt;src_rag_rewriter</title><style>.edge>path:hover{stroke-width:8}</style>
<path fill="none" stroke="#ffffff" d="M481.33,-490.11C513.42,-494.99 550.07,-494.83 578.03,-493.54"/>
<polygon fill="#852fdb" stroke="#ffffff" points="578.13,-497.04 587.93,-493.01 577.75,-490.05 578.13,-497.04"/>
</g>
<!-- src_mcp_client -->
<g id="node14" class="node">
<title>src_mcp_client</title><style>.edge>path:hover{stroke-width:8}</style>
<ellipse fill="#853bce" stroke="#ffffff" cx="623.81" cy="-637.11" rx="47.96" ry="18"/>
<text xml:space="preserve" text-anchor="middle" x="623.81" y="-633.61" font-family="Helvetica,sans-Serif" font-size="10.00" fill="#e0e0e0">src.mcp_client</text>
</g>
<!-- src_mcp_client&#45;&gt;src_agent_loop -->
<g id="edge19" class="edge">
<title>src_mcp_client&#45;&gt;src_agent_loop</title><style>.edge>path:hover{stroke-width:8}</style>
<path fill="none" stroke="#ffffff" d="M662.3,-625.94C699.69,-613.2 756.82,-589.21 794.51,-552.11 829.31,-517.86 853.48,-465.61 866.05,-433.5"/>
<polygon fill="#853bce" stroke="#ffffff" points="869.2,-435.05 869.47,-424.46 862.65,-432.57 869.2,-435.05"/>
</g>
<!-- src_mcp_client&#45;&gt;src_agent_main -->
<g id="edge20" class="edge">
<title>src_mcp_client&#45;&gt;src_agent_main</title><style>.edge>path:hover{stroke-width:8}</style>
<path fill="none" stroke="#ffffff" d="M666.49,-645.84C692.54,-650.3 726.81,-654.36 757.27,-652.11"/>
</g>
<!-- src_mcp_client_client -->
<g id="node15" class="node">
<title>src_mcp_client_client</title><style>.edge>path:hover{stroke-width:8}</style>
<ellipse fill="#853bce" stroke="#ffffff" cx="623.81" cy="-570.11" rx="46.85" ry="31.11"/>
<text xml:space="preserve" text-anchor="middle" x="623.81" y="-578.61" font-family="Helvetica,sans-Serif" font-size="10.00" fill="#e0e0e0">src.</text>
<text xml:space="preserve" text-anchor="middle" x="623.81" y="-566.61" font-family="Helvetica,sans-Serif" font-size="10.00" fill="#e0e0e0">mcp_client.</text>
<text xml:space="preserve" text-anchor="middle" x="623.81" y="-554.61" font-family="Helvetica,sans-Serif" font-size="10.00" fill="#e0e0e0">client</text>
</g>
<!-- src_mcp_client_client&#45;&gt;src_agent_loop -->
<g id="edge21" class="edge">
<title>src_mcp_client_client&#45;&gt;src_agent_loop</title><style>.edge>path:hover{stroke-width:8}</style>
<path fill="none" stroke="#ffffff" d="M669.74,-562.83C695.9,-557.72 729.17,-549.7 757.27,-538.11"/>
</g>
<!-- src_mcp_client_client&#45;&gt;src_agent_main -->
<g id="edge22" class="edge">
<title>src_mcp_client_client&#45;&gt;src_agent_main</title><style>.edge>path:hover{stroke-width:8}</style>
<path fill="none" stroke="#ffffff" d="M759.27,-652.11C813.73,-648.09 829.2,-642.05 876.12,-614.11"/>
<path fill="none" stroke="#ffffff" d="M658.31,-591.51C696.6,-615.88 754.4,-652.32 757.27,-652.11"/>
</g>
<!-- src_rag -->
<g id="node16" class="node">
<title>src_rag</title><style>.edge>path:hover{stroke-width:8}</style>
<ellipse fill="#8516f3" stroke="#ffffff" cx="623.81" cy="-225.11" rx="27.66" ry="18"/>
<text xml:space="preserve" text-anchor="middle" x="623.81" y="-221.61" font-family="Helvetica,sans-Serif" font-size="10.00" fill="#e0e0e0">src.rag</text>
</g>
<!-- src_rag&#45;&gt;src_agent_loop -->
<g id="edge23" class="edge">
<title>src_rag&#45;&gt;src_agent_loop</title><style>.edge>path:hover{stroke-width:8}</style>
<path fill="none" stroke="#ffffff" d="M759.27,-306.11C794.41,-326.82 829.39,-358.26 851.79,-380.13"/>
<polygon fill="#8516f3" stroke="#ffffff" points="849.09,-382.38 858.66,-386.94 854.02,-377.41 849.09,-382.38"/>
</g>
<!-- src_rag&#45;&gt;src_agent_main -->
<g id="edge24" class="edge">
<title>src_rag&#45;&gt;src_agent_main</title><style>.edge>path:hover{stroke-width:8}</style>
<path fill="none" stroke="#ffffff" d="M759.27,-306.11C806.32,-333.84 824.61,-325.97 876.12,-344.11"/>
<path fill="none" stroke="#ffffff" d="M648.41,-234.01C660.05,-238.77 674.12,-245.1 686.04,-252.11 720.28,-272.27 723.05,-285.94 757.27,-306.11"/>
</g>
<!-- src_rag&#45;&gt;src_app -->
<g id="edge25" class="edge">
<title>src_rag&#45;&gt;src_app</title><style>.edge>path:hover{stroke-width:8}</style>
<path fill="none" stroke="#ffffff" d="M648.49,-216.35C669.05,-208.75 699.09,-197.64 722.4,-189.01"/>
<polygon fill="#8516f3" stroke="#ffffff" points="723.32,-192.41 731.48,-185.65 720.89,-185.84 723.32,-192.41"/>
</g>
<!-- src_rag_agentic_retriever&#45;&gt;src_agent_loop -->
<g id="edge26" class="edge">
<title>src_rag_agentic_retriever&#45;&gt;src_agent_loop</title><style>.edge>path:hover{stroke-width:8}</style>
<path fill="none" stroke="#ffffff" d="M759.27,-382.11C782.32,-382.24 807.45,-386.62 828.48,-391.52"/>
<polygon fill="#702db4" stroke="#ffffff" points="827.37,-394.85 837.91,-393.83 829.03,-388.05 827.37,-394.85"/>
</g>
<!-- src_rag_agentic_retriever&#45;&gt;src_agent_main -->
<g id="edge27" class="edge">
<title>src_rag_agentic_retriever&#45;&gt;src_agent_main</title><style>.edge>path:hover{stroke-width:8}</style>
<path fill="none" stroke="#ffffff" d="M759.27,-382.11C813.88,-382.42 824.61,-325.97 876.12,-344.11"/>
<path fill="none" stroke="#ffffff" d="M685.08,-378.44C707.69,-380.35 733.64,-381.98 757.27,-382.11"/>
</g>
<!-- src_rag_chunker -->
<g id="node18" class="node">
<title>src_rag_chunker</title><style>.edge>path:hover{stroke-width:8}</style>
<ellipse fill="#7f40c0" stroke="#ffffff" cx="350.65" cy="-31.11" rx="35.71" ry="31.11"/>
<text xml:space="preserve" text-anchor="middle" x="350.65" y="-39.61" font-family="Helvetica,sans-Serif" font-size="10.00" fill="#e0e0e0">src.</text>
<text xml:space="preserve" text-anchor="middle" x="350.65" y="-27.61" font-family="Helvetica,sans-Serif" font-size="10.00" fill="#e0e0e0">rag.</text>
<text xml:space="preserve" text-anchor="middle" x="350.65" y="-15.61" font-family="Helvetica,sans-Serif" font-size="10.00" fill="#e0e0e0">chunker</text>
</g>
<!-- src_rag_loader -->
<g id="node23" class="node">
<title>src_rag_loader</title><style>.edge>path:hover{stroke-width:8}</style>
<ellipse fill="#7f40c0" stroke="#ffffff" cx="480.33" cy="-31.11" rx="45.25" ry="18"/>
<text xml:space="preserve" text-anchor="middle" x="480.33" y="-27.61" font-family="Helvetica,sans-Serif" font-size="10.00" fill="#e0e0e0">src.rag.loader</text>
</g>
<!-- src_rag_chunker&#45;&gt;src_rag_loader -->
<g id="edge28" class="edge">
<title>src_rag_chunker&#45;&gt;src_rag_loader</title><style>.edge>path:hover{stroke-width:8}</style>
<path fill="none" stroke="#ffffff" d="M386.54,-31.11C397.96,-31.11 410.95,-31.11 423.51,-31.11"/>
<polygon fill="#7f40c0" stroke="#ffffff" points="423.36,-34.61 433.36,-31.11 423.36,-27.61 423.36,-34.61"/>
</g>
<!-- src_rag_embeddings&#45;&gt;src_rag_index -->
<g id="edge29" class="edge">
<title>src_rag_embeddings&#45;&gt;src_rag_index</title><style>.edge>path:hover{stroke-width:8}</style>
<path fill="none" stroke="#ffffff" d="M399.56,-195.11C407.92,-195.11 416.68,-195.11 425.2,-195.11"/>
<polygon fill="#752fbc" stroke="#ffffff" points="425.11,-198.61 435.11,-195.11 425.11,-191.61 425.11,-198.61"/>
</g>
<!-- src_rag_embeddings&#45;&gt;src_rag_retriever -->
<g id="edge30" class="edge">
<title>src_rag_embeddings&#45;&gt;src_rag_retriever</title><style>.edge>path:hover{stroke-width:8}</style>
<path fill="none" stroke="#ffffff" d="M383.54,-218.09C401.61,-231.11 424.29,-247.45 443.04,-260.96"/>
<polygon fill="#752fbc" stroke="#ffffff" points="440.78,-263.65 450.94,-266.65 444.87,-257.97 440.78,-263.65"/>
</g>
<!-- src_rag_evaluator -->
<g id="node20" class="node">
<title>src_rag_evaluator</title><style>.edge>path:hover{stroke-width:8}</style>
<ellipse fill="#853bce" stroke="#ffffff" cx="623.81" cy="-292.11" rx="39.42" ry="31.11"/>
<text xml:space="preserve" text-anchor="middle" x="623.81" y="-300.61" font-family="Helvetica,sans-Serif" font-size="10.00" fill="#e0e0e0">src.</text>
<text xml:space="preserve" text-anchor="middle" x="623.81" y="-288.61" font-family="Helvetica,sans-Serif" font-size="10.00" fill="#e0e0e0">rag.</text>
<text xml:space="preserve" text-anchor="middle" x="623.81" y="-276.61" font-family="Helvetica,sans-Serif" font-size="10.00" fill="#e0e0e0">evaluator</text>
</g>
<!-- src_rag_evaluator&#45;&gt;src_agent_loop -->
<g id="edge31" class="edge">
<title>src_rag_evaluator&#45;&gt;src_agent_loop</title><style>.edge>path:hover{stroke-width:8}</style>
<path fill="none" stroke="#ffffff" d="M759.27,-344.11C788.75,-353.56 819.71,-370.06 842.34,-383.51"/>
<polygon fill="#853bce" stroke="#ffffff" points="840.46,-386.47 850.83,-388.66 844.09,-380.48 840.46,-386.47"/>
</g>
<!-- src_rag_evaluator&#45;&gt;src_agent_main -->
<g id="edge32" class="edge">
<title>src_rag_evaluator&#45;&gt;src_agent_main</title><style>.edge>path:hover{stroke-width:8}</style>
<path fill="none" stroke="#ffffff" d="M759.27,-344.11C808.73,-359.96 827.14,-326.86 876.12,-344.11"/>
<path fill="none" stroke="#ffffff" d="M658.96,-306.91C685.46,-318.06 723.28,-333.22 757.27,-344.11"/>
</g>
<!-- src_rag_index&#45;&gt;src_agent_main -->
<g id="edge33" class="edge">
<title>src_rag_index&#45;&gt;src_agent_main</title><style>.edge>path:hover{stroke-width:8}</style>
<path fill="none" stroke="#ffffff" d="M521.09,-188.48C563.29,-183.07 631.32,-179.08 686.04,-198.11 786.65,-233.12 775.64,-308.72 876.12,-344.11"/>
<path fill="none" stroke="#ffffff" d="M878.12,-344.11C932.54,-363.27 935.33,-411.17 992.7,-405.11"/>
<path fill="none" stroke="#ffffff" d="M994.7,-405.11C1018.42,-402.61 1044.48,-406.95 1066.04,-412.51"/>
<polygon fill="#6b2bac" stroke="#ffffff" points="1064.84,-415.81 1075.41,-415.1 1066.7,-409.06 1064.84,-415.81"/>
</g>
<!-- src_rag_index&#45;&gt;src_app -->
<g id="edge34" class="edge">
<title>src_rag_index&#45;&gt;src_app</title><style>.edge>path:hover{stroke-width:8}</style>
<path fill="none" stroke="#ffffff" d="M508.87,-181.18C543.2,-164.42 600.12,-138.78 622.81,-141.11"/>
</g>
<!-- src_rag_llm&#45;&gt;src_app -->
<g id="edge35" class="edge">
<title>src_rag_llm&#45;&gt;src_app</title><style>.edge>path:hover{stroke-width:8}</style>
<path fill="none" stroke="#ffffff" d="M505.4,-100.79C532.8,-115.28 579.4,-136.66 622.81,-141.11"/>
</g>
<!-- src_rag_loader&#45;&gt;src_app -->
<g id="edge36" class="edge">
<title>src_rag_loader&#45;&gt;src_app</title><style>.edge>path:hover{stroke-width:8}</style>
<path fill="none" stroke="#ffffff" d="M624.81,-141.11C658.56,-144.58 695.82,-155.04 722.2,-163.64"/>
<polygon fill="#7f40c0" stroke="#ffffff" points="720.77,-166.85 731.37,-166.7 722.99,-160.21 720.77,-166.85"/>
<path fill="none" stroke="#ffffff" d="M505.56,-46.27C512.16,-50.6 519.24,-55.41 525.58,-60.11 570.78,-93.58 566.86,-135.37 622.81,-141.11"/>
</g>
<!-- src_rag_retriever&#45;&gt;src_app -->
<g id="edge37" class="edge">
<title>src_rag_retriever&#45;&gt;src_app</title><style>.edge>path:hover{stroke-width:8}</style>
<path fill="none" stroke="#ffffff" d="M499.47,-260.28C529.62,-217.2 589.98,-137.74 622.81,-141.11"/>
</g>
<!-- src_rag_retriever&#45;&gt;src_rag_agentic_retriever -->
<g id="edge38" class="edge">
<title>src_rag_retriever&#45;&gt;src_rag_agentic_retriever</title><style>.edge>path:hover{stroke-width:8}</style>
<path fill="none" stroke="#ffffff" d="M510.65,-304.72C528.74,-315.6 552.43,-329.83 573.36,-342.4"/>
<polygon fill="#752fbc" stroke="#ffffff" points="571.4,-345.31 581.77,-347.46 575,-339.31 571.4,-345.31"/>
</g>
<!-- src_rag_rewriter&#45;&gt;src_agent_loop -->
<g id="edge39" class="edge">
<title>src_rag_rewriter&#45;&gt;src_agent_loop</title><style>.edge>path:hover{stroke-width:8}</style>
<path fill="none" stroke="#ffffff" d="M759.27,-538.11C775.72,-531.33 781.16,-530.87 794.51,-519.11 822.8,-494.2 846.73,-457.71 861.22,-432.76"/>
<polygon fill="#7a31c4" stroke="#ffffff" points="864.21,-434.59 866.09,-424.16 858.12,-431.14 864.21,-434.59"/>
<path fill="none" stroke="#ffffff" d="M653.69,-505.71C686.56,-522.55 738.17,-545.99 757.27,-538.11"/>
</g>
<!-- src_rag_rewriter&#45;&gt;src_agent_main -->
<g id="edge40" class="edge">
<title>src_rag_rewriter&#45;&gt;src_agent_main</title><style>.edge>path:hover{stroke-width:8}</style>
<path fill="none" stroke="#ffffff" d="M878.12,-614.11C969.46,-560.47 887.35,-416.24 992.7,-405.11"/>
<path fill="none" stroke="#ffffff" d="M652.08,-507.87C678.26,-524.85 714.87,-548.43 722.04,-552.11 787.68,-585.88 812.46,-651.49 876.12,-614.11"/>
</g>
<!-- tiktoken -->
<g id="node26" class="node">
<title>tiktoken</title><style>.edge>path:hover{stroke-width:8}</style>
<ellipse fill="#b6539d" stroke="#ffffff" cx="69.6" cy="-31.11" rx="30.37" ry="18"/>
<text xml:space="preserve" text-anchor="middle" x="69.6" y="-27.61" font-family="Helvetica,sans-Serif" font-size="10.00" fill="#e0e0e0">tiktoken</text>
</g>
<!-- tiktoken&#45;&gt;src_rag_chunker -->
<g id="edge41" class="edge">
<title>tiktoken&#45;&gt;src_rag_chunker</title><style>.edge>path:hover{stroke-width:8}</style>
<path fill="none" stroke="#ffffff" d="M100.47,-31.11C149.13,-31.11 245.89,-31.11 303.47,-31.11"/>
<polygon fill="#b6539d" stroke="#ffffff" points="303.27,-34.61 313.27,-31.11 303.27,-27.61 303.27,-34.61"/>
</g>
</g>
</svg>

