<?xml version="1.0" encoding="UTF-8" standalone="no"?>
<!DOCTYPE svg PUBLIC "-//W3C//DTD SVG 1.1//EN"
 "http://www.w3.org/Graphics/SVG/1.1/DTD/svg11.dtd">
<!-- Generated by graphviz version 15.0.0 (20260523.1842)
 -->
<!-- Title: G Pages: 1 -->
<svg style="background-color:#141414" width="1413pt" height="781pt"
 viewBox="0.00 0.00 1413.00 781.00" xmlns="http://www.w3.org/2000/svg" xmlns:xlink="http://www.w3.org/1999/xlink">
<g id="graph0" class="graph" transform="scale(1 1) rotate(0) translate(4 777.11)">
<title>G</title><style>.edge>path:hover{stroke-width:8}</style>
<polygon fill="#141414" stroke="none" points="-4,4 -4,-777.11 1409.22,-777.11 1409.22,4 -4,4"/>
<!-- faiss -->
<g id="node1" class="node">
<title>faiss</title><style>.edge>path:hover{stroke-width:8}</style>
<ellipse fill="#d02424" stroke="#ffffff" cx="210.92" cy="-156" rx="27" ry="18"/>
<text xml:space="preserve" text-anchor="middle" x="210.92" y="-152.5" font-family="Helvetica,sans-Serif" font-size="10.00" fill="#e0e0e0">faiss</text>
</g>
<!-- src_rag_agentic_retriever -->
<g id="node21" class="node">
<title>src_rag_agentic_retriever</title><style>.edge>path:hover{stroke-width:8}</style>
<ellipse fill="#442bac" stroke="#ffffff" cx="722.25" cy="-326" rx="62.23" ry="31.11"/>
<text xml:space="preserve" text-anchor="middle" x="722.25" y="-334.5" font-family="Helvetica,sans-Serif" font-size="10.00" fill="#e0e0e0">src.</text>
<text xml:space="preserve" text-anchor="middle" x="722.25" y="-322.5" font-family="Helvetica,sans-Serif" font-size="10.00" fill="#e0e0e0">rag.</text>
<text xml:space="preserve" text-anchor="middle" x="722.25" y="-310.5" font-family="Helvetica,sans-Serif" font-size="10.00" fill="#e0e0e0">agentic_retriever</text>
</g>
<!-- faiss&#45;&gt;src_rag_agentic_retriever -->
<g id="edge1" class="edge">
<title>faiss&#45;&gt;src_rag_agentic_retriever</title><style>.edge>path:hover{stroke-width:8}</style>
<path fill="none" stroke="#ffffff" d="M211.38,-174.3C211.24,-217.52 217.69,-325.87 282.63,-373 398.32,-456.98 578.5,-393.5 667.61,-352.96"/>
<polygon fill="#d02424" stroke="#ffffff" points="669.04,-356.15 676.64,-348.77 666.1,-349.8 669.04,-356.15"/>
</g>
<!-- src_rag_index -->
<g id="node29" class="node">
<title>src_rag_index</title><style>.edge>path:hover{stroke-width:8}</style>
<ellipse fill="#4128a3" stroke="#ffffff" cx="578.78" cy="-150" rx="43.45" ry="18"/>
<text xml:space="preserve" text-anchor="middle" x="578.78" y="-146.5" font-family="Helvetica,sans-Serif" font-size="10.00" fill="#e0e0e0">src.rag.index</text>
</g>
<!-- faiss&#45;&gt;src_rag_index -->
<g id="edge2" class="edge">
<title>faiss&#45;&gt;src_rag_index</title><style>.edge>path:hover{stroke-width:8}</style>
<path fill="none" stroke="#ffffff" d="M238.24,-155.23C281.1,-153.94 368.66,-151.18 442.79,-148"/>
</g>
<!-- src_rag_retriever -->
<g id="node32" class="node">
<title>src_rag_retriever</title><style>.edge>path:hover{stroke-width:8}</style>
<ellipse fill="#4b2fbc" stroke="#ffffff" cx="578.78" cy="-217" rx="36.24" ry="31.11"/>
<text xml:space="preserve" text-anchor="middle" x="578.78" y="-225.5" font-family="Helvetica,sans-Serif" font-size="10.00" fill="#e0e0e0">src.</text>
<text xml:space="preserve" text-anchor="middle" x="578.78" y="-213.5" font-family="Helvetica,sans-Serif" font-size="10.00" fill="#e0e0e0">rag.</text>
<text xml:space="preserve" text-anchor="middle" x="578.78" y="-201.5" font-family="Helvetica,sans-Serif" font-size="10.00" fill="#e0e0e0">retriever</text>
</g>
<!-- faiss&#45;&gt;src_rag_retriever -->
<g id="edge3" class="edge">
<title>faiss&#45;&gt;src_rag_retriever</title><style>.edge>path:hover{stroke-width:8}</style>
<path fill="none" stroke="#ffffff" d="M237.41,-160.19C250.85,-162.35 267.61,-164.94 282.63,-167 353.64,-176.73 371.56,-177.93 442.79,-186"/>
</g>
<!-- flask -->
<g id="node2" class="node">
<title>flask</title><style>.edge>path:hover{stroke-width:8}</style>
<ellipse fill="#c08c40" stroke="#ffffff" cx="318.34" cy="-346" rx="27" ry="18"/>
<text xml:space="preserve" text-anchor="middle" x="318.34" y="-342.5" font-family="Helvetica,sans-Serif" font-size="10.00" fill="#e0e0e0">flask</text>
</g>
<!-- src_rag_api_app -->
<g id="node23" class="node">
<title>src_rag_api_app</title><style>.edge>path:hover{stroke-width:8}</style>
<ellipse fill="#443091" stroke="#ffffff" cx="868.43" cy="-254" rx="27" ry="39.6"/>
<text xml:space="preserve" text-anchor="middle" x="868.43" y="-268.5" font-family="Helvetica,sans-Serif" font-size="10.00" fill="#e0e0e0">src.</text>
<text xml:space="preserve" text-anchor="middle" x="868.43" y="-256.5" font-family="Helvetica,sans-Serif" font-size="10.00" fill="#e0e0e0">rag.</text>
<text xml:space="preserve" text-anchor="middle" x="868.43" y="-244.5" font-family="Helvetica,sans-Serif" font-size="10.00" fill="#e0e0e0">api.</text>
<text xml:space="preserve" text-anchor="middle" x="868.43" y="-232.5" font-family="Helvetica,sans-Serif" font-size="10.00" fill="#e0e0e0">app</text>
</g>
<!-- flask&#45;&gt;src_rag_api_app -->
<g id="edge4" class="edge">
<title>flask&#45;&gt;src_rag_api_app</title><style>.edge>path:hover{stroke-width:8}</style>
<path fill="none" stroke="#ffffff" d="M345.61,-347.2C399.65,-348.78 526.38,-347.83 624.03,-311 670.89,-293.32 671.59,-247.44 721.25,-254"/>
</g>
<!-- numpy -->
<g id="node3" class="node">
<title>numpy</title><style>.edge>path:hover{stroke-width:8}</style>
<ellipse fill="#bde619" stroke="#ffffff" cx="69.6" cy="-141" rx="27.21" ry="18"/>
<text xml:space="preserve" text-anchor="middle" x="69.6" y="-137.5" font-family="Helvetica,sans-Serif" font-size="10.00" fill="#e0e0e0">numpy</text>
</g>
<!-- numpy&#45;&gt;faiss -->
<g id="edge5" class="edge">
<title>numpy&#45;&gt;faiss</title><style>.edge>path:hover{stroke-width:8}</style>
<path fill="none" stroke="#ffffff" d="M96.81,-143.82C118.21,-146.13 148.73,-149.41 172.68,-151.99"/>
<polygon fill="#bde619" stroke="#ffffff" points="172.01,-155.44 182.33,-153.03 172.76,-148.48 172.01,-155.44"/>
</g>
<!-- src_rag_embeddings -->
<g id="node27" class="node">
<title>src_rag_embeddings</title><style>.edge>path:hover{stroke-width:8}</style>
<ellipse fill="#482db4" stroke="#ffffff" cx="443.79" cy="-89" rx="48.44" ry="31.11"/>
<text xml:space="preserve" text-anchor="middle" x="443.79" y="-97.5" font-family="Helvetica,sans-Serif" font-size="10.00" fill="#e0e0e0">src.</text>
<text xml:space="preserve" text-anchor="middle" x="443.79" y="-85.5" font-family="Helvetica,sans-Serif" font-size="10.00" fill="#e0e0e0">rag.</text>
<text xml:space="preserve" text-anchor="middle" x="443.79" y="-73.5" font-family="Helvetica,sans-Serif" font-size="10.00" fill="#e0e0e0">embeddings</text>
</g>
<!-- numpy&#45;&gt;src_rag_embeddings -->
<g id="edge6" class="edge">
<title>numpy&#45;&gt;src_rag_embeddings</title><style>.edge>path:hover{stroke-width:8}</style>
<path fill="none" stroke="#ffffff" d="M319.34,-110C342.11,-112.77 367.09,-109.69 388.58,-105.11"/>
<polygon fill="#bde619" stroke="#ffffff" points="389.37,-108.52 398.32,-102.86 387.79,-101.7 389.37,-108.52"/>
<path fill="none" stroke="#ffffff" d="M95.11,-133.9C139.44,-121.97 235.91,-100.09 317.34,-110"/>
</g>
<!-- numpy&#45;&gt;src_rag_index -->
<g id="edge7" class="edge">
<title>numpy&#45;&gt;src_rag_index</title><style>.edge>path:hover{stroke-width:8}</style>
<path fill="none" stroke="#ffffff" d="M444.79,-148C470.75,-146.73 499.6,-146.96 523.77,-147.62"/>
<polygon fill="#bde619" stroke="#ffffff" points="523.61,-151.12 533.72,-147.93 523.83,-144.12 523.61,-151.12"/>
<path fill="none" stroke="#ffffff" d="M319.34,-110C376.39,-116.32 385.45,-150.81 442.79,-148"/>
</g>
<!-- numpy&#45;&gt;src_rag_retriever -->
<g id="edge8" class="edge">
<title>numpy&#45;&gt;src_rag_retriever</title><style>.edge>path:hover{stroke-width:8}</style>
<path fill="none" stroke="#ffffff" d="M444.79,-186C473.51,-194.45 506.27,-202.11 532.08,-207.7"/>
<polygon fill="#bde619" stroke="#ffffff" points="531.06,-211.06 541.57,-209.72 532.52,-204.21 531.06,-211.06"/>
<path fill="none" stroke="#ffffff" d="M319.34,-110C358.11,-114.3 356.4,-142.26 390.05,-162 412.26,-175.03 418.08,-178.73 442.79,-186"/>
</g>
<!-- openai -->
<g id="node4" class="node">
<title>openai</title><style>.edge>path:hover{stroke-width:8}</style>
<ellipse fill="#59c040" stroke="#ffffff" cx="210.92" cy="-26" rx="27" ry="18"/>
<text xml:space="preserve" text-anchor="middle" x="210.92" y="-22.5" font-family="Helvetica,sans-Serif" font-size="10.00" fill="#e0e0e0">openai</text>
</g>
<!-- src_rag_llm -->
<g id="node30" class="node">
<title>src_rag_llm</title><style>.edge>path:hover{stroke-width:8}</style>
<ellipse fill="#5940c0" stroke="#ffffff" cx="578.78" cy="-96" rx="37.13" ry="18"/>
<text xml:space="preserve" text-anchor="middle" x="578.78" y="-92.5" font-family="Helvetica,sans-Serif" font-size="10.00" fill="#e0e0e0">src.rag.llm</text>
</g>
<!-- openai&#45;&gt;src_rag_llm -->
<g id="edge9" class="edge">
<title>openai&#45;&gt;src_rag_llm</title><style>.edge>path:hover{stroke-width:8}</style>
<path fill="none" stroke="#ffffff" d="M238.26,-24.27C289.52,-21.74 405.71,-20.09 497.53,-49 515.54,-54.67 533.85,-64.98 548.43,-74.5"/>
<polygon fill="#59c040" stroke="#ffffff" points="546.37,-77.33 556.62,-80.04 550.3,-71.54 546.37,-77.33"/>
</g>
<!-- pytest -->
<g id="node5" class="node">
<title>pytest</title><style>.edge>path:hover{stroke-width:8}</style>
<ellipse fill="#53b67b" stroke="#ffffff" cx="69.6" cy="-72" rx="27" ry="18"/>
<text xml:space="preserve" text-anchor="middle" x="69.6" y="-68.5" font-family="Helvetica,sans-Serif" font-size="10.00" fill="#e0e0e0">pytest</text>
</g>
<!-- pytest&#45;&gt;src_rag_embeddings -->
<g id="edge10" class="edge">
<title>pytest&#45;&gt;src_rag_embeddings</title><style>.edge>path:hover{stroke-width:8}</style>
<path fill="none" stroke="#ffffff" d="M96.86,-70.53C124.92,-69.3 170.67,-68.28 209.92,-72"/>
</g>
<!-- requests -->
<g id="node6" class="node">
<title>requests</title><style>.edge>path:hover{stroke-width:8}</style>
<ellipse fill="#33cccc" stroke="#ffffff" cx="69.6" cy="-430" rx="32.17" ry="18"/>
<text xml:space="preserve" text-anchor="middle" x="69.6" y="-426.5" font-family="Helvetica,sans-Serif" font-size="10.00" fill="#e0e0e0">requests</text>
</g>
<!-- src_mcp_client_mcp_client -->
<g id="node18" class="node">
<title>src_mcp_client_mcp_client</title><style>.edge>path:hover{stroke-width:8}</style>
<ellipse fill="#4e31c4" stroke="#ffffff" cx="722.25" cy="-409" rx="46.85" ry="31.11"/>
<text xml:space="preserve" text-anchor="middle" x="722.25" y="-417.5" font-family="Helvetica,sans-Serif" font-size="10.00" fill="#e0e0e0">src.</text>
<text xml:space="preserve" text-anchor="middle" x="722.25" y="-405.5" font-family="Helvetica,sans-Serif" font-size="10.00" fill="#e0e0e0">mcp_client.</text>
<text xml:space="preserve" text-anchor="middle" x="722.25" y="-393.5" font-family="Helvetica,sans-Serif" font-size="10.00" fill="#e0e0e0">mcp_client</text>
</g>
<!-- requests&#45;&gt;src_mcp_client_mcp_client -->
<g id="edge11" class="edge">
<title>requests&#45;&gt;src_mcp_client_mcp_client</title><style>.edge>path:hover{stroke-width:8}</style>
<path fill="none" stroke="#ffffff" d="M102.15,-430C149.07,-430 240.02,-430 317.34,-430 317.34,-430 317.34,-430 444.79,-430 520.96,-430 608.6,-421.98 664.42,-415.85"/>
<polygon fill="#33cccc" stroke="#ffffff" points="664.78,-419.33 674.33,-414.74 664,-412.37 664.78,-419.33"/>
</g>
<!-- src_rag_api_llm -->
<g id="node24" class="node">
<title>src_rag_api_llm</title><style>.edge>path:hover{stroke-width:8}</style>
<ellipse fill="#4724d0" stroke="#ffffff" cx="578.78" cy="-536" rx="27" ry="39.6"/>
<text xml:space="preserve" text-anchor="middle" x="578.78" y="-550.5" font-family="Helvetica,sans-Serif" font-size="10.00" fill="#e0e0e0">src.</text>
<text xml:space="preserve" text-anchor="middle" x="578.78" y="-538.5" font-family="Helvetica,sans-Serif" font-size="10.00" fill="#e0e0e0">rag.</text>
<text xml:space="preserve" text-anchor="middle" x="578.78" y="-526.5" font-family="Helvetica,sans-Serif" font-size="10.00" fill="#e0e0e0">api.</text>
<text xml:space="preserve" text-anchor="middle" x="578.78" y="-514.5" font-family="Helvetica,sans-Serif" font-size="10.00" fill="#e0e0e0">llm</text>
</g>
<!-- requests&#45;&gt;src_rag_api_llm -->
<g id="edge12" class="edge">
<title>requests&#45;&gt;src_rag_api_llm</title><style>.edge>path:hover{stroke-width:8}</style>
<path fill="none" stroke="#ffffff" d="M100.06,-436.16C187.23,-454.38 443.79,-508 540.41,-528.19"/>
<polygon fill="#33cccc" stroke="#ffffff" points="539.65,-531.61 550.15,-530.23 541.08,-524.76 539.65,-531.61"/>
</g>
<!-- sentence_transformers -->
<g id="node7" class="node">
<title>sentence_transformers</title><style>.edge>path:hover{stroke-width:8}</style>
<ellipse fill="#4073c0" stroke="#ffffff" cx="69.6" cy="-18" rx="69.6" ry="18"/>
<text xml:space="preserve" text-anchor="middle" x="69.6" y="-14.5" font-family="Helvetica,sans-Serif" font-size="10.00" fill="#e0e0e0">sentence_transformers</text>
</g>
<!-- sentence_transformers&#45;&gt;src_rag_embeddings -->
<g id="edge13" class="edge">
<title>sentence_transformers&#45;&gt;src_rag_embeddings</title><style>.edge>path:hover{stroke-width:8}</style>
<path fill="none" stroke="#ffffff" d="M211.92,-72C270.38,-77.53 337.32,-82.29 384.01,-85.35"/>
<polygon fill="#4073c0" stroke="#ffffff" points="383.71,-88.84 393.92,-86 384.16,-81.85 383.71,-88.84"/>
<path fill="none" stroke="#ffffff" d="M109.17,-33.2C149.47,-49.04 207.25,-71.64 209.92,-72"/>
</g>
<!-- src_agent -->
<g id="node8" class="node">
<title>src_agent</title><style>.edge>path:hover{stroke-width:8}</style>
<ellipse fill="#583bce" stroke="#ffffff" cx="1228.56" cy="-633" rx="33.98" ry="18"/>
<text xml:space="preserve" text-anchor="middle" x="1228.56" y="-629.5" font-family="Helvetica,sans-Serif" font-size="10.00" fill="#e0e0e0">src.agent</text>
</g>
<!-- src_agent_runner -->
<g id="node11" class="node">
<title>src_agent_runner</title><style>.edge>path:hover{stroke-width:8}</style>
<ellipse fill="#3a2e6b" stroke="#ffffff" cx="1354.14" cy="-579" rx="51.09" ry="22.63"/>
<text xml:space="preserve" text-anchor="middle" x="1354.14" y="-581.5" font-family="Helvetica,sans-Serif" font-size="10.00" fill="#e0e0e0">src.</text>
<text xml:space="preserve" text-anchor="middle" x="1354.14" y="-569.5" font-family="Helvetica,sans-Serif" font-size="10.00" fill="#e0e0e0">agent_runner</text>
</g>
<!-- src_agent&#45;&gt;src_agent_runner -->
<g id="edge14" class="edge">
<title>src_agent&#45;&gt;src_agent_runner</title><style>.edge>path:hover{stroke-width:8}</style>
<path fill="none" stroke="#ffffff" d="M1255.47,-621.68C1270.24,-615.23 1289.19,-606.94 1306.47,-599.39"/>
<polygon fill="#583bce" stroke="#ffffff" points="1307.81,-602.63 1315.57,-595.42 1305,-596.21 1307.81,-602.63"/>
</g>
<!-- src_agent_loop -->
<g id="node9" class="node">
<title>src_agent_loop</title><style>.edge>path:hover{stroke-width:8}</style>
<ellipse fill="#352673" stroke="#ffffff" cx="1107.47" cy="-533" rx="46.6" ry="18"/>
<text xml:space="preserve" text-anchor="middle" x="1107.47" y="-529.5" font-family="Helvetica,sans-Serif" font-size="10.00" fill="#e0e0e0">src.agent.loop</text>
</g>
<!-- src_agent_loop&#45;&gt;src_agent_runner -->
<g id="edge15" class="edge">
<title>src_agent_loop&#45;&gt;src_agent_runner</title><style>.edge>path:hover{stroke-width:8}</style>
<path fill="none" stroke="#ffffff" d="M1152.25,-527.35C1175.11,-525.8 1203.29,-526.13 1227.56,-533"/>
</g>
<!-- src_agent_prompts -->
<g id="node10" class="node">
<title>src_agent_prompts</title><style>.edge>path:hover{stroke-width:8}</style>
<ellipse fill="#6047c2" stroke="#ffffff" cx="988.63" cy="-489" rx="36.24" ry="31.11"/>
<text xml:space="preserve" text-anchor="middle" x="988.63" y="-497.5" font-family="Helvetica,sans-Serif" font-size="10.00" fill="#e0e0e0">src.</text>
<text xml:space="preserve" text-anchor="middle" x="988.63" y="-485.5" font-family="Helvetica,sans-Serif" font-size="10.00" fill="#e0e0e0">agent.</text>
<text xml:space="preserve" text-anchor="middle" x="988.63" y="-473.5" font-family="Helvetica,sans-Serif" font-size="10.00" fill="#e0e0e0">prompts</text>
</g>
<!-- src_agent_prompts&#45;&gt;src_agent_loop -->
<g id="edge16" class="edge">
<title>src_agent_prompts&#45;&gt;src_agent_loop</title><style>.edge>path:hover{stroke-width:8}</style>
<path fill="none" stroke="#ffffff" d="M1022.18,-501.26C1034.75,-505.99 1049.33,-511.48 1062.79,-516.55"/>
<polygon fill="#6047c2" stroke="#ffffff" points="1061.28,-519.72 1071.87,-519.97 1063.75,-513.17 1061.28,-519.72"/>
</g>
<!-- src_helpers -->
<g id="node12" class="node">
<title>src_helpers</title><style>.edge>path:hover{stroke-width:8}</style>
<ellipse fill="#512fdb" stroke="#ffffff" cx="1228.56" cy="-579" rx="38.49" ry="18"/>
<text xml:space="preserve" text-anchor="middle" x="1228.56" y="-575.5" font-family="Helvetica,sans-Serif" font-size="10.00" fill="#e0e0e0">src.helpers</text>
</g>
<!-- src_helpers&#45;&gt;src_agent_runner -->
<g id="edge17" class="edge">
<title>src_helpers&#45;&gt;src_agent_runner</title><style>.edge>path:hover{stroke-width:8}</style>
<path fill="none" stroke="#ffffff" d="M1267.31,-579C1275.02,-579 1283.32,-579 1291.62,-579"/>
<polygon fill="#512fdb" stroke="#ffffff" points="1291.36,-582.5 1301.36,-579 1291.36,-575.5 1291.36,-582.5"/>
</g>
<!-- src_helpers_config -->
<g id="node13" class="node">
<title>src_helpers_config</title><style>.edge>path:hover{stroke-width:8}</style>
<ellipse fill="#583bce" stroke="#ffffff" cx="318.34" cy="-742" rx="35.71" ry="31.11"/>
<text xml:space="preserve" text-anchor="middle" x="318.34" y="-750.5" font-family="Helvetica,sans-Serif" font-size="10.00" fill="#e0e0e0">src.</text>
<text xml:space="preserve" text-anchor="middle" x="318.34" y="-738.5" font-family="Helvetica,sans-Serif" font-size="10.00" fill="#e0e0e0">helpers.</text>
<text xml:space="preserve" text-anchor="middle" x="318.34" y="-726.5" font-family="Helvetica,sans-Serif" font-size="10.00" fill="#e0e0e0">config</text>
</g>
<!-- src_helpers_logging_setup -->
<g id="node16" class="node">
<title>src_helpers_logging_setup</title><style>.edge>path:hover{stroke-width:8}</style>
<ellipse fill="#4b35a1" stroke="#ffffff" cx="443.79" cy="-683" rx="53.74" ry="31.11"/>
<text xml:space="preserve" text-anchor="middle" x="443.79" y="-691.5" font-family="Helvetica,sans-Serif" font-size="10.00" fill="#e0e0e0">src.</text>
<text xml:space="preserve" text-anchor="middle" x="443.79" y="-679.5" font-family="Helvetica,sans-Serif" font-size="10.00" fill="#e0e0e0">helpers.</text>
<text xml:space="preserve" text-anchor="middle" x="443.79" y="-667.5" font-family="Helvetica,sans-Serif" font-size="10.00" fill="#e0e0e0">logging_setup</text>
</g>
<!-- src_helpers_config&#45;&gt;src_helpers_logging_setup -->
<g id="edge18" class="edge">
<title>src_helpers_config&#45;&gt;src_helpers_logging_setup</title><style>.edge>path:hover{stroke-width:8}</style>
<path fill="none" stroke="#ffffff" d="M350.17,-727.26C362.7,-721.28 377.51,-714.2 391.58,-707.47"/>
<polygon fill="#583bce" stroke="#ffffff" points="392.76,-710.79 400.28,-703.32 389.75,-704.47 392.76,-710.79"/>
</g>
<!-- src_helpers_config_config -->
<g id="node14" class="node">
<title>src_helpers_config_config</title><style>.edge>path:hover{stroke-width:8}</style>
<ellipse fill="#4e38a8" stroke="#ffffff" cx="210.92" cy="-692" rx="35.71" ry="39.6"/>
<text xml:space="preserve" text-anchor="middle" x="210.92" y="-706.5" font-family="Helvetica,sans-Serif" font-size="10.00" fill="#e0e0e0">src.</text>
<text xml:space="preserve" text-anchor="middle" x="210.92" y="-694.5" font-family="Helvetica,sans-Serif" font-size="10.00" fill="#e0e0e0">helpers.</text>
<text xml:space="preserve" text-anchor="middle" x="210.92" y="-682.5" font-family="Helvetica,sans-Serif" font-size="10.00" fill="#e0e0e0">config.</text>
<text xml:space="preserve" text-anchor="middle" x="210.92" y="-670.5" font-family="Helvetica,sans-Serif" font-size="10.00" fill="#e0e0e0">config</text>
</g>
<!-- src_helpers_config_config&#45;&gt;src_helpers_logging_setup -->
<g id="edge19" class="edge">
<title>src_helpers_config_config&#45;&gt;src_helpers_logging_setup</title><style>.edge>path:hover{stroke-width:8}</style>
<path fill="none" stroke="#ffffff" d="M246.98,-690.63C281.76,-689.28 335.87,-687.17 378.39,-685.51"/>
<polygon fill="#4e38a8" stroke="#ffffff" points="378.41,-689.01 388.26,-685.13 378.14,-682.02 378.41,-689.01"/>
</g>
<!-- src_helpers_config_env_loader_mixin -->
<g id="node15" class="node">
<title>src_helpers_config_env_loader_mixin</title><style>.edge>path:hover{stroke-width:8}</style>
<ellipse fill="#6047c2" stroke="#ffffff" cx="69.6" cy="-692" rx="64.88" ry="39.6"/>
<text xml:space="preserve" text-anchor="middle" x="69.6" y="-706.5" font-family="Helvetica,sans-Serif" font-size="10.00" fill="#e0e0e0">src.</text>
<text xml:space="preserve" text-anchor="middle" x="69.6" y="-694.5" font-family="Helvetica,sans-Serif" font-size="10.00" fill="#e0e0e0">helpers.</text>
<text xml:space="preserve" text-anchor="middle" x="69.6" y="-682.5" font-family="Helvetica,sans-Serif" font-size="10.00" fill="#e0e0e0">config.</text>
<text xml:space="preserve" text-anchor="middle" x="69.6" y="-670.5" font-family="Helvetica,sans-Serif" font-size="10.00" fill="#e0e0e0">env_loader_mixin</text>
</g>
<!-- src_helpers_config_env_loader_mixin&#45;&gt;src_helpers_config_config -->
<g id="edge20" class="edge">
<title>src_helpers_config_env_loader_mixin&#45;&gt;src_helpers_config_config</title><style>.edge>path:hover{stroke-width:8}</style>
<path fill="none" stroke="#ffffff" d="M134.96,-692C144.59,-692 154.35,-692 163.5,-692"/>
<polygon fill="#6047c2" stroke="#ffffff" points="163.21,-695.5 173.21,-692 163.21,-688.5 163.21,-695.5"/>
</g>
<!-- src_helpers_logging_setup&#45;&gt;src_agent_runner -->
<g id="edge21" class="edge">
<title>src_helpers_logging_setup&#45;&gt;src_agent_runner</title><style>.edge>path:hover{stroke-width:8}</style>
<path fill="none" stroke="#ffffff" d="M492.73,-696.26C570.86,-716.39 730.69,-751.38 867.43,-742"/>
</g>
<!-- src_mcp_client -->
<g id="node17" class="node">
<title>src_mcp_client</title><style>.edge>path:hover{stroke-width:8}</style>
<ellipse fill="#583bce" stroke="#ffffff" cx="868.43" cy="-368" rx="47.96" ry="18"/>
<text xml:space="preserve" text-anchor="middle" x="868.43" y="-364.5" font-family="Helvetica,sans-Serif" font-size="10.00" fill="#e0e0e0">src.mcp_client</text>
</g>
<!-- src_mcp_client&#45;&gt;src_agent_loop -->
<g id="edge22" class="edge">
<title>src_mcp_client&#45;&gt;src_agent_loop</title><style>.edge>path:hover{stroke-width:8}</style>
<path fill="none" stroke="#ffffff" d="M895.68,-383.12C924.53,-399.49 969.21,-424.07 987.63,-430"/>
<path fill="none" stroke="#ffffff" d="M989.63,-430C1031.13,-443.36 1066.69,-480.73 1087.34,-506.58"/>
<polygon fill="#583bce" stroke="#ffffff" points="1084.45,-508.56 1093.33,-514.32 1089.98,-504.27 1084.45,-508.56"/>
</g>
<!-- src_mcp_client&#45;&gt;src_agent_runner -->
<g id="edge23" class="edge">
<title>src_mcp_client&#45;&gt;src_agent_runner</title><style>.edge>path:hover{stroke-width:8}</style>
<path fill="none" stroke="#ffffff" d="M916.88,-368.24C938.47,-368.29 964.34,-368.26 987.63,-368"/>
</g>
<!-- src_mcp_client_mcp_client&#45;&gt;src_agent_loop -->
<g id="edge24" class="edge">
<title>src_mcp_client_mcp_client&#45;&gt;src_agent_loop</title><style>.edge>path:hover{stroke-width:8}</style>
<path fill="none" stroke="#ffffff" d="M756.97,-430.16C785.25,-446.06 827.35,-465.52 867.43,-468"/>
</g>
<!-- src_mcp_client_mcp_client&#45;&gt;src_agent_runner -->
<g id="edge25" class="edge">
<title>src_mcp_client_mcp_client&#45;&gt;src_agent_runner</title><style>.edge>path:hover{stroke-width:8}</style>
<path fill="none" stroke="#ffffff" d="M755.36,-386.42C783,-367 818.71,-341.96 820.48,-341 840.26,-330.26 844.93,-321.28 867.43,-322"/>
</g>
<!-- src_mcp_client_mcp_server -->
<g id="node19" class="node">
<title>src_mcp_client_mcp_server</title><style>.edge>path:hover{stroke-width:8}</style>
<ellipse fill="#614cb3" stroke="#ffffff" cx="443.79" cy="-565" rx="47.38" ry="31.11"/>
<text xml:space="preserve" text-anchor="middle" x="443.79" y="-573.5" font-family="Helvetica,sans-Serif" font-size="10.00" fill="#e0e0e0">src.</text>
<text xml:space="preserve" text-anchor="middle" x="443.79" y="-561.5" font-family="Helvetica,sans-Serif" font-size="10.00" fill="#e0e0e0">mcp_client.</text>
<text xml:space="preserve" text-anchor="middle" x="443.79" y="-549.5" font-family="Helvetica,sans-Serif" font-size="10.00" fill="#e0e0e0">mcp_server</text>
</g>
<!-- src_rag -->
<g id="node20" class="node">
<title>src_rag</title><style>.edge>path:hover{stroke-width:8}</style>
<ellipse fill="#3f10f9" stroke="#ffffff" cx="868.43" cy="-422" rx="27.66" ry="18"/>
<text xml:space="preserve" text-anchor="middle" x="868.43" y="-418.5" font-family="Helvetica,sans-Serif" font-size="10.00" fill="#e0e0e0">src.rag</text>
</g>
<!-- src_rag&#45;&gt;src_agent_loop -->
<g id="edge26" class="edge">
<title>src_rag&#45;&gt;src_agent_loop</title><style>.edge>path:hover{stroke-width:8}</style>
<path fill="none" stroke="#ffffff" d="M896.41,-420.18C920.83,-419.37 957.48,-420.29 987.63,-430"/>
</g>
<!-- src_rag&#45;&gt;src_agent_runner -->
<g id="edge27" class="edge">
<title>src_rag&#45;&gt;src_agent_runner</title><style>.edge>path:hover{stroke-width:8}</style>
<path fill="none" stroke="#ffffff" d="M889.6,-410.34C917.7,-394.54 967.44,-368.22 987.63,-368"/>
</g>
<!-- src_rag_agentic_retriever&#45;&gt;src_agent_loop -->
<g id="edge28" class="edge">
<title>src_rag_agentic_retriever&#45;&gt;src_agent_loop</title><style>.edge>path:hover{stroke-width:8}</style>
<path fill="none" stroke="#ffffff" d="M869.43,-468C924.51,-471.41 935.1,-413.09 987.63,-430"/>
<path fill="none" stroke="#ffffff" d="M763.44,-349.54C771.07,-355.24 778.52,-361.79 784.48,-369 809.32,-399.05 792.38,-421.96 820.48,-449 836.7,-464.61 844.96,-466.61 867.43,-468"/>
</g>
<!-- src_rag_agentic_retriever&#45;&gt;src_agent_runner -->
<g id="edge29" class="edge">
<title>src_rag_agentic_retriever&#45;&gt;src_agent_runner</title><style>.edge>path:hover{stroke-width:8}</style>
<path fill="none" stroke="#ffffff" d="M869.43,-322C925.78,-323.8 931.26,-368.63 987.63,-368"/>
<path fill="none" stroke="#ffffff" d="M989.63,-368C1041.56,-367.42 1070.13,-330.91 1106.47,-368"/>
<path fill="none" stroke="#ffffff" d="M784.29,-322.7C809.96,-321.73 840.15,-321.13 867.43,-322"/>
</g>
<!-- src_rag_api -->
<g id="node22" class="node">
<title>src_rag_api</title><style>.edge>path:hover{stroke-width:8}</style>
<ellipse fill="#4a22e7" stroke="#ffffff" cx="722.25" cy="-565" rx="37.13" ry="18"/>
<text xml:space="preserve" text-anchor="middle" x="722.25" y="-561.5" font-family="Helvetica,sans-Serif" font-size="10.00" fill="#e0e0e0">src.rag.api</text>
</g>
<!-- src_rag_api&#45;&gt;src_agent_loop -->
<g id="edge30" class="edge">
<title>src_rag_api&#45;&gt;src_agent_loop</title><style>.edge>path:hover{stroke-width:8}</style>
<path fill="none" stroke="#ffffff" d="M749.13,-552.07C777.47,-538.47 824.59,-517.49 867.43,-506"/>
<path fill="none" stroke="#ffffff" d="M869.43,-506C892.07,-499.93 897.14,-495.37 916.39,-482 934.22,-469.62 934.7,-461.58 952.39,-449 966.89,-438.69 970.69,-424.55 987.63,-430"/>
</g>
<!-- src_rag_api&#45;&gt;src_agent_runner -->
<g id="edge31" class="edge">
<title>src_rag_api&#45;&gt;src_agent_runner</title><style>.edge>path:hover{stroke-width:8}</style>
<path fill="none" stroke="#ffffff" d="M1108.47,-624C1171.66,-602.9 1163.47,-514.84 1227.56,-533"/>
<path fill="none" stroke="#ffffff" d="M869.43,-506C878.37,-503.6 951.23,-532.9 1024.87,-572 1062.85,-592.17 1065.68,-637.62 1106.47,-624"/>
</g>
<!-- src_rag_rewriter -->
<g id="node33" class="node">
<title>src_rag_rewriter</title><style>.edge>path:hover{stroke-width:8}</style>
<ellipse fill="#442bac" stroke="#ffffff" cx="868.43" cy="-565" rx="34.12" ry="31.11"/>
<text xml:space="preserve" text-anchor="middle" x="868.43" y="-573.5" font-family="Helvetica,sans-Serif" font-size="10.00" fill="#e0e0e0">src.</text>
<text xml:space="preserve" text-anchor="middle" x="868.43" y="-561.5" font-family="Helvetica,sans-Serif" font-size="10.00" fill="#e0e0e0">rag.</text>
<text xml:space="preserve" text-anchor="middle" x="868.43" y="-549.5" font-family="Helvetica,sans-Serif" font-size="10.00" fill="#e0e0e0">rewriter</text>
</g>
<!-- src_rag_api&#45;&gt;src_rag_rewriter -->
<g id="edge32" class="edge">
<title>src_rag_api&#45;&gt;src_rag_rewriter</title><style>.edge>path:hover{stroke-width:8}</style>
<path fill="none" stroke="#ffffff" d="M759.64,-565C778.74,-565 802.33,-565 822.56,-565"/>
<polygon fill="#4a22e7" stroke="#ffffff" points="822.51,-568.5 832.51,-565 822.51,-561.5 822.51,-568.5"/>
</g>
<!-- src_rag_api_server -->
<g id="node25" class="node">
<title>src_rag_api_server</title><style>.edge>path:hover{stroke-width:8}</style>
<ellipse fill="#55439d" stroke="#ffffff" cx="988.63" cy="-254" rx="30.41" ry="39.6"/>
<text xml:space="preserve" text-anchor="middle" x="988.63" y="-268.5" font-family="Helvetica,sans-Serif" font-size="10.00" fill="#e0e0e0">src.</text>
<text xml:space="preserve" text-anchor="middle" x="988.63" y="-256.5" font-family="Helvetica,sans-Serif" font-size="10.00" fill="#e0e0e0">rag.</text>
<text xml:space="preserve" text-anchor="middle" x="988.63" y="-244.5" font-family="Helvetica,sans-Serif" font-size="10.00" fill="#e0e0e0">api.</text>
<text xml:space="preserve" text-anchor="middle" x="988.63" y="-232.5" font-family="Helvetica,sans-Serif" font-size="10.00" fill="#e0e0e0">server</text>
</g>
<!-- src_rag_api_app&#45;&gt;src_rag_api_server -->
<g id="edge33" class="edge">
<title>src_rag_api_app&#45;&gt;src_rag_api_server</title><style>.edge>path:hover{stroke-width:8}</style>
<path fill="none" stroke="#ffffff" d="M895.67,-254C910.7,-254 929.89,-254 946.84,-254"/>
<polygon fill="#443091" stroke="#ffffff" points="946.63,-257.5 956.63,-254 946.63,-250.5 946.63,-257.5"/>
</g>
<!-- src_rag_api_llm&#45;&gt;src_agent_loop -->
<g id="edge34" class="edge">
<title>src_rag_api_llm&#45;&gt;src_agent_loop</title><style>.edge>path:hover{stroke-width:8}</style>
<path fill="none" stroke="#ffffff" d="M603.28,-518.64C630.17,-500.28 676.32,-473.25 721.25,-468"/>
</g>
<!-- src_rag_api_llm&#45;&gt;src_agent_runner -->
<g id="edge35" class="edge">
<title>src_rag_api_llm&#45;&gt;src_agent_runner</title><style>.edge>path:hover{stroke-width:8}</style>
<path fill="none" stroke="#ffffff" d="M723.25,-624C807.1,-638.87 1025.84,-651.39 1106.47,-624"/>
</g>
<!-- src_rag_api_llm&#45;&gt;src_rag_rewriter -->
<g id="edge36" class="edge">
<title>src_rag_api_llm&#45;&gt;src_rag_rewriter</title><style>.edge>path:hover{stroke-width:8}</style>
<path fill="none" stroke="#ffffff" d="M723.25,-624C762.44,-630.95 804.21,-610.42 832.66,-591.7"/>
<polygon fill="#4724d0" stroke="#ffffff" points="834.62,-594.6 840.88,-586.06 830.66,-588.82 834.62,-594.6"/>
<path fill="none" stroke="#ffffff" d="M601.94,-557.45C627.98,-580.69 673.69,-615.56 721.25,-624"/>
</g>
<!-- src_rag_chunker -->
<g id="node26" class="node">
<title>src_rag_chunker</title><style>.edge>path:hover{stroke-width:8}</style>
<ellipse fill="#5940c0" stroke="#ffffff" cx="443.79" cy="-284" rx="35.71" ry="31.11"/>
<text xml:space="preserve" text-anchor="middle" x="443.79" y="-292.5" font-family="Helvetica,sans-Serif" font-size="10.00" fill="#e0e0e0">src.</text>
<text xml:space="preserve" text-anchor="middle" x="443.79" y="-280.5" font-family="Helvetica,sans-Serif" font-size="10.00" fill="#e0e0e0">rag.</text>
<text xml:space="preserve" text-anchor="middle" x="443.79" y="-268.5" font-family="Helvetica,sans-Serif" font-size="10.00" fill="#e0e0e0">chunker</text>
</g>
<!-- src_rag_loader -->
<g id="node31" class="node">
<title>src_rag_loader</title><style>.edge>path:hover{stroke-width:8}</style>
<ellipse fill="#5940c0" stroke="#ffffff" cx="578.78" cy="-284" rx="45.25" ry="18"/>
<text xml:space="preserve" text-anchor="middle" x="578.78" y="-280.5" font-family="Helvetica,sans-Serif" font-size="10.00" fill="#e0e0e0">src.rag.loader</text>
</g>
<!-- src_rag_chunker&#45;&gt;src_rag_loader -->
<g id="edge37" class="edge">
<title>src_rag_chunker&#45;&gt;src_rag_loader</title><style>.edge>path:hover{stroke-width:8}</style>
<path fill="none" stroke="#ffffff" d="M479.73,-284C492.6,-284 507.53,-284 521.79,-284"/>
<polygon fill="#5940c0" stroke="#ffffff" points="521.53,-287.5 531.53,-284 521.53,-280.5 521.53,-287.5"/>
</g>
<!-- src_rag_embeddings&#45;&gt;src_rag_index -->
<g id="edge38" class="edge">
<title>src_rag_embeddings&#45;&gt;src_rag_index</title><style>.edge>path:hover{stroke-width:8}</style>
<path fill="none" stroke="#ffffff" d="M483.97,-106.97C501.1,-114.83 521.16,-124.03 538.32,-131.9"/>
<polygon fill="#482db4" stroke="#ffffff" points="536.66,-134.99 547.2,-135.98 539.57,-128.63 536.66,-134.99"/>
</g>
<!-- src_rag_embeddings&#45;&gt;src_rag_retriever -->
<g id="edge39" class="edge">
<title>src_rag_embeddings&#45;&gt;src_rag_retriever</title><style>.edge>path:hover{stroke-width:8}</style>
<path fill="none" stroke="#ffffff" d="M470.49,-115.12C488.04,-132.8 511.94,-156.56 533.53,-177 536.99,-180.28 540.65,-183.68 544.31,-187.05"/>
<polygon fill="#482db4" stroke="#ffffff" points="541.92,-189.6 551.66,-193.75 546.63,-184.43 541.92,-189.6"/>
</g>
<!-- src_rag_evaluator -->
<g id="node28" class="node">
<title>src_rag_evaluator</title><style>.edge>path:hover{stroke-width:8}</style>
<ellipse fill="#5133cc" stroke="#ffffff" cx="868.43" cy="-683" rx="39.42" ry="31.11"/>
<text xml:space="preserve" text-anchor="middle" x="868.43" y="-691.5" font-family="Helvetica,sans-Serif" font-size="10.00" fill="#e0e0e0">src.</text>
<text xml:space="preserve" text-anchor="middle" x="868.43" y="-679.5" font-family="Helvetica,sans-Serif" font-size="10.00" fill="#e0e0e0">rag.</text>
<text xml:space="preserve" text-anchor="middle" x="868.43" y="-667.5" font-family="Helvetica,sans-Serif" font-size="10.00" fill="#e0e0e0">evaluator</text>
</g>
<!-- src_rag_evaluator&#45;&gt;src_agent_loop -->
<g id="edge40" class="edge">
<title>src_rag_evaluator&#45;&gt;src_agent_loop</title><style>.edge>path:hover{stroke-width:8}</style>
<path fill="none" stroke="#ffffff" d="M989.63,-662C1036.99,-642.38 1072.89,-592.12 1091.72,-560.44"/>
<polygon fill="#5133cc" stroke="#ffffff" points="1094.52,-562.59 1096.47,-552.18 1088.45,-559.1 1094.52,-562.59"/>
<path fill="none" stroke="#ffffff" d="M908.14,-680.37C931.82,-677.74 962.31,-672.49 987.63,-662"/>
</g>
<!-- src_rag_evaluator&#45;&gt;src_agent_runner -->
<g id="edge41" class="edge">
<title>src_rag_evaluator&#45;&gt;src_agent_runner</title><style>.edge>path:hover{stroke-width:8}</style>
<path fill="none" stroke="#ffffff" d="M989.63,-662C1040.08,-641.1 1054.68,-641.29 1106.47,-624"/>
</g>
<!-- src_rag_index&#45;&gt;src_agent_runner -->
<g id="edge42" class="edge">
<title>src_rag_index&#45;&gt;src_agent_runner</title><style>.edge>path:hover{stroke-width:8}</style>
<path fill="none" stroke="#ffffff" d="M1229.56,-533C1255.14,-540.24 1282.93,-550.38 1305.67,-559.29"/>
<polygon fill="#4128a3" stroke="#ffffff" points="1304.08,-562.43 1314.66,-562.86 1306.66,-555.92 1304.08,-562.43"/>
<path fill="none" stroke="#ffffff" d="M1108.47,-368C1171.77,-432.6 1140.55,-508.35 1227.56,-533"/>
<path fill="none" stroke="#ffffff" d="M619.52,-143.36C703.04,-131.69 899.41,-116.42 1024.87,-205 1091.05,-251.73 1049.77,-310.13 1106.47,-368"/>
</g>
<!-- src_rag_index&#45;&gt;src_rag_api_app -->
<g id="edge43" class="edge">
<title>src_rag_index&#45;&gt;src_rag_api_app</title><style>.edge>path:hover{stroke-width:8}</style>
<path fill="none" stroke="#ffffff" d="M604.93,-164.61C611.26,-168.49 617.97,-172.78 624.03,-177 669.24,-208.52 666.61,-246.78 721.25,-254"/>
</g>
<!-- src_rag_llm&#45;&gt;src_rag_api_app -->
<g id="edge44" class="edge">
<title>src_rag_llm&#45;&gt;src_rag_api_app</title><style>.edge>path:hover{stroke-width:8}</style>
<path fill="none" stroke="#ffffff" d="M604.84,-109C611.44,-113.02 618.31,-117.78 624.03,-123 677.57,-171.89 649.37,-244.5 721.25,-254"/>
<path fill="none" stroke="#ffffff" d="M723.25,-254C759.13,-258.74 800.47,-258.13 829.66,-256.69"/>
<polygon fill="#5940c0" stroke="#ffffff" points="829.69,-260.2 839.48,-256.15 829.3,-253.21 829.69,-260.2"/>
</g>
<!-- src_rag_loader&#45;&gt;src_rag_api_app -->
<g id="edge45" class="edge">
<title>src_rag_loader&#45;&gt;src_rag_api_app</title><style>.edge>path:hover{stroke-width:8}</style>
<path fill="none" stroke="#ffffff" d="M611.28,-270.99C639.79,-260.74 683.04,-248.95 721.25,-254"/>
</g>
<!-- src_rag_retriever&#45;&gt;src_rag_agentic_retriever -->
<g id="edge46" class="edge">
<title>src_rag_retriever&#45;&gt;src_rag_agentic_retriever</title><style>.edge>path:hover{stroke-width:8}</style>
<path fill="none" stroke="#ffffff" d="M606.39,-237.5C626.6,-253.07 654.81,-274.81 678.21,-292.84"/>
<polygon fill="#4b2fbc" stroke="#ffffff" points="675.99,-295.55 686.05,-298.88 680.27,-290 675.99,-295.55"/>
</g>
<!-- src_rag_retriever&#45;&gt;src_rag_api_app -->
<g id="edge47" class="edge">
<title>src_rag_retriever&#45;&gt;src_rag_api_app</title><style>.edge>path:hover{stroke-width:8}</style>
<path fill="none" stroke="#ffffff" d="M613.04,-228.21C641.42,-237.16 683.5,-249.01 721.25,-254"/>
</g>
<!-- src_rag_rewriter&#45;&gt;src_agent_loop -->
<g id="edge48" class="edge">
<title>src_rag_rewriter&#45;&gt;src_agent_loop</title><style>.edge>path:hover{stroke-width:8}</style>
<path fill="none" stroke="#ffffff" d="M989.63,-586C1021.4,-587.75 1054.1,-571.04 1076.8,-555.93"/>
<polygon fill="#442bac" stroke="#ffffff" points="1078.73,-558.85 1084.94,-550.26 1074.73,-553.1 1078.73,-558.85"/>
<path fill="none" stroke="#ffffff" d="M901.8,-572.93C925.41,-578.18 958.29,-584.39 987.63,-586"/>
</g>
<!-- src_rag_rewriter&#45;&gt;src_agent_runner -->
<g id="edge49" class="edge">
<title>src_rag_rewriter&#45;&gt;src_agent_runner</title><style>.edge>path:hover{stroke-width:8}</style>
<path fill="none" stroke="#ffffff" d="M989.63,-586C1044.16,-589 1054.68,-641.29 1106.47,-624"/>
</g>
<!-- structlog -->
<g id="node34" class="node">
<title>structlog</title><style>.edge>path:hover{stroke-width:8}</style>
<ellipse fill="#c806f9" stroke="#ffffff" cx="69.6" cy="-484" rx="32.17" ry="18"/>
<text xml:space="preserve" text-anchor="middle" x="69.6" y="-480.5" font-family="Helvetica,sans-Serif" font-size="10.00" fill="#e0e0e0">structlog</text>
</g>
<!-- structlog&#45;&gt;src_agent_loop -->
<g id="edge50" class="edge">
<title>structlog&#45;&gt;src_agent_loop</title><style>.edge>path:hover{stroke-width:8}</style>
<path fill="none" stroke="#ffffff" d="M579.78,-468C638.92,-446.66 658.8,-475.3 721.25,-468"/>
<path fill="none" stroke="#ffffff" d="M723.25,-468C786.9,-460.56 803.48,-464.04 867.43,-468"/>
</g>
<!-- structlog&#45;&gt;src_agent_runner -->
<g id="edge51" class="edge">
<title>structlog&#45;&gt;src_agent_runner</title><style>.edge>path:hover{stroke-width:8}</style>
<path fill="none" stroke="#ffffff" d="M869.43,-742C891.91,-740.65 895.63,-731.7 916.39,-723 964.85,-702.7 978.46,-700.64 1024.87,-676 1062.85,-655.83 1065.93,-638.34 1106.47,-624"/>
<path fill="none" stroke="#ffffff" d="M723.25,-683C792.28,-688.39 798.46,-748.08 867.43,-742"/>
</g>
<!-- structlog&#45;&gt;src_helpers_logging_setup -->
<g id="edge52" class="edge">
<title>structlog&#45;&gt;src_helpers_logging_setup</title><style>.edge>path:hover{stroke-width:8}</style>
<path fill="none" stroke="#ffffff" d="M319.34,-624C349.68,-619.39 380.84,-634.46 404.26,-650.52"/>
<polygon fill="#c806f9" stroke="#ffffff" points="402.09,-653.28 412.25,-656.28 406.19,-647.6 402.09,-653.28"/>
</g>
<!-- structlog&#45;&gt;src_mcp_client_mcp_client -->
<g id="edge53" class="edge">
<title>structlog&#45;&gt;src_mcp_client_mcp_client</title><style>.edge>path:hover{stroke-width:8}</style>
<path fill="none" stroke="#ffffff" d="M579.78,-468C612.69,-460.69 647.67,-446.17 674.62,-433.36"/>
<polygon fill="#c806f9" stroke="#ffffff" points="676.07,-436.55 683.54,-429.03 673.01,-430.25 676.07,-436.55"/>
</g>
<!-- structlog&#45;&gt;src_mcp_client_mcp_server -->
<g id="edge54" class="edge">
<title>structlog&#45;&gt;src_mcp_client_mcp_server</title><style>.edge>path:hover{stroke-width:8}</style>
<path fill="none" stroke="#ffffff" d="M319.34,-624C347.98,-619.65 377.35,-606.06 400.25,-593.01"/>
<polygon fill="#c806f9" stroke="#ffffff" points="401.82,-596.15 408.66,-588.06 398.27,-590.11 401.82,-596.15"/>
</g>
<!-- structlog&#45;&gt;src_rag_agentic_retriever -->
<g id="edge55" class="edge">
<title>structlog&#45;&gt;src_rag_agentic_retriever</title><style>.edge>path:hover{stroke-width:8}</style>
<path fill="none" stroke="#ffffff" d="M319.34,-624C372.79,-615.88 346.12,-556.53 390.05,-525 460.88,-474.15 492.65,-486.9 577.78,-468"/>
<path fill="none" stroke="#ffffff" d="M579.78,-468C633.05,-448.78 618.62,-407.65 660.03,-369 664.42,-364.9 669.22,-360.88 674.14,-357.04"/>
<polygon fill="#c806f9" stroke="#ffffff" points="675.96,-360.06 681.86,-351.26 671.76,-354.46 675.96,-360.06"/>
<path fill="none" stroke="#ffffff" d="M84.4,-500.16C119.65,-539.43 217.32,-635.86 317.34,-624"/>
</g>
<!-- structlog&#45;&gt;src_rag_api_llm -->
<g id="edge56" class="edge">
<title>structlog&#45;&gt;src_rag_api_llm</title><style>.edge>path:hover{stroke-width:8}</style>
<path fill="none" stroke="#ffffff" d="M319.34,-624C373.58,-615.76 388.6,-632.61 442.79,-624"/>
<path fill="none" stroke="#ffffff" d="M444.79,-624C469.39,-620.09 476,-617.55 497.53,-605 515.84,-594.32 533.94,-579.26 548.31,-565.93"/>
<polygon fill="#c806f9" stroke="#ffffff" points="550.37,-568.79 555.21,-559.37 545.55,-563.72 550.37,-568.79"/>
</g>
<!-- structlog&#45;&gt;src_rag_embeddings -->
<g id="edge57" class="edge">
<title>structlog&#45;&gt;src_rag_embeddings</title><style>.edge>path:hover{stroke-width:8}</style>
<path fill="none" stroke="#ffffff" d="M99.95,-477.18C113.07,-473.02 128.05,-466.59 139.21,-457 235.49,-374.27 198.46,-305.02 282.63,-210 316.32,-171.97 363.58,-138.01 398.03,-115.82"/>
<polygon fill="#c806f9" stroke="#ffffff" points="399.54,-119.01 406.1,-110.69 395.79,-113.1 399.54,-119.01"/>
</g>
<!-- structlog&#45;&gt;src_rag_evaluator -->
<g id="edge58" class="edge">
<title>structlog&#45;&gt;src_rag_evaluator</title><style>.edge>path:hover{stroke-width:8}</style>
<path fill="none" stroke="#ffffff" d="M723.25,-683C754.48,-685.44 789.62,-685.49 817.4,-684.91"/>
<polygon fill="#c806f9" stroke="#ffffff" points="817.39,-688.41 827.3,-684.66 817.22,-681.41 817.39,-688.41"/>
</g>
<!-- structlog&#45;&gt;src_rag_index -->
<g id="edge59" class="edge">
<title>structlog&#45;&gt;src_rag_index</title><style>.edge>path:hover{stroke-width:8}</style>
<path fill="none" stroke="#ffffff" d="M98.46,-475.74C111.41,-471.24 126.67,-464.95 139.21,-457 194.56,-421.93 202.48,-404.43 246.63,-356 316.47,-279.37 308.64,-236.21 390.05,-172 410.26,-156.05 417.06,-149.26 442.79,-148"/>
</g>
<!-- structlog&#45;&gt;src_rag_rewriter -->
<g id="edge60" class="edge">
<title>structlog&#45;&gt;src_rag_rewriter</title><style>.edge>path:hover{stroke-width:8}</style>
<path fill="none" stroke="#ffffff" d="M444.79,-624C568.87,-604.29 596.64,-666.94 721.25,-683"/>
<path fill="none" stroke="#ffffff" d="M723.25,-683C775.94,-687.11 820.11,-637.9 845.17,-601.76"/>
<polygon fill="#c806f9" stroke="#ffffff" points="847.92,-603.95 850.58,-593.69 842.1,-600.05 847.92,-603.95"/>
</g>
<!-- tiktoken -->
<g id="node35" class="node">
<title>tiktoken</title><style>.edge>path:hover{stroke-width:8}</style>
<ellipse fill="#b6538e" stroke="#ffffff" cx="69.6" cy="-300" rx="30.37" ry="18"/>
<text xml:space="preserve" text-anchor="middle" x="69.6" y="-296.5" font-family="Helvetica,sans-Serif" font-size="10.00" fill="#e0e0e0">tiktoken</text>
</g>
<!-- tiktoken&#45;&gt;src_rag_chunker -->
<g id="edge61" class="edge">
<title>tiktoken&#45;&gt;src_rag_chunker</title><style>.edge>path:hover{stroke-width:8}</style>
<path fill="none" stroke="#ffffff" d="M100.12,-298.73C164.64,-295.96 318.64,-289.34 396.31,-286"/>
<polygon fill="#b6538e" stroke="#ffffff" points="396.29,-289.5 406.13,-285.58 395.99,-282.51 396.29,-289.5"/>
</g>
</g>
</svg>

