<?xml version="1.0" encoding="UTF-8" standalone="no"?>
<!DOCTYPE svg PUBLIC "-//W3C//DTD SVG 1.1//EN"
 "http://www.w3.org/Graphics/SVG/1.1/DTD/svg11.dtd">
<!-- Generated by graphviz version 15.0.0 (20260523.1842)
 -->
<!-- Title: G Pages: 1 -->
<svg style="background-color:#141414" width="425pt" height="286pt"
 viewBox="0.00 0.00 425.00 286.00" xmlns="http://www.w3.org/2000/svg" xmlns:xlink="http://www.w3.org/1999/xlink">
<g id="graph0" class="graph" transform="scale(1 1) rotate(0) translate(4 282.11)">
<title>G</title><style>.edge>path:hover{stroke-width:8}</style>
<polygon fill="#141414" stroke="none" points="-4,4 -4,-282.11 420.8,-282.11 420.8,4 -4,4"/>
<!-- flask -->
<g id="node1" class="node">
<title>flask</title><style>.edge>path:hover{stroke-width:8}</style>
<ellipse fill="#c04040" stroke="#ffffff" cx="45.25" cy="-260.11" rx="27" ry="18"/>
<text xml:space="preserve" text-anchor="middle" x="45.25" y="-256.61" font-family="Helvetica,sans-Serif" font-size="10.00" fill="#e0e0e0">flask</text>
</g>
<!-- src_app -->
<g id="node4" class="node">
<title>src_app</title><style>.edge>path:hover{stroke-width:8}</style>
<ellipse fill="#3a3a88" stroke="#ffffff" cx="246.84" cy="-206.11" rx="29.01" ry="18"/>
<text xml:space="preserve" text-anchor="middle" x="246.84" y="-202.61" font-family="Helvetica,sans-Serif" font-size="10.00" fill="#e0e0e0">src.app</text>
</g>
<!-- flask&#45;&gt;src_app -->
<g id="edge1" class="edge">
<title>flask&#45;&gt;src_app</title><style>.edge>path:hover{stroke-width:8}</style>
<path fill="none" stroke="#ffffff" d="M72.12,-256.56C99.69,-252.4 144.43,-244.59 181.82,-233.11 192.05,-229.97 202.86,-225.77 212.64,-221.62"/>
<polygon fill="#c04040" stroke="#ffffff" points="214.01,-224.84 221.76,-217.62 211.2,-218.43 214.01,-224.84"/>
</g>
<!-- server_py -->
<g id="node2" class="node">
<title>server_py</title><style>.edge>path:hover{stroke-width:8}</style>
<ellipse fill="#569f56" stroke="#ffffff" cx="382.83" cy="-179.11" rx="33.98" ry="18"/>
<text xml:space="preserve" text-anchor="middle" x="382.83" y="-175.61" font-family="Helvetica,sans-Serif" font-size="10.00" fill="#e0e0e0">server.py</text>
</g>
<!-- src -->
<g id="node3" class="node">
<title>src</title><style>.edge>path:hover{stroke-width:8}</style>
<ellipse fill="#3b3bce" stroke="#ffffff" cx="246.84" cy="-152.11" rx="27" ry="18"/>
<text xml:space="preserve" text-anchor="middle" x="246.84" y="-148.61" font-family="Helvetica,sans-Serif" font-size="10.00" fill="#e0e0e0">src</text>
</g>
<!-- src&#45;&gt;server_py -->
<g id="edge2" class="edge">
<title>src&#45;&gt;server_py</title><style>.edge>path:hover{stroke-width:8}</style>
<path fill="none" stroke="#ffffff" d="M266.59,-164.66C278.91,-171.72 295.69,-179.11 311.85,-179.11"/>
<path fill="none" stroke="#ffffff" d="M312.85,-179.11C320.66,-179.11 328.96,-179.11 337,-179.11"/>
<polygon fill="#3b3bce" stroke="#ffffff" points="336.99,-182.61 346.99,-179.11 336.99,-175.61 336.99,-182.61"/>
</g>
<!-- src_app&#45;&gt;server_py -->
<g id="edge3" class="edge">
<title>src_app&#45;&gt;server_py</title><style>.edge>path:hover{stroke-width:8}</style>
<path fill="none" stroke="#ffffff" d="M267.42,-193.09C279.66,-186.18 296.05,-179.11 311.85,-179.11"/>
</g>
<!-- src_rag -->
<g id="node5" class="node">
<title>src_rag</title><style>.edge>path:hover{stroke-width:8}</style>
<ellipse fill="#4747c2" stroke="#ffffff" cx="154.16" cy="-206.11" rx="27.66" ry="18"/>
<text xml:space="preserve" text-anchor="middle" x="154.16" y="-202.61" font-family="Helvetica,sans-Serif" font-size="10.00" fill="#e0e0e0">src.rag</text>
</g>
<!-- src_rag&#45;&gt;src_app -->
<g id="edge4" class="edge">
<title>src_rag&#45;&gt;src_app</title><style>.edge>path:hover{stroke-width:8}</style>
<path fill="none" stroke="#ffffff" d="M181.88,-206.11C189.48,-206.11 197.92,-206.11 206.11,-206.11"/>
<polygon fill="#4747c2" stroke="#ffffff" points="205.91,-209.61 215.91,-206.11 205.91,-202.61 205.91,-209.61"/>
</g>
<!-- src_rag_index -->
<g id="node6" class="node">
<title>src_rag_index</title><style>.edge>path:hover{stroke-width:8}</style>
<ellipse fill="#4949ac" stroke="#ffffff" cx="45.25" cy="-206.11" rx="43.45" ry="18"/>
<text xml:space="preserve" text-anchor="middle" x="45.25" y="-202.61" font-family="Helvetica,sans-Serif" font-size="10.00" fill="#e0e0e0">src.rag.index</text>
</g>
<!-- src_rag_index&#45;&gt;src_app -->
<g id="edge5" class="edge">
<title>src_rag_index&#45;&gt;src_app</title><style>.edge>path:hover{stroke-width:8}</style>
<path fill="none" stroke="#ffffff" d="M70.82,-191.21C99.76,-174.06 144.95,-148.65 153.16,-152.11"/>
</g>
<!-- src_rag_llm -->
<g id="node7" class="node">
<title>src_rag_llm</title><style>.edge>path:hover{stroke-width:8}</style>
<ellipse fill="#5353b6" stroke="#ffffff" cx="45.25" cy="-152.11" rx="37.13" ry="18"/>
<text xml:space="preserve" text-anchor="middle" x="45.25" y="-148.61" font-family="Helvetica,sans-Serif" font-size="10.00" fill="#e0e0e0">src.rag.llm</text>
</g>
<!-- src_rag_llm&#45;&gt;src_app -->
<g id="edge6" class="edge">
<title>src_rag_llm&#45;&gt;src_app</title><style>.edge>path:hover{stroke-width:8}</style>
<path fill="none" stroke="#ffffff" d="M80.34,-145.53C102.03,-142.9 130.25,-142.44 153.16,-152.11"/>
</g>
<!-- src_rag_loader -->
<g id="node8" class="node">
<title>src_rag_loader</title><style>.edge>path:hover{stroke-width:8}</style>
<ellipse fill="#5353b6" stroke="#ffffff" cx="45.25" cy="-98.11" rx="45.25" ry="18"/>
<text xml:space="preserve" text-anchor="middle" x="45.25" y="-94.61" font-family="Helvetica,sans-Serif" font-size="10.00" fill="#e0e0e0">src.rag.loader</text>
</g>
<!-- src_rag_loader&#45;&gt;src_app -->
<g id="edge7" class="edge">
<title>src_rag_loader&#45;&gt;src_app</title><style>.edge>path:hover{stroke-width:8}</style>
<path fill="none" stroke="#ffffff" d="M72.57,-112.68C93.93,-124.19 125,-140.23 153.16,-152.11"/>
</g>
<!-- src_rag_retriever -->
<g id="node9" class="node">
<title>src_rag_retriever</title><style>.edge>path:hover{stroke-width:8}</style>
<ellipse fill="#5353b6" stroke="#ffffff" cx="45.25" cy="-31.11" rx="36.24" ry="31.11"/>
<text xml:space="preserve" text-anchor="middle" x="45.25" y="-39.61" font-family="Helvetica,sans-Serif" font-size="10.00" fill="#e0e0e0">src.</text>
<text xml:space="preserve" text-anchor="middle" x="45.25" y="-27.61" font-family="Helvetica,sans-Serif" font-size="10.00" fill="#e0e0e0">rag.</text>
<text xml:space="preserve" text-anchor="middle" x="45.25" y="-15.61" font-family="Helvetica,sans-Serif" font-size="10.00" fill="#e0e0e0">retriever</text>
</g>
<!-- src_rag_retriever&#45;&gt;src_app -->
<g id="edge8" class="edge">
<title>src_rag_retriever&#45;&gt;src_app</title><style>.edge>path:hover{stroke-width:8}</style>
<path fill="none" stroke="#ffffff" d="M155.16,-152.11C177.04,-161.34 200,-175.06 217.34,-186.36"/>
<polygon fill="#5353b6" stroke="#ffffff" points="215.33,-189.23 225.59,-191.85 219.2,-183.4 215.33,-189.23"/>
<path fill="none" stroke="#ffffff" d="M71.79,-52.8C78.12,-58.54 84.73,-64.88 90.5,-71.11 121.43,-104.5 111.23,-134.42 153.16,-152.11"/>
</g>
</g>
</svg>

