<?xml version="1.0" encoding="UTF-8" standalone="no"?>
<!DOCTYPE svg PUBLIC "-//W3C//DTD SVG 1.1//EN"
 "http://www.w3.org/Graphics/SVG/1.1/DTD/svg11.dtd">
<!-- Generated by graphviz version 15.0.0 (20260523.1842)
 -->
<!-- Title: G Pages: 1 -->
<svg style="background-color:#141414" width="1081pt" height="619pt"
 viewBox="0.00 0.00 1081.00 619.00" xmlns="http://www.w3.org/2000/svg" xmlns:xlink="http://www.w3.org/1999/xlink">
<g id="graph0" class="graph" transform="scale(1 1) rotate(0) translate(4 615.02)">
<title>G</title><style>.edge>path:hover{stroke-width:8}</style>
<polygon fill="#141414" stroke="none" points="-4,4 -4,-615.02 1076.66,-615.02 1076.66,4 -4,4"/>
<!-- dataclasses -->
<g id="node1" class="node">
<title>dataclasses</title><style>.edge>path:hover{stroke-width:8}</style>
<ellipse fill="#b83d3d" stroke="#ffffff" cx="306.4" cy="-111.02" rx="41.19" ry="18"/>
<text xml:space="preserve" text-anchor="middle" x="306.4" y="-107.52" font-family="Helvetica,sans-Serif" font-size="10.00" fill="#e0e0e0">dataclasses</text>
</g>
<!-- src_rag_chunker -->
<g id="node17" class="node">
<title>src_rag_chunker</title><style>.edge>path:hover{stroke-width:8}</style>
<ellipse fill="#9a38a8" stroke="#ffffff" cx="612.03" cy="-62.02" rx="35.71" ry="31.11"/>
<text xml:space="preserve" text-anchor="middle" x="612.03" y="-70.52" font-family="Helvetica,sans-Serif" font-size="10.00" fill="#e0e0e0">src.</text>
<text xml:space="preserve" text-anchor="middle" x="612.03" y="-58.52" font-family="Helvetica,sans-Serif" font-size="10.00" fill="#e0e0e0">rag.</text>
<text xml:space="preserve" text-anchor="middle" x="612.03" y="-46.52" font-family="Helvetica,sans-Serif" font-size="10.00" fill="#e0e0e0">chunker</text>
</g>
<!-- dataclasses&#45;&gt;src_rag_chunker -->
<g id="edge1" class="edge">
<title>dataclasses&#45;&gt;src_rag_chunker</title><style>.edge>path:hover{stroke-width:8}</style>
<path fill="none" stroke="#ffffff" d="M347.82,-110.03C366.66,-109.21 389.33,-107.73 409.59,-105.02"/>
<path fill="none" stroke="#ffffff" d="M411.59,-105.02C453.82,-99.38 458.1,-76.67 499.59,-67.02"/>
</g>
<!-- src_rag_index -->
<g id="node19" class="node">
<title>src_rag_index</title><style>.edge>path:hover{stroke-width:8}</style>
<ellipse fill="#70287a" stroke="#ffffff" cx="741.72" cy="-167.02" rx="43.45" ry="18"/>
<text xml:space="preserve" text-anchor="middle" x="741.72" y="-163.52" font-family="Helvetica,sans-Serif" font-size="10.00" fill="#e0e0e0">src.rag.index</text>
</g>
<!-- dataclasses&#45;&gt;src_rag_index -->
<g id="edge2" class="edge">
<title>dataclasses&#45;&gt;src_rag_index</title><style>.edge>path:hover{stroke-width:8}</style>
<path fill="none" stroke="#ffffff" d="M411.59,-105.02C515.98,-91.08 637.41,-127.9 699.51,-150.63"/>
<polygon fill="#b83d3d" stroke="#ffffff" points="698.03,-153.82 708.62,-154.03 700.48,-147.26 698.03,-153.82"/>
</g>
<!-- faiss -->
<g id="node2" class="node">
<title>faiss</title><style>.edge>path:hover{stroke-width:8}</style>
<ellipse fill="#b45f2d" stroke="#ffffff" cx="410.59" cy="-433.02" rx="27" ry="18"/>
<text xml:space="preserve" text-anchor="middle" x="410.59" y="-429.52" font-family="Helvetica,sans-Serif" font-size="10.00" fill="#e0e0e0">faiss</text>
</g>
<!-- faiss&#45;&gt;src_rag_index -->
<g id="edge3" class="edge">
<title>faiss&#45;&gt;src_rag_index</title><style>.edge>path:hover{stroke-width:8}</style>
<path fill="none" stroke="#ffffff" d="M426.88,-418.38C443.3,-404.01 470.92,-383.6 499.59,-379.02"/>
</g>
<!-- src_rag_retriever -->
<g id="node22" class="node">
<title>src_rag_retriever</title><style>.edge>path:hover{stroke-width:8}</style>
<ellipse fill="#9a38a8" stroke="#ffffff" cx="741.72" cy="-272.02" rx="36.24" ry="31.11"/>
<text xml:space="preserve" text-anchor="middle" x="741.72" y="-280.52" font-family="Helvetica,sans-Serif" font-size="10.00" fill="#e0e0e0">src.</text>
<text xml:space="preserve" text-anchor="middle" x="741.72" y="-268.52" font-family="Helvetica,sans-Serif" font-size="10.00" fill="#e0e0e0">rag.</text>
<text xml:space="preserve" text-anchor="middle" x="741.72" y="-256.52" font-family="Helvetica,sans-Serif" font-size="10.00" fill="#e0e0e0">retriever</text>
</g>
<!-- faiss&#45;&gt;src_rag_retriever -->
<g id="edge4" class="edge">
<title>faiss&#45;&gt;src_rag_retriever</title><style>.edge>path:hover{stroke-width:8}</style>
<path fill="none" stroke="#ffffff" d="M437.83,-433.17C485.84,-432.24 589.39,-424.63 660.47,-379.02 686.51,-362.31 707.19,-334 721.03,-310.69"/>
<polygon fill="#b45f2d" stroke="#ffffff" points="724.05,-312.46 725.97,-302.04 717.97,-308.99 724.05,-312.46"/>
</g>
<!-- flask -->
<g id="node3" class="node">
<title>flask</title><style>.edge>path:hover{stroke-width:8}</style>
<ellipse fill="#b8993d" stroke="#ffffff" cx="500.59" cy="-189.02" rx="27" ry="18"/>
<text xml:space="preserve" text-anchor="middle" x="500.59" y="-185.52" font-family="Helvetica,sans-Serif" font-size="10.00" fill="#e0e0e0">flask</text>
</g>
<!-- src_app -->
<g id="node14" class="node">
<title>src_app</title><style>.edge>path:hover{stroke-width:8}</style>
<ellipse fill="#772b82" stroke="#ffffff" cx="943.31" cy="-144.02" rx="29.01" ry="18"/>
<text xml:space="preserve" text-anchor="middle" x="943.31" y="-140.52" font-family="Helvetica,sans-Serif" font-size="10.00" fill="#e0e0e0">src.app</text>
</g>
<!-- flask&#45;&gt;src_app -->
<g id="edge5" class="edge">
<title>flask&#45;&gt;src_app</title><style>.edge>path:hover{stroke-width:8}</style>
<path fill="none" stroke="#ffffff" d="M525.11,-180.77C576.5,-162.99 697.69,-122.55 740.72,-121.02"/>
</g>
<!-- functools -->
<g id="node4" class="node">
<title>functools</title><style>.edge>path:hover{stroke-width:8}</style>
<polygon fill="#5a5a5a" stroke="#ffffff" points="334.28,-221.02 278.53,-221.02 278.53,-185.02 334.28,-185.02 334.28,-221.02"/>
<text xml:space="preserve" text-anchor="middle" x="306.4" y="-199.52" font-family="Helvetica,sans-Serif" font-size="10.00" fill="#e0e0e0">functools</text>
</g>
<!-- src_rag_llm -->
<g id="node20" class="node">
<title>src_rag_llm</title><style>.edge>path:hover{stroke-width:8}</style>
<ellipse fill="#9a38a8" stroke="#ffffff" cx="612.03" cy="-281.02" rx="37.13" ry="18"/>
<text xml:space="preserve" text-anchor="middle" x="612.03" y="-277.52" font-family="Helvetica,sans-Serif" font-size="10.00" fill="#e0e0e0">src.rag.llm</text>
</g>
<!-- functools&#45;&gt;src_rag_llm -->
<g id="edge6" class="edge">
<title>functools&#45;&gt;src_rag_llm</title><style>.edge>path:hover{stroke-width:8}</style>
<path fill="none" stroke="#ffffff" d="M334.4,-220.29C359.04,-235.49 393.92,-255.44 409.59,-257.02"/>
<path fill="none" stroke="#ffffff" d="M411.59,-257.02C464.02,-262.32 524.03,-269.73 564.41,-274.9"/>
<polygon fill="#5a5a5a" stroke="#ffffff" points="563.9,-278.37 574.27,-276.17 564.8,-271.42 563.9,-278.37"/>
</g>
<!-- typing -->
<g id="node24" class="node">
<title>typing</title><style>.edge>path:hover{stroke-width:8}</style>
<polygon fill="#5a5a5a" stroke="#ffffff" points="186.6,-198.02 132.6,-198.02 132.6,-162.02 186.6,-162.02 186.6,-198.02"/>
<text xml:space="preserve" text-anchor="middle" x="159.6" y="-176.52" font-family="Helvetica,sans-Serif" font-size="10.00" fill="#e0e0e0">typing</text>
</g>
<!-- json -->
<g id="node5" class="node">
<title>json</title><style>.edge>path:hover{stroke-width:8}</style>
<ellipse fill="#85b653" stroke="#ffffff" cx="410.59" cy="-379.02" rx="27" ry="18"/>
<text xml:space="preserve" text-anchor="middle" x="410.59" y="-375.52" font-family="Helvetica,sans-Serif" font-size="10.00" fill="#e0e0e0">json</text>
</g>
<!-- json&#45;&gt;src_rag_index -->
<g id="edge8" class="edge">
<title>json&#45;&gt;src_rag_index</title><style>.edge>path:hover{stroke-width:8}</style>
<path fill="none" stroke="#ffffff" d="M437.56,-381.16C455.18,-382.09 478.92,-382.33 499.59,-379.02"/>
</g>
<!-- logging -->
<g id="node6" class="node">
<title>logging</title><style>.edge>path:hover{stroke-width:8}</style>
<ellipse fill="#43c431" stroke="#ffffff" cx="306.4" cy="-349.02" rx="28.11" ry="18"/>
<text xml:space="preserve" text-anchor="middle" x="306.4" y="-345.52" font-family="Helvetica,sans-Serif" font-size="10.00" fill="#e0e0e0">logging</text>
</g>
<!-- logging&#45;&gt;faiss -->
<g id="edge9" class="edge">
<title>logging&#45;&gt;faiss</title><style>.edge>path:hover{stroke-width:8}</style>
<path fill="none" stroke="#ffffff" d="M325.09,-362.94C332.12,-368.52 340.27,-375.04 347.59,-381.02 359.87,-391.05 373.37,-402.34 384.63,-411.83"/>
<polygon fill="#43c431" stroke="#ffffff" points="382.06,-414.24 391.95,-418.02 386.57,-408.9 382.06,-414.24"/>
</g>
<!-- src_rag_embeddings -->
<g id="node18" class="node">
<title>src_rag_embeddings</title><style>.edge>path:hover{stroke-width:8}</style>
<ellipse fill="#9b2bac" stroke="#ffffff" cx="612.03" cy="-576.02" rx="48.44" ry="31.11"/>
<text xml:space="preserve" text-anchor="middle" x="612.03" y="-584.52" font-family="Helvetica,sans-Serif" font-size="10.00" fill="#e0e0e0">src.</text>
<text xml:space="preserve" text-anchor="middle" x="612.03" y="-572.52" font-family="Helvetica,sans-Serif" font-size="10.00" fill="#e0e0e0">rag.</text>
<text xml:space="preserve" text-anchor="middle" x="612.03" y="-560.52" font-family="Helvetica,sans-Serif" font-size="10.00" fill="#e0e0e0">embeddings</text>
</g>
<!-- logging&#45;&gt;src_rag_embeddings -->
<g id="edge10" class="edge">
<title>logging&#45;&gt;src_rag_embeddings</title><style>.edge>path:hover{stroke-width:8}</style>
<path fill="none" stroke="#ffffff" d="M501.59,-555.02C519.13,-556.66 538.04,-559.79 555.12,-563.14"/>
<polygon fill="#43c431" stroke="#ffffff" points="554.07,-566.5 564.57,-565.06 555.47,-559.64 554.07,-566.5"/>
<path fill="none" stroke="#ffffff" d="M314.31,-366.69C334.43,-414.86 398.05,-545.54 499.59,-555.02"/>
</g>
<!-- logging&#45;&gt;src_rag_index -->
<g id="edge11" class="edge">
<title>logging&#45;&gt;src_rag_index</title><style>.edge>path:hover{stroke-width:8}</style>
<path fill="none" stroke="#ffffff" d="M501.59,-379.02C573.28,-367.56 608.78,-392.01 660.47,-341.02 706.81,-295.3 659.89,-252.89 696.47,-199.02 699.1,-195.14 702.37,-191.56 705.94,-188.32"/>
<polygon fill="#43c431" stroke="#ffffff" points="707.82,-191.29 713.43,-182.31 703.44,-185.83 707.82,-191.29"/>
<path fill="none" stroke="#ffffff" d="M334.69,-346.62C361.29,-344.99 402.71,-344.33 437.59,-352.02 466.94,-358.49 470.07,-384.65 499.59,-379.02"/>
</g>
<!-- numpy -->
<g id="node7" class="node">
<title>numpy</title><style>.edge>path:hover{stroke-width:8}</style>
<ellipse fill="#17d346" stroke="#ffffff" cx="306.4" cy="-493.02" rx="27.21" ry="18"/>
<text xml:space="preserve" text-anchor="middle" x="306.4" y="-489.52" font-family="Helvetica,sans-Serif" font-size="10.00" fill="#e0e0e0">numpy</text>
</g>
<!-- numpy&#45;&gt;faiss -->
<g id="edge12" class="edge">
<title>numpy&#45;&gt;faiss</title><style>.edge>path:hover{stroke-width:8}</style>
<path fill="none" stroke="#ffffff" d="M327.59,-481.17C342.52,-472.4 363.1,-460.32 379.9,-450.45"/>
<polygon fill="#17d346" stroke="#ffffff" points="381.64,-453.49 388.49,-445.41 378.09,-447.46 381.64,-453.49"/>
</g>
<!-- numpy&#45;&gt;src_rag_embeddings -->
<g id="edge13" class="edge">
<title>numpy&#45;&gt;src_rag_embeddings</title><style>.edge>path:hover{stroke-width:8}</style>
<path fill="none" stroke="#ffffff" d="M411.59,-555.02C450.18,-561.42 460.65,-551.38 499.59,-555.02"/>
</g>
<!-- numpy&#45;&gt;src_rag_index -->
<g id="edge14" class="edge">
<title>numpy&#45;&gt;src_rag_index</title><style>.edge>path:hover{stroke-width:8}</style>
<path fill="none" stroke="#ffffff" d="M411.59,-555.02C453.62,-561.99 460.2,-533.25 499.59,-517.02"/>
<path fill="none" stroke="#ffffff" d="M326.19,-505.47C353.08,-523.13 400.33,-553.48 409.59,-555.02"/>
<path fill="none" stroke="#ffffff" d="M501.59,-517.02C589.98,-480.6 611.21,-453.95 660.47,-372.02 693.57,-316.96 669.99,-290.56 696.47,-232.02 702.62,-218.42 711.59,-204.57 719.85,-193.18"/>
<polygon fill="#17d346" stroke="#ffffff" points="722.45,-195.55 725.64,-185.45 716.84,-191.36 722.45,-195.55"/>
</g>
<!-- numpy&#45;&gt;src_rag_retriever -->
<g id="edge15" class="edge">
<title>numpy&#45;&gt;src_rag_retriever</title><style>.edge>path:hover{stroke-width:8}</style>
<path fill="none" stroke="#ffffff" d="M501.59,-517.02C568.32,-491.59 605.22,-538.27 660.47,-493.02 714.37,-448.87 732.07,-365.34 737.88,-314.57"/>
<polygon fill="#17d346" stroke="#ffffff" points="741.34,-315.15 738.88,-304.84 734.38,-314.44 741.34,-315.15"/>
</g>
<!-- openai -->
<g id="node8" class="node">
<title>openai</title><style>.edge>path:hover{stroke-width:8}</style>
<ellipse fill="#3ab084" stroke="#ffffff" cx="306.4" cy="-257.02" rx="27" ry="18"/>
<text xml:space="preserve" text-anchor="middle" x="306.4" y="-253.52" font-family="Helvetica,sans-Serif" font-size="10.00" fill="#e0e0e0">openai</text>
</g>
<!-- openai&#45;&gt;src_rag_llm -->
<g id="edge16" class="edge">
<title>openai&#45;&gt;src_rag_llm</title><style>.edge>path:hover{stroke-width:8}</style>
<path fill="none" stroke="#ffffff" d="M333.52,-255.58C354.21,-254.78 383.82,-254.42 409.59,-257.02"/>
</g>
<!-- os -->
<g id="node9" class="node">
<title>os</title><style>.edge>path:hover{stroke-width:8}</style>
<ellipse fill="#10f9f9" stroke="#ffffff" cx="27" cy="-470.02" rx="27" ry="18"/>
<text xml:space="preserve" text-anchor="middle" x="27" y="-466.52" font-family="Helvetica,sans-Serif" font-size="10.00" fill="#e0e0e0">os</text>
</g>
<!-- os&#45;&gt;faiss -->
<g id="edge17" class="edge">
<title>os&#45;&gt;faiss</title><style>.edge>path:hover{stroke-width:8}</style>
<path fill="none" stroke="#ffffff" d="M160.6,-372.02C199.66,-355.69 318.17,-397.32 376.48,-419.78"/>
<polygon fill="#10f9f9" stroke="#ffffff" points="374.96,-422.95 385.55,-423.32 377.5,-416.43 374.96,-422.95"/>
</g>
<!-- os&#45;&gt;functools -->
<g id="edge18" class="edge">
<title>os&#45;&gt;functools</title><style>.edge>path:hover{stroke-width:8}</style>
<path fill="none" stroke="#ffffff" d="M33.32,-452.17C46.74,-410.45 86.18,-306.35 158.6,-257.02"/>
<path fill="none" stroke="#ffffff" d="M160.6,-257.02C193.34,-234.72 236.48,-220.18 267.13,-211.87"/>
<polygon fill="#10f9f9" stroke="#ffffff" points="267.96,-215.27 276.76,-209.37 266.2,-208.5 267.96,-215.27"/>
</g>
<!-- os&#45;&gt;logging -->
<g id="edge19" class="edge">
<title>os&#45;&gt;logging</title><style>.edge>path:hover{stroke-width:8}</style>
<path fill="none" stroke="#ffffff" d="M160.6,-372.02C194.71,-357.77 236.72,-352.28 266.69,-350.21"/>
<polygon fill="#10f9f9" stroke="#ffffff" points="266.65,-353.71 276.43,-349.64 266.24,-346.73 266.65,-353.71"/>
</g>
<!-- os&#45;&gt;numpy -->
<g id="edge20" class="edge">
<title>os&#45;&gt;numpy</title><style>.edge>path:hover{stroke-width:8}</style>
<path fill="none" stroke="#ffffff" d="M44.34,-483.89C67.8,-502.75 113.2,-535.46 158.6,-547.02"/>
<path fill="none" stroke="#ffffff" d="M160.6,-547.02C182.67,-552.64 239.13,-527.07 274.68,-509.2"/>
<polygon fill="#10f9f9" stroke="#ffffff" points="275.87,-512.52 283.19,-504.85 272.69,-506.28 275.87,-512.52"/>
</g>
<!-- os&#45;&gt;openai -->
<g id="edge21" class="edge">
<title>os&#45;&gt;openai</title><style>.edge>path:hover{stroke-width:8}</style>
<path fill="none" stroke="#ffffff" d="M160.6,-257.02C192.8,-235.09 239.08,-239.71 270.59,-246.77"/>
<polygon fill="#10f9f9" stroke="#ffffff" points="269.46,-250.1 280.01,-249.08 271.13,-243.3 269.46,-250.1"/>
</g>
<!-- pathlib -->
<g id="node10" class="node">
<title>pathlib</title><style>.edge>path:hover{stroke-width:8}</style>
<ellipse fill="#1893dd" stroke="#ffffff" cx="159.6" cy="-470.02" rx="27" ry="18"/>
<text xml:space="preserve" text-anchor="middle" x="159.6" y="-466.52" font-family="Helvetica,sans-Serif" font-size="10.00" fill="#e0e0e0">pathlib</text>
</g>
<!-- os&#45;&gt;pathlib -->
<g id="edge22" class="edge">
<title>os&#45;&gt;pathlib</title><style>.edge>path:hover{stroke-width:8}</style>
<path fill="none" stroke="#ffffff" d="M54.43,-470.02C73.55,-470.02 99.66,-470.02 120.95,-470.02"/>
<polygon fill="#10f9f9" stroke="#ffffff" points="120.7,-473.52 130.7,-470.02 120.7,-466.52 120.7,-473.52"/>
</g>
<!-- sentence_transformers -->
<g id="node13" class="node">
<title>sentence_transformers</title><style>.edge>path:hover{stroke-width:8}</style>
<ellipse fill="#7a3db8" stroke="#ffffff" cx="159.6" cy="-593.02" rx="69.6" ry="18"/>
<text xml:space="preserve" text-anchor="middle" x="159.6" y="-589.52" font-family="Helvetica,sans-Serif" font-size="10.00" fill="#e0e0e0">sentence_transformers</text>
</g>
<!-- os&#45;&gt;sentence_transformers -->
<g id="edge23" class="edge">
<title>os&#45;&gt;sentence_transformers</title><style>.edge>path:hover{stroke-width:8}</style>
<path fill="none" stroke="#ffffff" d="M36.09,-487.16C46.25,-507.14 65.39,-540.1 90,-561.02 95.32,-565.55 101.39,-569.57 107.67,-573.11"/>
<polygon fill="#10f9f9" stroke="#ffffff" points="105.8,-576.08 116.28,-577.57 109.02,-569.87 105.8,-576.08"/>
</g>
<!-- os&#45;&gt;src_rag_embeddings -->
<g id="edge24" class="edge">
<title>os&#45;&gt;src_rag_embeddings</title><style>.edge>path:hover{stroke-width:8}</style>
<path fill="none" stroke="#ffffff" d="M307.4,-593.02C352.68,-596.55 364.36,-597.15 409.59,-593.02"/>
<path fill="none" stroke="#ffffff" d="M160.6,-547.02C191.26,-554.83 199.03,-556.51 229.21,-566.02 263.47,-576.82 269.58,-590.23 305.4,-593.02"/>
</g>
<!-- os&#45;&gt;src_rag_llm -->
<g id="edge25" class="edge">
<title>os&#45;&gt;src_rag_llm</title><style>.edge>path:hover{stroke-width:8}</style>
<path fill="none" stroke="#ffffff" d="M42.49,-455.17C65.06,-433.04 110.99,-391.88 158.6,-372.02"/>
<path fill="none" stroke="#ffffff" d="M160.6,-372.02C208.16,-352.18 218.47,-343.71 265.21,-322.02 267.2,-321.1 407.4,-256.87 409.59,-257.02"/>
</g>
<!-- pathlib&#45;&gt;numpy -->
<g id="edge26" class="edge">
<title>pathlib&#45;&gt;numpy</title><style>.edge>path:hover{stroke-width:8}</style>
<path fill="none" stroke="#ffffff" d="M186.16,-474.08C208.97,-477.7 242.65,-483.05 268.41,-487.15"/>
<polygon fill="#1893dd" stroke="#ffffff" points="267.7,-490.58 278.12,-488.69 268.79,-483.66 267.7,-490.58"/>
</g>
<!-- pathlib&#45;&gt;src_app -->
<g id="edge27" class="edge">
<title>pathlib&#45;&gt;src_app</title><style>.edge>path:hover{stroke-width:8}</style>
<path fill="none" stroke="#ffffff" d="M411.59,-479.02C531.34,-466.46 582.15,-463.47 660.47,-372.02 702.26,-323.22 654.47,-280.64 696.47,-232.02 724.98,-199.01 746.82,-211.1 786.97,-194.02 814.87,-182.15 819.57,-171.06 849.63,-167.02"/>
</g>
<!-- pathlib&#45;&gt;src_rag_index -->
<g id="edge28" class="edge">
<title>pathlib&#45;&gt;src_rag_index</title><style>.edge>path:hover{stroke-width:8}</style>
<path fill="none" stroke="#ffffff" d="M411.59,-479.02C470.47,-472.84 442.35,-394.13 499.59,-379.02"/>
<path fill="none" stroke="#ffffff" d="M307.4,-447.02C353.33,-434.55 362.26,-483.99 409.59,-479.02"/>
</g>
<!-- src_rag_loader -->
<g id="node21" class="node">
<title>src_rag_loader</title><style>.edge>path:hover{stroke-width:8}</style>
<ellipse fill="#a13ab0" stroke="#ffffff" cx="741.72" cy="-75.02" rx="45.25" ry="18"/>
<text xml:space="preserve" text-anchor="middle" x="741.72" y="-71.52" font-family="Helvetica,sans-Serif" font-size="10.00" fill="#e0e0e0">src.rag.loader</text>
</g>
<!-- pathlib&#45;&gt;src_rag_loader -->
<g id="edge29" class="edge">
<title>pathlib&#45;&gt;src_rag_loader</title><style>.edge>path:hover{stroke-width:8}</style>
<path fill="none" stroke="#ffffff" d="M307.4,-447.02C359.63,-432.84 336.79,-379.21 383.59,-352.02 437.46,-320.73 615.98,-351.64 660.47,-308.02 725.27,-244.48 648.18,-183.87 696.47,-107.02 698.84,-103.25 701.83,-99.78 705.14,-96.63"/>
<polygon fill="#1893dd" stroke="#ffffff" points="707.16,-99.5 712.66,-90.44 702.72,-94.09 707.16,-99.5"/>
<path fill="none" stroke="#ffffff" d="M186.75,-467.17C215.95,-463.68 264.47,-456.99 305.4,-447.02"/>
</g>
<!-- pytest -->
<g id="node11" class="node">
<title>pytest</title><style>.edge>path:hover{stroke-width:8}</style>
<ellipse fill="#536cb6" stroke="#ffffff" cx="306.4" cy="-547.02" rx="27" ry="18"/>
<text xml:space="preserve" text-anchor="middle" x="306.4" y="-543.52" font-family="Helvetica,sans-Serif" font-size="10.00" fill="#e0e0e0">pytest</text>
</g>
<!-- pytest&#45;&gt;src_rag_embeddings -->
<g id="edge30" class="edge">
<title>pytest&#45;&gt;src_rag_embeddings</title><style>.edge>path:hover{stroke-width:8}</style>
<path fill="none" stroke="#ffffff" d="M324.13,-560.91C343.61,-575.5 377.24,-595.98 409.59,-593.02"/>
<path fill="none" stroke="#ffffff" d="M411.59,-593.02C454.02,-589.14 457.18,-551.06 499.59,-555.02"/>
</g>
<!-- re -->
<g id="node12" class="node">
<title>re</title><style>.edge>path:hover{stroke-width:8}</style>
<polygon fill="#5a5a5a" stroke="#ffffff" points="54,-198.02 0,-198.02 0,-162.02 54,-162.02 54,-198.02"/>
<text xml:space="preserve" text-anchor="middle" x="27" y="-176.52" font-family="Helvetica,sans-Serif" font-size="10.00" fill="#e0e0e0">re</text>
</g>
<!-- re&#45;&gt;dataclasses -->
<g id="edge31" class="edge">
<title>re&#45;&gt;dataclasses</title><style>.edge>path:hover{stroke-width:8}</style>
<path fill="none" stroke="#ffffff" d="M160.6,-11.02C214.95,5.11 218.43,-51.99 265.21,-84.02 267.88,-85.85 270.65,-87.73 273.43,-89.62"/>
<polygon fill="#5a5a5a" stroke="#ffffff" points="271.32,-92.42 281.57,-95.11 275.23,-86.61 271.32,-92.42"/>
</g>
<!-- re&#45;&gt;logging -->
<g id="edge32" class="edge">
<title>re&#45;&gt;logging</title><style>.edge>path:hover{stroke-width:8}</style>
<path fill="none" stroke="#ffffff" d="M54.35,-196.07C106.19,-227.65 221.11,-297.67 275.61,-330.87"/>
<polygon fill="#5a5a5a" stroke="#ffffff" points="273.71,-333.81 284.07,-336.03 277.35,-327.83 273.71,-333.81"/>
</g>
<!-- re&#45;&gt;src_rag_chunker -->
<g id="edge33" class="edge">
<title>re&#45;&gt;src_rag_chunker</title><style>.edge>path:hover{stroke-width:8}</style>
<path fill="none" stroke="#ffffff" d="M34.02,-161.74C48.18,-122.49 87.87,-32.02 158.6,-11.02"/>
<path fill="none" stroke="#ffffff" d="M160.6,-11.02C240.68,12.75 266.78,-8.87 347.59,-30.02 376.67,-37.63 379.94,-52.12 409.59,-57.02"/>
<path fill="none" stroke="#ffffff" d="M411.59,-57.02C450.53,-62.8 461.25,-75.93 499.59,-67.02"/>
<path fill="none" stroke="#ffffff" d="M501.59,-67.02C521.94,-62.29 544.97,-60.7 564.64,-60.42"/>
<polygon fill="#5a5a5a" stroke="#ffffff" points="564.58,-63.92 574.57,-60.41 564.57,-56.92 564.58,-63.92"/>
</g>
<!-- re&#45;&gt;typing -->
<g id="edge34" class="edge">
<title>re&#45;&gt;typing</title><style>.edge>path:hover{stroke-width:8}</style>
<path fill="none" stroke="#ffffff" d="M54.43,-180.02C73.55,-180.02 99.66,-180.02 120.95,-180.02"/>
<polygon fill="#5a5a5a" stroke="#ffffff" points="120.7,-183.52 130.7,-180.02 120.7,-176.52 120.7,-183.52"/>
</g>
<!-- sentence_transformers&#45;&gt;src_rag_embeddings -->
<g id="edge35" class="edge">
<title>sentence_transformers&#45;&gt;src_rag_embeddings</title><style>.edge>path:hover{stroke-width:8}</style>
<path fill="none" stroke="#ffffff" d="M229.19,-590.84C253.31,-590.65 280.59,-591.09 305.4,-593.02"/>
</g>
<!-- src_main -->
<g id="node15" class="node">
<title>src_main</title><style>.edge>path:hover{stroke-width:8}</style>
<ellipse fill="#9f49ac" stroke="#ffffff" cx="1040.49" cy="-144.02" rx="32.17" ry="18"/>
<text xml:space="preserve" text-anchor="middle" x="1040.49" y="-140.52" font-family="Helvetica,sans-Serif" font-size="10.00" fill="#e0e0e0">src.main</text>
</g>
<!-- src_app&#45;&gt;src_main -->
<g id="edge36" class="edge">
<title>src_app&#45;&gt;src_main</title><style>.edge>path:hover{stroke-width:8}</style>
<path fill="none" stroke="#ffffff" d="M972.61,-144.02C980.21,-144.02 988.59,-144.02 996.79,-144.02"/>
<polygon fill="#772b82" stroke="#ffffff" points="996.62,-147.52 1006.62,-144.02 996.62,-140.52 996.62,-147.52"/>
</g>
<!-- src_rag -->
<g id="node16" class="node">
<title>src_rag</title><style>.edge>path:hover{stroke-width:8}</style>
<ellipse fill="#bc3bce" stroke="#ffffff" cx="850.63" cy="-121.02" rx="27.66" ry="18"/>
<text xml:space="preserve" text-anchor="middle" x="850.63" y="-117.52" font-family="Helvetica,sans-Serif" font-size="10.00" fill="#e0e0e0">src.rag</text>
</g>
<!-- src_rag&#45;&gt;src_app -->
<g id="edge37" class="edge">
<title>src_rag&#45;&gt;src_app</title><style>.edge>path:hover{stroke-width:8}</style>
<path fill="none" stroke="#ffffff" d="M876.89,-127.43C885.53,-129.62 895.39,-132.12 904.79,-134.51"/>
<polygon fill="#bc3bce" stroke="#ffffff" points="903.9,-137.89 914.45,-136.96 905.62,-131.1 903.9,-137.89"/>
</g>
<!-- src_rag_chunker&#45;&gt;src_rag_loader -->
<g id="edge38" class="edge">
<title>src_rag_chunker&#45;&gt;src_rag_loader</title><style>.edge>path:hover{stroke-width:8}</style>
<path fill="none" stroke="#ffffff" d="M647.92,-65.57C659.8,-66.78 673.38,-68.17 686.41,-69.49"/>
<polygon fill="#9a38a8" stroke="#ffffff" points="685.86,-72.95 696.16,-70.48 686.57,-65.99 685.86,-72.95"/>
</g>
<!-- src_rag_embeddings&#45;&gt;src_rag_index -->
<g id="edge39" class="edge">
<title>src_rag_embeddings&#45;&gt;src_rag_index</title><style>.edge>path:hover{stroke-width:8}</style>
<path fill="none" stroke="#ffffff" d="M626.75,-546.29C637.38,-522.16 651.72,-487.02 660.47,-455.02 686.94,-358.18 659.33,-325.3 696.47,-232.02 701.99,-218.15 710.87,-204.27 719.23,-192.91"/>
<polygon fill="#9b2bac" stroke="#ffffff" points="721.82,-195.29 725.13,-185.23 716.26,-191.03 721.82,-195.29"/>
</g>
<!-- src_rag_embeddings&#45;&gt;src_rag_retriever -->
<g id="edge40" class="edge">
<title>src_rag_embeddings&#45;&gt;src_rag_retriever</title><style>.edge>path:hover{stroke-width:8}</style>
<path fill="none" stroke="#ffffff" d="M643.16,-551.92C649.56,-545.66 655.79,-538.54 660.47,-531.02 703.41,-461.93 724.95,-368.09 734.41,-314.4"/>
<polygon fill="#9b2bac" stroke="#ffffff" points="737.82,-315.19 736.05,-304.75 730.92,-314.02 737.82,-315.19"/>
</g>
<!-- src_rag_index&#45;&gt;src_app -->
<g id="edge41" class="edge">
<title>src_rag_index&#45;&gt;src_app</title><style>.edge>path:hover{stroke-width:8}</style>
<path fill="none" stroke="#ffffff" d="M785.04,-169.61C804.75,-170.15 828.47,-169.86 849.63,-167.02"/>
</g>
<!-- src_rag_llm&#45;&gt;src_app -->
<g id="edge42" class="edge">
<title>src_rag_llm&#45;&gt;src_app</title><style>.edge>path:hover{stroke-width:8}</style>
<path fill="none" stroke="#ffffff" d="M638.71,-268.06C646.6,-263.02 654.71,-256.62 660.47,-249.02 691.27,-208.35 661.99,-177.62 696.47,-140.02 710.93,-124.25 719.33,-121.78 740.72,-121.02"/>
</g>
<!-- src_rag_loader&#45;&gt;src_app -->
<g id="edge43" class="edge">
<title>src_rag_loader&#45;&gt;src_app</title><style>.edge>path:hover{stroke-width:8}</style>
<path fill="none" stroke="#ffffff" d="M765.99,-90.37C772.99,-95.37 780.52,-101.15 786.97,-107.02 815.49,-132.97 811.42,-172.16 849.63,-167.02"/>
<path fill="none" stroke="#ffffff" d="M851.63,-167.02C869.81,-164.58 889.6,-159.81 906.03,-155.25"/>
<polygon fill="#a13ab0" stroke="#ffffff" points="906.72,-158.7 915.36,-152.58 904.79,-151.97 906.72,-158.7"/>
</g>
<!-- src_rag_retriever&#45;&gt;src_app -->
<g id="edge44" class="edge">
<title>src_rag_retriever&#45;&gt;src_app</title><style>.edge>path:hover{stroke-width:8}</style>
<path fill="none" stroke="#ffffff" d="M765.9,-248.57C796.48,-217.74 846.77,-167.41 849.63,-167.02"/>
</g>
<!-- tiktoken -->
<g id="node23" class="node">
<title>tiktoken</title><style>.edge>path:hover{stroke-width:8}</style>
<ellipse fill="#b6539d" stroke="#ffffff" cx="306.4" cy="-57.02" rx="30.37" ry="18"/>
<text xml:space="preserve" text-anchor="middle" x="306.4" y="-53.52" font-family="Helvetica,sans-Serif" font-size="10.00" fill="#e0e0e0">tiktoken</text>
</g>
<!-- tiktoken&#45;&gt;src_rag_chunker -->
<g id="edge45" class="edge">
<title>tiktoken&#45;&gt;src_rag_chunker</title><style>.edge>path:hover{stroke-width:8}</style>
<path fill="none" stroke="#ffffff" d="M336.68,-54.5C357.23,-53.34 385.26,-53 409.59,-57.02"/>
</g>
<!-- typing&#45;&gt;dataclasses -->
<g id="edge46" class="edge">
<title>typing&#45;&gt;dataclasses</title><style>.edge>path:hover{stroke-width:8}</style>
<path fill="none" stroke="#ffffff" d="M186.83,-167.53C209.36,-156.79 242.14,-141.17 267.52,-129.07"/>
<polygon fill="#5a5a5a" stroke="#ffffff" points="269.01,-132.24 276.53,-124.78 266,-125.92 269.01,-132.24"/>
</g>
<!-- typing&#45;&gt;flask -->
<g id="edge47" class="edge">
<title>typing&#45;&gt;flask</title><style>.edge>path:hover{stroke-width:8}</style>
<path fill="none" stroke="#ffffff" d="M411.59,-157.02C431.73,-157.19 452.98,-164.69 469.56,-172.38"/>
<polygon fill="#5a5a5a" stroke="#ffffff" points="467.84,-175.44 478.36,-176.72 470.94,-169.16 467.84,-175.44"/>
</g>
<!-- typing&#45;&gt;functools -->
<g id="edge48" class="edge">
<title>typing&#45;&gt;functools</title><style>.edge>path:hover{stroke-width:8}</style>
<path fill="none" stroke="#ffffff" d="M198.15,-185.98C219.36,-189.35 245.81,-193.56 267.14,-196.94"/>
<polygon fill="#5a5a5a" stroke="#ffffff" points="198.75,-182.54 188.32,-184.42 197.65,-189.45 198.75,-182.54"/>
<polygon fill="#5a5a5a" stroke="#ffffff" points="266.47,-200.38 276.9,-198.49 267.57,-193.47 266.47,-200.38"/>
</g>
<!-- typing&#45;&gt;openai -->
<g id="edge49" class="edge">
<title>typing&#45;&gt;openai</title><style>.edge>path:hover{stroke-width:8}</style>
<path fill="none" stroke="#ffffff" d="M186.83,-193.97C211.47,-207.07 248.35,-226.68 274.43,-240.55"/>
<polygon fill="#5a5a5a" stroke="#ffffff" points="272.73,-243.61 283.2,-245.21 276.01,-237.43 272.73,-243.61"/>
</g>
<!-- typing&#45;&gt;src_app -->
<g id="edge50" class="edge">
<title>typing&#45;&gt;src_app</title><style>.edge>path:hover{stroke-width:8}</style>
<path fill="none" stroke="#ffffff" d="M613.03,-121.02C668.63,-109.67 683.99,-122.68 740.72,-121.02"/>
<path fill="none" stroke="#ffffff" d="M742.72,-121.02C794.42,-119.51 798.36,-173.91 849.63,-167.02"/>
</g>
<!-- typing&#45;&gt;src_rag_chunker -->
<g id="edge51" class="edge">
<title>typing&#45;&gt;src_rag_chunker</title><style>.edge>path:hover{stroke-width:8}</style>
<path fill="none" stroke="#ffffff" d="M411.59,-157.02C467.53,-157.49 445.1,-79.69 499.59,-67.02"/>
<path fill="none" stroke="#ffffff" d="M187.06,-175.82C232.47,-169 328.2,-156.34 409.59,-157.02"/>
</g>
<!-- typing&#45;&gt;src_rag_index -->
<g id="edge52" class="edge">
<title>typing&#45;&gt;src_rag_index</title><style>.edge>path:hover{stroke-width:8}</style>
<path fill="none" stroke="#ffffff" d="M411.59,-157.02C449.63,-156.39 444.4,-191.64 473.59,-216.02 484.58,-225.2 486.76,-228.68 499.59,-235.02"/>
<path fill="none" stroke="#ffffff" d="M613.03,-235.02C632.94,-233.84 677.29,-207.95 708.09,-188.47"/>
<polygon fill="#5a5a5a" stroke="#ffffff" points="709.75,-191.56 716.29,-183.22 705.98,-185.66 709.75,-191.56"/>
<path fill="none" stroke="#ffffff" d="M501.59,-235.02C545.2,-256.56 562.48,-237.91 611.03,-235.02"/>
</g>
<!-- typing&#45;&gt;src_rag_llm -->
<g id="edge53" class="edge">
<title>typing&#45;&gt;src_rag_llm</title><style>.edge>path:hover{stroke-width:8}</style>
<path fill="none" stroke="#ffffff" d="M501.59,-235.02C524.41,-246.29 550.68,-257.39 571.75,-265.86"/>
<polygon fill="#5a5a5a" stroke="#ffffff" points="570.27,-269.04 580.85,-269.48 572.85,-262.53 570.27,-269.04"/>
</g>
<!-- typing&#45;&gt;src_rag_loader -->
<g id="edge54" class="edge">
<title>typing&#45;&gt;src_rag_loader</title><style>.edge>path:hover{stroke-width:8}</style>
<path fill="none" stroke="#ffffff" d="M613.03,-121.02C643.39,-115.33 676.14,-103.41 700.87,-93.12"/>
<polygon fill="#5a5a5a" stroke="#ffffff" points="702.07,-96.42 709.9,-89.28 699.33,-89.98 702.07,-96.42"/>
<path fill="none" stroke="#ffffff" d="M411.59,-157.02C501.65,-155.52 522.5,-137.61 611.03,-121.02"/>
</g>
<!-- typing&#45;&gt;src_rag_retriever -->
<g id="edge55" class="edge">
<title>typing&#45;&gt;src_rag_retriever</title><style>.edge>path:hover{stroke-width:8}</style>
<path fill="none" stroke="#ffffff" d="M613.03,-235.02C642.63,-233.26 674.68,-242.59 699.27,-252.31"/>
<polygon fill="#5a5a5a" stroke="#ffffff" points="697.69,-255.45 708.26,-256.05 700.37,-248.98 697.69,-255.45"/>
</g>
</g>
</svg>

