<?xml version="1.0" encoding="UTF-8" standalone="no"?>
<!DOCTYPE svg PUBLIC "-//W3C//DTD SVG 1.1//EN"
 "http://www.w3.org/Graphics/SVG/1.1/DTD/svg11.dtd">
<!-- Generated by graphviz version 15.0.0 (20260523.1842)
 -->
<!-- Title: G Pages: 1 -->
<svg style="background-color:#141414" width="1182pt" height="696pt"
 viewBox="0.00 0.00 1182.00 696.00" xmlns="http://www.w3.org/2000/svg" xmlns:xlink="http://www.w3.org/1999/xlink">
<g id="graph0" class="graph" transform="scale(1 1) rotate(0) translate(4 692.11)">
<title>G</title><style>.edge>path:hover{stroke-width:8}</style>
<polygon fill="#141414" stroke="none" points="-4,4 -4,-692.11 1177.54,-692.11 1177.54,4 -4,4"/>
<!-- faiss -->
<g id="node1" class="node">
<title>faiss</title><style>.edge>path:hover{stroke-width:8}</style>
<ellipse fill="#d02424" stroke="#ffffff" cx="207.38" cy="-264" rx="27" ry="18"/>
<text xml:space="preserve" text-anchor="middle" x="207.38" y="-260.5" font-family="Helvetica,sans-Serif" font-size="10.00" fill="#e0e0e0">faiss</text>
</g>
<!-- src_rag_agentic_retriever -->
<g id="node18" class="node">
<title>src_rag_agentic_retriever</title><style>.edge>path:hover{stroke-width:8}</style>
<ellipse fill="#872db4" stroke="#ffffff" cx="634.15" cy="-287" rx="62.23" ry="31.11"/>
<text xml:space="preserve" text-anchor="middle" x="634.15" y="-295.5" font-family="Helvetica,sans-Serif" font-size="10.00" fill="#e0e0e0">src.</text>
<text xml:space="preserve" text-anchor="middle" x="634.15" y="-283.5" font-family="Helvetica,sans-Serif" font-size="10.00" fill="#e0e0e0">rag.</text>
<text xml:space="preserve" text-anchor="middle" x="634.15" y="-271.5" font-family="Helvetica,sans-Serif" font-size="10.00" fill="#e0e0e0">agentic_retriever</text>
</g>
<!-- faiss&#45;&gt;src_rag_agentic_retriever -->
<g id="edge1" class="edge">
<title>faiss&#45;&gt;src_rag_agentic_retriever</title><style>.edge>path:hover{stroke-width:8}</style>
<path fill="none" stroke="#ffffff" d="M230.68,-273.72C243.57,-278.98 260.22,-285.16 275.55,-289 388.24,-317.23 420.67,-326.58 535.93,-312 546.89,-310.61 558.38,-308.38 569.47,-305.81"/>
<polygon fill="#d02424" stroke="#ffffff" points="570.03,-309.27 578.91,-303.5 568.37,-302.47 570.03,-309.27"/>
</g>
<!-- src_rag_index -->
<g id="node22" class="node">
<title>src_rag_index</title><style>.edge>path:hover{stroke-width:8}</style>
<ellipse fill="#812bac" stroke="#ffffff" cx="490.68" cy="-151" rx="43.45" ry="18"/>
<text xml:space="preserve" text-anchor="middle" x="490.68" y="-147.5" font-family="Helvetica,sans-Serif" font-size="10.00" fill="#e0e0e0">src.rag.index</text>
</g>
<!-- faiss&#45;&gt;src_rag_index -->
<g id="edge2" class="edge">
<title>faiss&#45;&gt;src_rag_index</title><style>.edge>path:hover{stroke-width:8}</style>
<path fill="none" stroke="#ffffff" d="M233.4,-269.39C263.74,-274.99 316.24,-281.7 359.99,-272"/>
<path fill="none" stroke="#ffffff" d="M361.99,-272C384.06,-266.65 392.84,-268.52 409.43,-253 436.43,-227.74 420.63,-205.42 445.43,-178 447.58,-175.62 449.99,-173.38 452.54,-171.29"/>
<polygon fill="#d02424" stroke="#ffffff" points="454.32,-174.32 460.39,-165.64 450.23,-168.64 454.32,-174.32"/>
</g>
<!-- src_rag_retriever -->
<g id="node25" class="node">
<title>src_rag_retriever</title><style>.edge>path:hover{stroke-width:8}</style>
<ellipse fill="#8d2fbc" stroke="#ffffff" cx="490.68" cy="-272" rx="36.24" ry="31.11"/>
<text xml:space="preserve" text-anchor="middle" x="490.68" y="-280.5" font-family="Helvetica,sans-Serif" font-size="10.00" fill="#e0e0e0">src.</text>
<text xml:space="preserve" text-anchor="middle" x="490.68" y="-268.5" font-family="Helvetica,sans-Serif" font-size="10.00" fill="#e0e0e0">rag.</text>
<text xml:space="preserve" text-anchor="middle" x="490.68" y="-256.5" font-family="Helvetica,sans-Serif" font-size="10.00" fill="#e0e0e0">retriever</text>
</g>
<!-- faiss&#45;&gt;src_rag_retriever -->
<g id="edge3" class="edge">
<title>faiss&#45;&gt;src_rag_retriever</title><style>.edge>path:hover{stroke-width:8}</style>
<path fill="none" stroke="#ffffff" d="M361.99,-272C388.31,-266.16 418.43,-265.87 442.81,-267.17"/>
<polygon fill="#d02424" stroke="#ffffff" points="442.56,-270.66 452.76,-267.83 443.01,-263.68 442.56,-270.66"/>
</g>
<!-- flask -->
<g id="node2" class="node">
<title>flask</title><style>.edge>path:hover{stroke-width:8}</style>
<ellipse fill="#c09540" stroke="#ffffff" cx="490.68" cy="-205" rx="27" ry="18"/>
<text xml:space="preserve" text-anchor="middle" x="490.68" y="-201.5" font-family="Helvetica,sans-Serif" font-size="10.00" fill="#e0e0e0">flask</text>
</g>
<!-- src_app -->
<g id="node12" class="node">
<title>src_app</title><style>.edge>path:hover{stroke-width:8}</style>
<ellipse fill="#713091" stroke="#ffffff" cx="768.62" cy="-215" rx="29.01" ry="18"/>
<text xml:space="preserve" text-anchor="middle" x="768.62" y="-211.5" font-family="Helvetica,sans-Serif" font-size="10.00" fill="#e0e0e0">src.app</text>
</g>
<!-- flask&#45;&gt;src_app -->
<g id="edge4" class="edge">
<title>flask&#45;&gt;src_app</title><style>.edge>path:hover{stroke-width:8}</style>
<path fill="none" stroke="#ffffff" d="M512.82,-194.41C540.51,-181.91 590.56,-163.99 633.15,-174"/>
</g>
<!-- numpy -->
<g id="node3" class="node">
<title>numpy</title><style>.edge>path:hover{stroke-width:8}</style>
<ellipse fill="#a2e619" stroke="#ffffff" cx="69.6" cy="-264" rx="27.21" ry="18"/>
<text xml:space="preserve" text-anchor="middle" x="69.6" y="-260.5" font-family="Helvetica,sans-Serif" font-size="10.00" fill="#e0e0e0">numpy</text>
</g>
<!-- numpy&#45;&gt;faiss -->
<g id="edge5" class="edge">
<title>numpy&#45;&gt;faiss</title><style>.edge>path:hover{stroke-width:8}</style>
<path fill="none" stroke="#ffffff" d="M97.11,-264C117.48,-264 145.89,-264 168.64,-264"/>
<polygon fill="#a2e619" stroke="#ffffff" points="168.43,-267.5 178.43,-264 168.43,-260.5 168.43,-267.5"/>
</g>
<!-- src_rag_embeddings -->
<g id="node20" class="node">
<title>src_rag_embeddings</title><style>.edge>path:hover{stroke-width:8}</style>
<ellipse fill="#8d2fbc" stroke="#ffffff" cx="360.99" cy="-213" rx="48.44" ry="31.11"/>
<text xml:space="preserve" text-anchor="middle" x="360.99" y="-221.5" font-family="Helvetica,sans-Serif" font-size="10.00" fill="#e0e0e0">src.</text>
<text xml:space="preserve" text-anchor="middle" x="360.99" y="-209.5" font-family="Helvetica,sans-Serif" font-size="10.00" fill="#e0e0e0">rag.</text>
<text xml:space="preserve" text-anchor="middle" x="360.99" y="-197.5" font-family="Helvetica,sans-Serif" font-size="10.00" fill="#e0e0e0">embeddings</text>
</g>
<!-- numpy&#45;&gt;src_rag_embeddings -->
<g id="edge6" class="edge">
<title>numpy&#45;&gt;src_rag_embeddings</title><style>.edge>path:hover{stroke-width:8}</style>
<path fill="none" stroke="#ffffff" d="M208.38,-203C236.32,-192.48 246.26,-197.26 275.55,-203"/>
</g>
<!-- numpy&#45;&gt;src_rag_index -->
<g id="edge7" class="edge">
<title>numpy&#45;&gt;src_rag_index</title><style>.edge>path:hover{stroke-width:8}</style>
<path fill="none" stroke="#ffffff" d="M208.38,-203C253.47,-186.02 265.35,-182.67 312.55,-173 353.78,-164.56 401.11,-158.88 436.47,-155.41"/>
<polygon fill="#a2e619" stroke="#ffffff" points="436.37,-158.94 446,-154.51 435.71,-151.97 436.37,-158.94"/>
<path fill="none" stroke="#ffffff" d="M91.1,-252.69C117.12,-238.83 163.77,-215.64 206.38,-203"/>
</g>
<!-- numpy&#45;&gt;src_rag_retriever -->
<g id="edge8" class="edge">
<title>numpy&#45;&gt;src_rag_retriever</title><style>.edge>path:hover{stroke-width:8}</style>
<path fill="none" stroke="#ffffff" d="M94.37,-271.97C115.35,-278.56 146.93,-287.41 175.21,-291 216.41,-296.23 347.22,-292.31 409.43,-286 420.6,-284.87 432.56,-283.09 443.75,-281.18"/>
<polygon fill="#a2e619" stroke="#ffffff" points="444.35,-284.63 453.58,-279.42 443.12,-277.73 444.35,-284.63"/>
</g>
<!-- openai -->
<g id="node4" class="node">
<title>openai</title><style>.edge>path:hover{stroke-width:8}</style>
<ellipse fill="#40c040" stroke="#ffffff" cx="207.38" cy="-18" rx="27" ry="18"/>
<text xml:space="preserve" text-anchor="middle" x="207.38" y="-14.5" font-family="Helvetica,sans-Serif" font-size="10.00" fill="#e0e0e0">openai</text>
</g>
<!-- src_rag_llm -->
<g id="node23" class="node">
<title>src_rag_llm</title><style>.edge>path:hover{stroke-width:8}</style>
<ellipse fill="#9540c0" stroke="#ffffff" cx="490.68" cy="-26" rx="37.13" ry="18"/>
<text xml:space="preserve" text-anchor="middle" x="490.68" y="-22.5" font-family="Helvetica,sans-Serif" font-size="10.00" fill="#e0e0e0">src.rag.llm</text>
</g>
<!-- openai&#45;&gt;src_rag_llm -->
<g id="edge9" class="edge">
<title>openai&#45;&gt;src_rag_llm</title><style>.edge>path:hover{stroke-width:8}</style>
<path fill="none" stroke="#ffffff" d="M234.84,-18.75C282.29,-20.1 382.41,-22.95 442.06,-24.65"/>
<polygon fill="#40c040" stroke="#ffffff" points="441.81,-28.14 451.91,-24.93 442.01,-21.14 441.81,-28.14"/>
</g>
<!-- pytest -->
<g id="node5" class="node">
<title>pytest</title><style>.edge>path:hover{stroke-width:8}</style>
<ellipse fill="#53b695" stroke="#ffffff" cx="69.6" cy="-111" rx="27" ry="18"/>
<text xml:space="preserve" text-anchor="middle" x="69.6" y="-107.5" font-family="Helvetica,sans-Serif" font-size="10.00" fill="#e0e0e0">pytest</text>
</g>
<!-- pytest&#45;&gt;src_rag_embeddings -->
<g id="edge10" class="edge">
<title>pytest&#45;&gt;src_rag_embeddings</title><style>.edge>path:hover{stroke-width:8}</style>
<path fill="none" stroke="#ffffff" d="M208.38,-165C240.61,-176.74 241.89,-196.4 275.55,-203"/>
<path fill="none" stroke="#ffffff" d="M93.49,-119.96C106.83,-125.19 123.99,-131.94 139.21,-138 169.11,-149.89 176.15,-153.98 206.38,-165"/>
<path fill="none" stroke="#ffffff" d="M276.55,-203C284.53,-204.56 292.98,-205.92 301.32,-207.08"/>
<polygon fill="#53b695" stroke="#ffffff" points="300.71,-210.53 311.08,-208.36 301.62,-203.59 300.71,-210.53"/>
</g>
<!-- requests -->
<g id="node6" class="node">
<title>requests</title><style>.edge>path:hover{stroke-width:8}</style>
<ellipse fill="#3399cc" stroke="#ffffff" cx="207.38" cy="-641" rx="32.17" ry="18"/>
<text xml:space="preserve" text-anchor="middle" x="207.38" y="-637.5" font-family="Helvetica,sans-Serif" font-size="10.00" fill="#e0e0e0">requests</text>
</g>
<!-- src_llm -->
<g id="node13" class="node">
<title>src_llm</title><style>.edge>path:hover{stroke-width:8}</style>
<ellipse fill="#9d26d9" stroke="#ffffff" cx="360.99" cy="-579" rx="27.21" ry="18"/>
<text xml:space="preserve" text-anchor="middle" x="360.99" y="-575.5" font-family="Helvetica,sans-Serif" font-size="10.00" fill="#e0e0e0">src.llm</text>
</g>
<!-- requests&#45;&gt;src_llm -->
<g id="edge11" class="edge">
<title>requests&#45;&gt;src_llm</title><style>.edge>path:hover{stroke-width:8}</style>
<path fill="none" stroke="#ffffff" d="M239.68,-643.26C251.05,-643.48 263.95,-643.05 275.55,-641"/>
<path fill="none" stroke="#ffffff" d="M276.55,-641C301.44,-636.6 324.07,-618.46 339.47,-602.92"/>
<polygon fill="#3399cc" stroke="#ffffff" points="341.9,-605.45 346.2,-595.77 336.8,-600.65 341.9,-605.45"/>
</g>
<!-- src_mcp_client_client -->
<g id="node16" class="node">
<title>src_mcp_client_client</title><style>.edge>path:hover{stroke-width:8}</style>
<ellipse fill="#9933cc" stroke="#ffffff" cx="634.15" cy="-657" rx="46.85" ry="31.11"/>
<text xml:space="preserve" text-anchor="middle" x="634.15" y="-665.5" font-family="Helvetica,sans-Serif" font-size="10.00" fill="#e0e0e0">src.</text>
<text xml:space="preserve" text-anchor="middle" x="634.15" y="-653.5" font-family="Helvetica,sans-Serif" font-size="10.00" fill="#e0e0e0">mcp_client.</text>
<text xml:space="preserve" text-anchor="middle" x="634.15" y="-641.5" font-family="Helvetica,sans-Serif" font-size="10.00" fill="#e0e0e0">client</text>
</g>
<!-- requests&#45;&gt;src_mcp_client_client -->
<g id="edge12" class="edge">
<title>requests&#45;&gt;src_mcp_client_client</title><style>.edge>path:hover{stroke-width:8}</style>
<path fill="none" stroke="#ffffff" d="M276.55,-641C381.62,-622.43 506.65,-636.07 577.28,-647"/>
<polygon fill="#3399cc" stroke="#ffffff" points="576.63,-650.44 587.06,-648.56 577.73,-643.53 576.63,-650.44"/>
</g>
<!-- sentence_transformers -->
<g id="node7" class="node">
<title>sentence_transformers</title><style>.edge>path:hover{stroke-width:8}</style>
<ellipse fill="#4040c0" stroke="#ffffff" cx="69.6" cy="-165" rx="69.6" ry="18"/>
<text xml:space="preserve" text-anchor="middle" x="69.6" y="-161.5" font-family="Helvetica,sans-Serif" font-size="10.00" fill="#e0e0e0">sentence_transformers</text>
</g>
<!-- sentence_transformers&#45;&gt;src_rag_embeddings -->
<g id="edge13" class="edge">
<title>sentence_transformers&#45;&gt;src_rag_embeddings</title><style>.edge>path:hover{stroke-width:8}</style>
<path fill="none" stroke="#ffffff" d="M130.97,-156.22C155.08,-154.95 182.68,-156.36 206.38,-165"/>
</g>
<!-- src_agent -->
<g id="node8" class="node">
<title>src_agent</title><style>.edge>path:hover{stroke-width:8}</style>
<ellipse fill="#9d3bce" stroke="#ffffff" cx="1004.04" cy="-353" rx="33.98" ry="18"/>
<text xml:space="preserve" text-anchor="middle" x="1004.04" y="-349.5" font-family="Helvetica,sans-Serif" font-size="10.00" fill="#e0e0e0">src.agent</text>
</g>
<!-- src_agent_main -->
<g id="node11" class="node">
<title>src_agent_main</title><style>.edge>path:hover{stroke-width:8}</style>
<ellipse fill="#572e6b" stroke="#ffffff" cx="1123.78" cy="-330" rx="49.76" ry="18"/>
<text xml:space="preserve" text-anchor="middle" x="1123.78" y="-326.5" font-family="Helvetica,sans-Serif" font-size="10.00" fill="#e0e0e0">src.agent_main</text>
</g>
<!-- src_agent&#45;&gt;src_agent_main -->
<g id="edge14" class="edge">
<title>src_agent&#45;&gt;src_agent_main</title><style>.edge>path:hover{stroke-width:8}</style>
<path fill="none" stroke="#ffffff" d="M1036.28,-346.9C1046.09,-344.98 1057.22,-342.81 1068.16,-340.67"/>
<polygon fill="#9d3bce" stroke="#ffffff" points="1068.79,-344.11 1077.93,-338.76 1067.45,-337.24 1068.79,-344.11"/>
</g>
<!-- src_agent_loop -->
<g id="node9" class="node">
<title>src_agent_loop</title><style>.edge>path:hover{stroke-width:8}</style>
<ellipse fill="#5f287a" stroke="#ffffff" cx="887.46" cy="-404" rx="46.6" ry="18"/>
<text xml:space="preserve" text-anchor="middle" x="887.46" y="-400.5" font-family="Helvetica,sans-Serif" font-size="10.00" fill="#e0e0e0">src.agent.loop</text>
</g>
<!-- src_agent_loop&#45;&gt;src_agent_main -->
<g id="edge15" class="edge">
<title>src_agent_loop&#45;&gt;src_agent_main</title><style>.edge>path:hover{stroke-width:8}</style>
<path fill="none" stroke="#ffffff" d="M899.23,-386.45C917.01,-359.84 955.33,-311.85 1003.04,-307"/>
</g>
<!-- src_agent_prompts -->
<g id="node10" class="node">
<title>src_agent_prompts</title><style>.edge>path:hover{stroke-width:8}</style>
<ellipse fill="#9947c2" stroke="#ffffff" cx="768.62" cy="-404" rx="36.24" ry="31.11"/>
<text xml:space="preserve" text-anchor="middle" x="768.62" y="-412.5" font-family="Helvetica,sans-Serif" font-size="10.00" fill="#e0e0e0">src.</text>
<text xml:space="preserve" text-anchor="middle" x="768.62" y="-400.5" font-family="Helvetica,sans-Serif" font-size="10.00" fill="#e0e0e0">agent.</text>
<text xml:space="preserve" text-anchor="middle" x="768.62" y="-388.5" font-family="Helvetica,sans-Serif" font-size="10.00" fill="#e0e0e0">prompts</text>
</g>
<!-- src_agent_prompts&#45;&gt;src_agent_loop -->
<g id="edge16" class="edge">
<title>src_agent_prompts&#45;&gt;src_agent_loop</title><style>.edge>path:hover{stroke-width:8}</style>
<path fill="none" stroke="#ffffff" d="M805.31,-404C812.88,-404 821.06,-404 829.2,-404"/>
<polygon fill="#9947c2" stroke="#ffffff" points="829.12,-407.5 839.12,-404 829.12,-400.5 829.12,-407.5"/>
</g>
<!-- src_main -->
<g id="node14" class="node">
<title>src_main</title><style>.edge>path:hover{stroke-width:8}</style>
<ellipse fill="#8b49ac" stroke="#ffffff" cx="887.46" cy="-215" rx="32.17" ry="18"/>
<text xml:space="preserve" text-anchor="middle" x="887.46" y="-211.5" font-family="Helvetica,sans-Serif" font-size="10.00" fill="#e0e0e0">src.main</text>
</g>
<!-- src_app&#45;&gt;src_main -->
<g id="edge17" class="edge">
<title>src_app&#45;&gt;src_main</title><style>.edge>path:hover{stroke-width:8}</style>
<path fill="none" stroke="#ffffff" d="M797.9,-215C811.68,-215 828.54,-215 843.83,-215"/>
<polygon fill="#713091" stroke="#ffffff" points="843.64,-218.5 853.64,-215 843.64,-211.5 843.64,-218.5"/>
</g>
<!-- src_llm&#45;&gt;src_agent_loop -->
<g id="edge18" class="edge">
<title>src_llm&#45;&gt;src_agent_loop</title><style>.edge>path:hover{stroke-width:8}</style>
<path fill="none" stroke="#ffffff" d="M381.4,-566.52C405.66,-551.63 448.95,-527.33 489.68,-516"/>
<path fill="none" stroke="#ffffff" d="M491.68,-516C537.56,-503.24 527.39,-461.87 571.93,-445 623.65,-425.4 641.49,-438.17 696.38,-445 728.79,-449.03 736.63,-473.31 767.62,-463"/>
<path fill="none" stroke="#ffffff" d="M769.62,-463C798.25,-452.95 828.81,-437.33 851.49,-424.69"/>
<polygon fill="#9d26d9" stroke="#ffffff" points="853.03,-427.84 860,-419.86 849.58,-421.75 853.03,-427.84"/>
</g>
<!-- src_llm&#45;&gt;src_agent_main -->
<g id="edge19" class="edge">
<title>src_llm&#45;&gt;src_agent_main</title><style>.edge>path:hover{stroke-width:8}</style>
<path fill="none" stroke="#ffffff" d="M491.68,-516C535.55,-504.55 529.84,-562.13 571.93,-579 653.04,-611.51 681.51,-612.86 767.62,-598"/>
</g>
<!-- src_rag_rewriter -->
<g id="node26" class="node">
<title>src_rag_rewriter</title><style>.edge>path:hover{stroke-width:8}</style>
<ellipse fill="#9331c4" stroke="#ffffff" cx="634.15" cy="-485" rx="34.12" ry="31.11"/>
<text xml:space="preserve" text-anchor="middle" x="634.15" y="-493.5" font-family="Helvetica,sans-Serif" font-size="10.00" fill="#e0e0e0">src.</text>
<text xml:space="preserve" text-anchor="middle" x="634.15" y="-481.5" font-family="Helvetica,sans-Serif" font-size="10.00" fill="#e0e0e0">rag.</text>
<text xml:space="preserve" text-anchor="middle" x="634.15" y="-469.5" font-family="Helvetica,sans-Serif" font-size="10.00" fill="#e0e0e0">rewriter</text>
</g>
<!-- src_llm&#45;&gt;src_rag_rewriter -->
<g id="edge20" class="edge">
<title>src_llm&#45;&gt;src_rag_rewriter</title><style>.edge>path:hover{stroke-width:8}</style>
<path fill="none" stroke="#ffffff" d="M491.68,-516C524.04,-507 561.15,-498.95 589.25,-493.31"/>
<polygon fill="#9d26d9" stroke="#ffffff" points="589.69,-496.79 598.82,-491.41 588.33,-489.92 589.69,-496.79"/>
</g>
<!-- src_mcp_client -->
<g id="node15" class="node">
<title>src_mcp_client</title><style>.edge>path:hover{stroke-width:8}</style>
<ellipse fill="#9d3bce" stroke="#ffffff" cx="634.15" cy="-552" rx="47.96" ry="18"/>
<text xml:space="preserve" text-anchor="middle" x="634.15" y="-548.5" font-family="Helvetica,sans-Serif" font-size="10.00" fill="#e0e0e0">src.mcp_client</text>
</g>
<!-- src_mcp_client&#45;&gt;src_agent_loop -->
<g id="edge21" class="edge">
<title>src_mcp_client&#45;&gt;src_agent_loop</title><style>.edge>path:hover{stroke-width:8}</style>
<path fill="none" stroke="#ffffff" d="M668.82,-539.32C678.04,-535.27 687.85,-530.42 696.38,-525 731.81,-502.5 727.79,-476.25 767.62,-463"/>
</g>
<!-- src_mcp_client&#45;&gt;src_agent_main -->
<g id="edge22" class="edge">
<title>src_mcp_client&#45;&gt;src_agent_main</title><style>.edge>path:hover{stroke-width:8}</style>
<path fill="none" stroke="#ffffff" d="M769.62,-598C823.43,-588.72 841.86,-591.51 886.46,-560"/>
<path fill="none" stroke="#ffffff" d="M665.08,-566.2C697.62,-580.95 747.65,-601.45 767.62,-598"/>
</g>
<!-- src_mcp_client_client&#45;&gt;src_agent_loop -->
<g id="edge23" class="edge">
<title>src_mcp_client_client&#45;&gt;src_agent_loop</title><style>.edge>path:hover{stroke-width:8}</style>
<path fill="none" stroke="#ffffff" d="M660.63,-631.35C709.01,-582.64 813.62,-477.33 861.56,-429.07"/>
<polygon fill="#9933cc" stroke="#ffffff" points="863.92,-431.66 868.48,-422.1 858.95,-426.73 863.92,-431.66"/>
</g>
<!-- src_mcp_client_client&#45;&gt;src_agent_main -->
<g id="edge24" class="edge">
<title>src_mcp_client_client&#45;&gt;src_agent_main</title><style>.edge>path:hover{stroke-width:8}</style>
<path fill="none" stroke="#ffffff" d="M669.33,-636.09C695.23,-621.69 732.27,-604.1 767.62,-598"/>
</g>
<!-- src_rag -->
<g id="node17" class="node">
<title>src_rag</title><style>.edge>path:hover{stroke-width:8}</style>
<ellipse fill="#a916f3" stroke="#ffffff" cx="634.15" cy="-220" rx="27.66" ry="18"/>
<text xml:space="preserve" text-anchor="middle" x="634.15" y="-216.5" font-family="Helvetica,sans-Serif" font-size="10.00" fill="#e0e0e0">src.rag</text>
</g>
<!-- src_rag&#45;&gt;src_agent_loop -->
<g id="edge25" class="edge">
<title>src_rag&#45;&gt;src_agent_loop</title><style>.edge>path:hover{stroke-width:8}</style>
<path fill="none" stroke="#ffffff" d="M769.62,-345C796.79,-357.14 826.73,-372.3 849.5,-384.21"/>
<polygon fill="#a916f3" stroke="#ffffff" points="847.61,-387.17 858.09,-388.73 850.87,-380.97 847.61,-387.17"/>
<path fill="none" stroke="#ffffff" d="M660.13,-226.58C672.26,-230.79 686.34,-237.33 696.38,-247 722.72,-272.37 708.46,-293.33 732.38,-321 744.77,-335.34 750.32,-337.27 767.62,-345"/>
</g>
<!-- src_rag&#45;&gt;src_agent_main -->
<g id="edge26" class="edge">
<title>src_rag&#45;&gt;src_agent_main</title><style>.edge>path:hover{stroke-width:8}</style>
<path fill="none" stroke="#ffffff" d="M769.62,-307C873.19,-313.01 899.83,-317.49 1003.04,-307"/>
<path fill="none" stroke="#ffffff" d="M658.91,-228.64C670.59,-233.34 684.65,-239.68 696.38,-247 731.5,-268.91 726.36,-303.67 767.62,-307"/>
</g>
<!-- src_rag&#45;&gt;src_app -->
<g id="edge27" class="edge">
<title>src_rag&#45;&gt;src_app</title><style>.edge>path:hover{stroke-width:8}</style>
<path fill="none" stroke="#ffffff" d="M661.96,-218.99C680.97,-218.27 706.79,-217.3 728.15,-216.49"/>
<polygon fill="#a916f3" stroke="#ffffff" points="728.11,-219.99 737.97,-216.12 727.84,-213 728.11,-219.99"/>
</g>
<!-- src_rag_agentic_retriever&#45;&gt;src_agent_loop -->
<g id="edge28" class="edge">
<title>src_rag_agentic_retriever&#45;&gt;src_agent_loop</title><style>.edge>path:hover{stroke-width:8}</style>
<path fill="none" stroke="#ffffff" d="M682.13,-307.36C707.49,-318.41 739.31,-332.35 767.62,-345"/>
</g>
<!-- src_rag_agentic_retriever&#45;&gt;src_agent_main -->
<g id="edge29" class="edge">
<title>src_rag_agentic_retriever&#45;&gt;src_agent_main</title><style>.edge>path:hover{stroke-width:8}</style>
<path fill="none" stroke="#ffffff" d="M692.62,-298.03C715.81,-301.86 742.89,-305.56 767.62,-307"/>
</g>
<!-- src_rag_chunker -->
<g id="node19" class="node">
<title>src_rag_chunker</title><style>.edge>path:hover{stroke-width:8}</style>
<ellipse fill="#9540c0" stroke="#ffffff" cx="360.99" cy="-95" rx="35.71" ry="31.11"/>
<text xml:space="preserve" text-anchor="middle" x="360.99" y="-103.5" font-family="Helvetica,sans-Serif" font-size="10.00" fill="#e0e0e0">src.</text>
<text xml:space="preserve" text-anchor="middle" x="360.99" y="-91.5" font-family="Helvetica,sans-Serif" font-size="10.00" fill="#e0e0e0">rag.</text>
<text xml:space="preserve" text-anchor="middle" x="360.99" y="-79.5" font-family="Helvetica,sans-Serif" font-size="10.00" fill="#e0e0e0">chunker</text>
</g>
<!-- src_rag_loader -->
<g id="node24" class="node">
<title>src_rag_loader</title><style>.edge>path:hover{stroke-width:8}</style>
<ellipse fill="#9540c0" stroke="#ffffff" cx="490.68" cy="-96" rx="45.25" ry="18"/>
<text xml:space="preserve" text-anchor="middle" x="490.68" y="-92.5" font-family="Helvetica,sans-Serif" font-size="10.00" fill="#e0e0e0">src.rag.loader</text>
</g>
<!-- src_rag_chunker&#45;&gt;src_rag_loader -->
<g id="edge30" class="edge">
<title>src_rag_chunker&#45;&gt;src_rag_loader</title><style>.edge>path:hover{stroke-width:8}</style>
<path fill="none" stroke="#ffffff" d="M396.88,-95.27C408.3,-95.36 421.29,-95.46 433.85,-95.56"/>
<polygon fill="#9540c0" stroke="#ffffff" points="433.68,-99.06 443.71,-95.64 433.73,-92.06 433.68,-99.06"/>
</g>
<!-- src_rag_embeddings&#45;&gt;src_rag_index -->
<g id="edge31" class="edge">
<title>src_rag_embeddings&#45;&gt;src_rag_index</title><style>.edge>path:hover{stroke-width:8}</style>
<path fill="none" stroke="#ffffff" d="M400.3,-194.4C416.45,-186.56 435.21,-177.45 451.36,-169.61"/>
<polygon fill="#8d2fbc" stroke="#ffffff" points="452.71,-172.84 460.18,-165.32 449.66,-166.54 452.71,-172.84"/>
</g>
<!-- src_rag_embeddings&#45;&gt;src_rag_retriever -->
<g id="edge32" class="edge">
<title>src_rag_embeddings&#45;&gt;src_rag_retriever</title><style>.edge>path:hover{stroke-width:8}</style>
<path fill="none" stroke="#ffffff" d="M400.99,-231.02C415.89,-237.91 432.93,-245.78 448.06,-252.77"/>
<polygon fill="#8d2fbc" stroke="#ffffff" points="446.26,-255.79 456.81,-256.81 449.2,-249.44 446.26,-255.79"/>
</g>
<!-- src_rag_evaluator -->
<g id="node21" class="node">
<title>src_rag_evaluator</title><style>.edge>path:hover{stroke-width:8}</style>
<ellipse fill="#9d3bce" stroke="#ffffff" cx="634.15" cy="-367" rx="39.42" ry="31.11"/>
<text xml:space="preserve" text-anchor="middle" x="634.15" y="-375.5" font-family="Helvetica,sans-Serif" font-size="10.00" fill="#e0e0e0">src.</text>
<text xml:space="preserve" text-anchor="middle" x="634.15" y="-363.5" font-family="Helvetica,sans-Serif" font-size="10.00" fill="#e0e0e0">rag.</text>
<text xml:space="preserve" text-anchor="middle" x="634.15" y="-351.5" font-family="Helvetica,sans-Serif" font-size="10.00" fill="#e0e0e0">evaluator</text>
</g>
<!-- src_rag_evaluator&#45;&gt;src_agent_loop -->
<g id="edge33" class="edge">
<title>src_rag_evaluator&#45;&gt;src_agent_loop</title><style>.edge>path:hover{stroke-width:8}</style>
<path fill="none" stroke="#ffffff" d="M668.61,-351.26C696.23,-340.61 735.91,-330.83 767.62,-345"/>
</g>
<!-- src_rag_evaluator&#45;&gt;src_agent_main -->
<g id="edge34" class="edge">
<title>src_rag_evaluator&#45;&gt;src_agent_main</title><style>.edge>path:hover{stroke-width:8}</style>
<path fill="none" stroke="#ffffff" d="M666.47,-348.69C698.7,-330.61 747.01,-305.8 767.62,-307"/>
</g>
<!-- src_rag_index&#45;&gt;src_agent_main -->
<g id="edge35" class="edge">
<title>src_rag_index&#45;&gt;src_agent_main</title><style>.edge>path:hover{stroke-width:8}</style>
<path fill="none" stroke="#ffffff" d="M1005.04,-307C1028.76,-304.47 1054.82,-308.81 1076.38,-314.38"/>
<polygon fill="#812bac" stroke="#ffffff" points="1075.18,-317.67 1085.75,-316.97 1077.05,-310.93 1075.18,-317.67"/>
<path fill="none" stroke="#ffffff" d="M529.87,-142.93C611.64,-127.89 806.53,-104.19 934.06,-188 985.15,-221.57 942.25,-313.48 1003.04,-307"/>
</g>
<!-- src_rag_index&#45;&gt;src_app -->
<g id="edge36" class="edge">
<title>src_rag_index&#45;&gt;src_app</title><style>.edge>path:hover{stroke-width:8}</style>
<path fill="none" stroke="#ffffff" d="M532.83,-156.15C561.22,-160.07 599.72,-166.14 633.15,-174"/>
</g>
<!-- src_rag_llm&#45;&gt;src_app -->
<g id="edge37" class="edge">
<title>src_rag_llm&#45;&gt;src_app</title><style>.edge>path:hover{stroke-width:8}</style>
<path fill="none" stroke="#ffffff" d="M508.69,-42.13C517.01,-50.11 527.1,-59.95 535.93,-69 580.35,-114.51 571.24,-159.45 633.15,-174"/>
<path fill="none" stroke="#ffffff" d="M635.15,-174C668.58,-181.86 705.87,-193.68 732.35,-202.62"/>
<polygon fill="#9540c0" stroke="#ffffff" points="730.97,-205.85 741.57,-205.76 733.23,-199.22 730.97,-205.85"/>
</g>
<!-- src_rag_loader&#45;&gt;src_app -->
<g id="edge38" class="edge">
<title>src_rag_loader&#45;&gt;src_app</title><style>.edge>path:hover{stroke-width:8}</style>
<path fill="none" stroke="#ffffff" d="M515.74,-111.37C549.28,-132.41 608.72,-168.26 633.15,-174"/>
</g>
<!-- src_rag_retriever&#45;&gt;src_app -->
<g id="edge39" class="edge">
<title>src_rag_retriever&#45;&gt;src_app</title><style>.edge>path:hover{stroke-width:8}</style>
<path fill="none" stroke="#ffffff" d="M516.85,-249.96C523.18,-244.22 529.89,-237.97 535.93,-232 571.69,-196.61 584.17,-162.49 633.15,-174"/>
</g>
<!-- src_rag_retriever&#45;&gt;src_rag_agentic_retriever -->
<g id="edge40" class="edge">
<title>src_rag_retriever&#45;&gt;src_rag_agentic_retriever</title><style>.edge>path:hover{stroke-width:8}</style>
<path fill="none" stroke="#ffffff" d="M527.01,-275.75C537.67,-276.88 549.76,-278.16 561.88,-279.44"/>
<polygon fill="#8d2fbc" stroke="#ffffff" points="561.15,-282.89 571.47,-280.46 561.89,-275.92 561.15,-282.89"/>
</g>
<!-- src_rag_rewriter&#45;&gt;src_agent_loop -->
<g id="edge41" class="edge">
<title>src_rag_rewriter&#45;&gt;src_agent_loop</title><style>.edge>path:hover{stroke-width:8}</style>
<path fill="none" stroke="#ffffff" d="M668.51,-482.37C695.72,-479.54 734.88,-473.89 767.62,-463"/>
</g>
<!-- src_rag_rewriter&#45;&gt;src_agent_main -->
<g id="edge42" class="edge">
<title>src_rag_rewriter&#45;&gt;src_agent_main</title><style>.edge>path:hover{stroke-width:8}</style>
<path fill="none" stroke="#ffffff" d="M664.35,-499.61C722.18,-527.6 848.98,-584 886.46,-560"/>
<path fill="none" stroke="#ffffff" d="M888.46,-560C989.28,-488.78 880.3,-320.08 1003.04,-307"/>
</g>
<!-- tiktoken -->
<g id="node27" class="node">
<title>tiktoken</title><style>.edge>path:hover{stroke-width:8}</style>
<ellipse fill="#b65395" stroke="#ffffff" cx="69.6" cy="-57" rx="30.37" ry="18"/>
<text xml:space="preserve" text-anchor="middle" x="69.6" y="-53.5" font-family="Helvetica,sans-Serif" font-size="10.00" fill="#e0e0e0">tiktoken</text>
</g>
<!-- tiktoken&#45;&gt;src_rag_chunker -->
<g id="edge43" class="edge">
<title>tiktoken&#45;&gt;src_rag_chunker</title><style>.edge>path:hover{stroke-width:8}</style>
<path fill="none" stroke="#ffffff" d="M99.68,-60.82C150.17,-67.45 254.42,-81.14 314.55,-89.03"/>
<polygon fill="#b65395" stroke="#ffffff" points="313.72,-92.45 324.09,-90.29 314.64,-85.51 313.72,-92.45"/>
</g>
</g>
</svg>

