<?xml version="1.0" encoding="UTF-8" standalone="no"?>
<!DOCTYPE svg PUBLIC "-//W3C//DTD SVG 1.1//EN"
 "http://www.w3.org/Graphics/SVG/1.1/DTD/svg11.dtd">
<!-- Generated by graphviz version 15.0.0 (20260523.1842)
 -->
<!-- Title: G Pages: 1 -->
<svg style="background-color:#141414" width="1227pt" height="611pt"
 viewBox="0.00 0.00 1227.00 611.00" xmlns="http://www.w3.org/2000/svg" xmlns:xlink="http://www.w3.org/1999/xlink">
<g id="graph0" class="graph" transform="scale(1 1) rotate(0) translate(4 606.89)">
<title>G</title><style>.edge>path:hover{stroke-width:8}</style>
<polygon fill="#141414" stroke="none" points="-4,4 -4,-606.89 1223.04,-606.89 1223.04,4 -4,4"/>
<!-- agent_runner_py -->
<g id="node1" class="node">
<title>agent_runner_py</title><style>.edge>path:hover{stroke-width:8}</style>
<ellipse fill="#633535" stroke="#ffffff" cx="1165.83" cy="-492.68" rx="53.21" ry="22.63"/>
<text xml:space="preserve" text-anchor="middle" x="1165.83" y="-495.18" font-family="Helvetica,sans-Serif" font-size="10.00" fill="#e0e0e0">agent_runner.</text>
<text xml:space="preserve" text-anchor="middle" x="1165.83" y="-483.18" font-family="Helvetica,sans-Serif" font-size="10.00" fill="#e0e0e0">py</text>
</g>
<!-- faiss -->
<g id="node2" class="node">
<title>faiss</title><style>.edge>path:hover{stroke-width:8}</style>
<ellipse fill="#aed024" stroke="#ffffff" cx="217.76" cy="-152.68" rx="27" ry="18"/>
<text xml:space="preserve" text-anchor="middle" x="217.76" y="-149.18" font-family="Helvetica,sans-Serif" font-size="10.00" fill="#e0e0e0">faiss</text>
</g>
<!-- src_rag_agentic_retriever -->
<g id="node12" class="node">
<title>src_rag_agentic_retriever</title><style>.edge>path:hover{stroke-width:8}</style>
<ellipse fill="#9238a8" stroke="#ffffff" cx="635.76" cy="-121.68" rx="62.23" ry="31.11"/>
<text xml:space="preserve" text-anchor="middle" x="635.76" y="-130.18" font-family="Helvetica,sans-Serif" font-size="10.00" fill="#e0e0e0">src.</text>
<text xml:space="preserve" text-anchor="middle" x="635.76" y="-118.18" font-family="Helvetica,sans-Serif" font-size="10.00" fill="#e0e0e0">rag.</text>
<text xml:space="preserve" text-anchor="middle" x="635.76" y="-106.18" font-family="Helvetica,sans-Serif" font-size="10.00" fill="#e0e0e0">agentic_retriever</text>
</g>
<!-- faiss&#45;&gt;src_rag_agentic_retriever -->
<g id="edge1" class="edge">
<title>faiss&#45;&gt;src_rag_agentic_retriever</title><style>.edge>path:hover{stroke-width:8}</style>
<path fill="none" stroke="#ffffff" d="M367.2,-185.68C443.52,-181.24 463.75,-181.72 537.53,-161.68 551.29,-157.95 565.71,-152.77 579.1,-147.37"/>
<polygon fill="#aed024" stroke="#ffffff" points="580.29,-150.67 588.18,-143.6 577.61,-144.2 580.29,-150.67"/>
</g>
<!-- src_rag_index -->
<g id="node17" class="node">
<title>src_rag_index</title><style>.edge>path:hover{stroke-width:8}</style>
<ellipse fill="#854096" stroke="#ffffff" cx="494.08" cy="-50.68" rx="43.45" ry="18"/>
<text xml:space="preserve" text-anchor="middle" x="494.08" y="-47.18" font-family="Helvetica,sans-Serif" font-size="10.00" fill="#e0e0e0">src.rag.index</text>
</g>
<!-- faiss&#45;&gt;src_rag_index -->
<g id="edge2" class="edge">
<title>faiss&#45;&gt;src_rag_index</title><style>.edge>path:hover{stroke-width:8}</style>
<path fill="none" stroke="#ffffff" d="M239.36,-163.8C251.13,-169.17 266.37,-174.5 280.76,-174.68"/>
<path fill="none" stroke="#ffffff" d="M281.76,-174.68C301.78,-174.94 406.66,-107.75 460.75,-72.18"/>
<polygon fill="#aed024" stroke="#ffffff" points="462.54,-75.19 468.96,-66.76 458.69,-69.35 462.54,-75.19"/>
</g>
<!-- src_rag_retriever -->
<g id="node18" class="node">
<title>src_rag_retriever</title><style>.edge>path:hover{stroke-width:8}</style>
<ellipse fill="#9246a4" stroke="#ffffff" cx="494.08" cy="-121.68" rx="36.24" ry="31.11"/>
<text xml:space="preserve" text-anchor="middle" x="494.08" y="-130.18" font-family="Helvetica,sans-Serif" font-size="10.00" fill="#e0e0e0">src.</text>
<text xml:space="preserve" text-anchor="middle" x="494.08" y="-118.18" font-family="Helvetica,sans-Serif" font-size="10.00" fill="#e0e0e0">rag.</text>
<text xml:space="preserve" text-anchor="middle" x="494.08" y="-106.18" font-family="Helvetica,sans-Serif" font-size="10.00" fill="#e0e0e0">retriever</text>
</g>
<!-- faiss&#45;&gt;src_rag_retriever -->
<g id="edge3" class="edge">
<title>faiss&#45;&gt;src_rag_retriever</title><style>.edge>path:hover{stroke-width:8}</style>
<path fill="none" stroke="#ffffff" d="M367.2,-185.68C400.33,-183.75 433.62,-165.97 457.63,-149.64"/>
<polygon fill="#aed024" stroke="#ffffff" points="459.62,-152.52 465.77,-143.9 455.58,-146.81 459.62,-152.52"/>
<path fill="none" stroke="#ffffff" d="M281.76,-174.68C319.17,-175.17 327.86,-187.86 365.2,-185.68"/>
</g>
<!-- numpy -->
<g id="node3" class="node">
<title>numpy</title><style>.edge>path:hover{stroke-width:8}</style>
<ellipse fill="#19e66b" stroke="#ffffff" cx="127.55" cy="-129.68" rx="27.21" ry="18"/>
<text xml:space="preserve" text-anchor="middle" x="127.55" y="-126.18" font-family="Helvetica,sans-Serif" font-size="10.00" fill="#e0e0e0">numpy</text>
</g>
<!-- numpy&#45;&gt;faiss -->
<g id="edge4" class="edge">
<title>numpy&#45;&gt;faiss</title><style>.edge>path:hover{stroke-width:8}</style>
<path fill="none" stroke="#ffffff" d="M153.13,-136.09C161.75,-138.34 171.63,-140.92 180.98,-143.35"/>
<polygon fill="#19e66b" stroke="#ffffff" points="179.99,-146.71 190.55,-145.85 181.76,-139.94 179.99,-146.71"/>
</g>
<!-- src_rag_embeddings -->
<g id="node15" class="node">
<title>src_rag_embeddings</title><style>.edge>path:hover{stroke-width:8}</style>
<ellipse fill="#a640c0" stroke="#ffffff" cx="366.2" cy="-50.68" rx="48.44" ry="31.11"/>
<text xml:space="preserve" text-anchor="middle" x="366.2" y="-59.18" font-family="Helvetica,sans-Serif" font-size="10.00" fill="#e0e0e0">src.</text>
<text xml:space="preserve" text-anchor="middle" x="366.2" y="-47.18" font-family="Helvetica,sans-Serif" font-size="10.00" fill="#e0e0e0">rag.</text>
<text xml:space="preserve" text-anchor="middle" x="366.2" y="-35.18" font-family="Helvetica,sans-Serif" font-size="10.00" fill="#e0e0e0">embeddings</text>
</g>
<!-- numpy&#45;&gt;src_rag_embeddings -->
<g id="edge5" class="edge">
<title>numpy&#45;&gt;src_rag_embeddings</title><style>.edge>path:hover{stroke-width:8}</style>
<path fill="none" stroke="#ffffff" d="M281.76,-62.68C290.31,-62.72 299.3,-62.11 308.09,-61.16"/>
<polygon fill="#19e66b" stroke="#ffffff" points="308.48,-64.63 317.96,-59.91 307.61,-57.69 308.48,-64.63"/>
</g>
<!-- numpy&#45;&gt;src_rag_index -->
<g id="edge6" class="edge">
<title>numpy&#45;&gt;src_rag_index</title><style>.edge>path:hover{stroke-width:8}</style>
<path fill="none" stroke="#ffffff" d="M281.76,-62.68C309.78,-60.36 292.87,-23.73 317.76,-10.68 363.39,13.22 423.03,-10.3 459.66,-30.05"/>
<polygon fill="#19e66b" stroke="#ffffff" points="457.6,-32.9 468.04,-34.74 461.02,-26.8 457.6,-32.9"/>
<path fill="none" stroke="#ffffff" d="M146.66,-116.55C174.1,-97.89 228.59,-65.61 280.76,-62.68"/>
</g>
<!-- numpy&#45;&gt;src_rag_retriever -->
<g id="edge7" class="edge">
<title>numpy&#45;&gt;src_rag_retriever</title><style>.edge>path:hover{stroke-width:8}</style>
<path fill="none" stroke="#ffffff" d="M281.76,-62.68C302.03,-62.76 299.24,-82.46 317.76,-90.68 358.93,-108.97 410.04,-116.48 446.43,-119.56"/>
<polygon fill="#19e66b" stroke="#ffffff" points="445.96,-123.04 456.19,-120.3 446.48,-116.06 445.96,-123.04"/>
</g>
<!-- requests -->
<g id="node4" class="node">
<title>requests</title><style>.edge>path:hover{stroke-width:8}</style>
<ellipse fill="#3370cc" stroke="#ffffff" cx="32.17" cy="-346.68" rx="32.17" ry="18"/>
<text xml:space="preserve" text-anchor="middle" x="32.17" y="-343.18" font-family="Helvetica,sans-Serif" font-size="10.00" fill="#e0e0e0">requests</text>
</g>
<!-- src_mcp_client_mcp_client -->
<g id="node10" class="node">
<title>src_mcp_client_mcp_client</title><style>.edge>path:hover{stroke-width:8}</style>
<ellipse fill="#a640c0" stroke="#ffffff" cx="635.76" cy="-201.68" rx="46.85" ry="31.11"/>
<text xml:space="preserve" text-anchor="middle" x="635.76" y="-210.18" font-family="Helvetica,sans-Serif" font-size="10.00" fill="#e0e0e0">src.</text>
<text xml:space="preserve" text-anchor="middle" x="635.76" y="-198.18" font-family="Helvetica,sans-Serif" font-size="10.00" fill="#e0e0e0">mcp_client.</text>
<text xml:space="preserve" text-anchor="middle" x="635.76" y="-186.18" font-family="Helvetica,sans-Serif" font-size="10.00" fill="#e0e0e0">mcp_client</text>
</g>
<!-- requests&#45;&gt;src_mcp_client_mcp_client -->
<g id="edge8" class="edge">
<title>requests&#45;&gt;src_mcp_client_mcp_client</title><style>.edge>path:hover{stroke-width:8}</style>
<path fill="none" stroke="#ffffff" d="M64.02,-350.4C111.21,-355.24 203.95,-361.49 280.76,-346.68"/>
<path fill="none" stroke="#ffffff" d="M281.76,-346.68C307.97,-340.08 295.7,-313.29 317.76,-297.68 397.31,-241.42 510.43,-217.58 577.83,-207.89"/>
<polygon fill="#3370cc" stroke="#ffffff" points="578.13,-211.38 587.56,-206.55 577.17,-204.45 578.13,-211.38"/>
</g>
<!-- src_rag_api_llm -->
<g id="node14" class="node">
<title>src_rag_api_llm</title><style>.edge>path:hover{stroke-width:8}</style>
<ellipse fill="#ae33cc" stroke="#ffffff" cx="366.2" cy="-346.68" rx="27" ry="39.6"/>
<text xml:space="preserve" text-anchor="middle" x="366.2" y="-361.18" font-family="Helvetica,sans-Serif" font-size="10.00" fill="#e0e0e0">src.</text>
<text xml:space="preserve" text-anchor="middle" x="366.2" y="-349.18" font-family="Helvetica,sans-Serif" font-size="10.00" fill="#e0e0e0">rag.</text>
<text xml:space="preserve" text-anchor="middle" x="366.2" y="-337.18" font-family="Helvetica,sans-Serif" font-size="10.00" fill="#e0e0e0">api.</text>
<text xml:space="preserve" text-anchor="middle" x="366.2" y="-325.18" font-family="Helvetica,sans-Serif" font-size="10.00" fill="#e0e0e0">llm</text>
</g>
<!-- requests&#45;&gt;src_rag_api_llm -->
<g id="edge9" class="edge">
<title>requests&#45;&gt;src_rag_api_llm</title><style>.edge>path:hover{stroke-width:8}</style>
<path fill="none" stroke="#ffffff" d="M281.76,-346.68C296.69,-343.81 313.4,-343.29 327.92,-343.68"/>
<polygon fill="#3370cc" stroke="#ffffff" points="327.37,-347.16 337.52,-344.09 327.68,-340.17 327.37,-347.16"/>
</g>
<!-- src -->
<g id="node5" class="node">
<title>src</title><style>.edge>path:hover{stroke-width:8}</style>
<ellipse fill="#c022e7" stroke="#ffffff" cx="1005.64" cy="-546.68" rx="27" ry="18"/>
<text xml:space="preserve" text-anchor="middle" x="1005.64" y="-543.18" font-family="Helvetica,sans-Serif" font-size="10.00" fill="#e0e0e0">src</text>
</g>
<!-- src&#45;&gt;agent_runner_py -->
<g id="edge10" class="edge">
<title>src&#45;&gt;agent_runner_py</title><style>.edge>path:hover{stroke-width:8}</style>
<path fill="none" stroke="#ffffff" d="M1023.52,-533.07C1043.41,-517.08 1073.98,-492.72 1075.62,-492.68"/>
</g>
<!-- src_agent -->
<g id="node6" class="node">
<title>src_agent</title><style>.edge>path:hover{stroke-width:8}</style>
<ellipse fill="#a947c2" stroke="#ffffff" cx="1005.64" cy="-492.68" rx="33.98" ry="18"/>
<text xml:space="preserve" text-anchor="middle" x="1005.64" y="-489.18" font-family="Helvetica,sans-Serif" font-size="10.00" fill="#e0e0e0">src.agent</text>
</g>
<!-- src_agent&#45;&gt;agent_runner_py -->
<g id="edge11" class="edge">
<title>src_agent&#45;&gt;agent_runner_py</title><style>.edge>path:hover{stroke-width:8}</style>
<path fill="none" stroke="#ffffff" d="M1039.97,-492.94C1051.29,-492.96 1064.01,-492.9 1075.62,-492.68"/>
</g>
<!-- src_agent_loop -->
<g id="node7" class="node">
<title>src_agent_loop</title><style>.edge>path:hover{stroke-width:8}</style>
<ellipse fill="#5f2e6b" stroke="#ffffff" cx="889.06" cy="-446.68" rx="46.6" ry="18"/>
<text xml:space="preserve" text-anchor="middle" x="889.06" y="-443.18" font-family="Helvetica,sans-Serif" font-size="10.00" fill="#e0e0e0">src.agent.loop</text>
</g>
<!-- src_agent_loop&#45;&gt;agent_runner_py -->
<g id="edge12" class="edge">
<title>src_agent_loop&#45;&gt;agent_runner_py</title><style>.edge>path:hover{stroke-width:8}</style>
<path fill="none" stroke="#ffffff" d="M930.74,-438.22C953.58,-435.48 981.96,-435.57 1004.64,-446.68"/>
</g>
<!-- src_agent_prompts -->
<g id="node8" class="node">
<title>src_agent_prompts</title><style>.edge>path:hover{stroke-width:8}</style>
<ellipse fill="#a253b6" stroke="#ffffff" cx="770.22" cy="-357.68" rx="36.24" ry="31.11"/>
<text xml:space="preserve" text-anchor="middle" x="770.22" y="-366.18" font-family="Helvetica,sans-Serif" font-size="10.00" fill="#e0e0e0">src.</text>
<text xml:space="preserve" text-anchor="middle" x="770.22" y="-354.18" font-family="Helvetica,sans-Serif" font-size="10.00" fill="#e0e0e0">agent.</text>
<text xml:space="preserve" text-anchor="middle" x="770.22" y="-342.18" font-family="Helvetica,sans-Serif" font-size="10.00" fill="#e0e0e0">prompts</text>
</g>
<!-- src_agent_prompts&#45;&gt;src_agent_loop -->
<g id="edge13" class="edge">
<title>src_agent_prompts&#45;&gt;src_agent_loop</title><style>.edge>path:hover{stroke-width:8}</style>
<path fill="none" stroke="#ffffff" d="M798.03,-378.1C815.89,-391.71 839.41,-409.62 857.93,-423.73"/>
<polygon fill="#a253b6" stroke="#ffffff" points="855.55,-426.32 865.63,-429.59 859.79,-420.75 855.55,-426.32"/>
</g>
<!-- src_mcp_client -->
<g id="node9" class="node">
<title>src_mcp_client</title><style>.edge>path:hover{stroke-width:8}</style>
<ellipse fill="#a947c2" stroke="#ffffff" cx="635.76" cy="-478.68" rx="47.96" ry="18"/>
<text xml:space="preserve" text-anchor="middle" x="635.76" y="-475.18" font-family="Helvetica,sans-Serif" font-size="10.00" fill="#e0e0e0">src.mcp_client</text>
</g>
<!-- src_mcp_client&#45;&gt;agent_runner_py -->
<g id="edge14" class="edge">
<title>src_mcp_client&#45;&gt;agent_runner_py</title><style>.edge>path:hover{stroke-width:8}</style>
<path fill="none" stroke="#ffffff" d="M771.22,-545.68C827.11,-534.37 832.82,-506.83 888.06,-492.68"/>
<path fill="none" stroke="#ffffff" d="M668.8,-492.12C678.29,-496.29 688.63,-501.01 697.98,-505.68 730.46,-521.92 733.63,-552.89 769.22,-545.68"/>
</g>
<!-- src_mcp_client&#45;&gt;src_agent_loop -->
<g id="edge15" class="edge">
<title>src_mcp_client&#45;&gt;src_agent_loop</title><style>.edge>path:hover{stroke-width:8}</style>
<path fill="none" stroke="#ffffff" d="M771.22,-507.68C801.9,-499.73 833.58,-482.52 856.21,-468.41"/>
<polygon fill="#a947c2" stroke="#ffffff" points="857.81,-471.54 864.35,-463.2 854.04,-465.64 857.81,-471.54"/>
<path fill="none" stroke="#ffffff" d="M666.11,-493.05C693.06,-504.36 734.01,-516.82 769.22,-507.68"/>
</g>
<!-- src_mcp_client_mcp_client&#45;&gt;agent_runner_py -->
<g id="edge16" class="edge">
<title>src_mcp_client_mcp_client&#45;&gt;agent_runner_py</title><style>.edge>path:hover{stroke-width:8}</style>
<path fill="none" stroke="#ffffff" d="M669.9,-179.85C702.89,-159.4 751.13,-133.27 769.22,-142.68"/>
</g>
<!-- src_mcp_client_mcp_client&#45;&gt;src_agent_loop -->
<g id="edge17" class="edge">
<title>src_mcp_client_mcp_client&#45;&gt;src_agent_loop</title><style>.edge>path:hover{stroke-width:8}</style>
<path fill="none" stroke="#ffffff" d="M678.9,-188.78C707.63,-182.78 744.77,-180.92 769.22,-201.68"/>
</g>
<!-- src_rag -->
<g id="node11" class="node">
<title>src_rag</title><style>.edge>path:hover{stroke-width:8}</style>
<ellipse fill="#c022e7" stroke="#ffffff" cx="635.76" cy="-424.68" rx="27.66" ry="18"/>
<text xml:space="preserve" text-anchor="middle" x="635.76" y="-421.18" font-family="Helvetica,sans-Serif" font-size="10.00" fill="#e0e0e0">src.rag</text>
</g>
<!-- src_rag&#45;&gt;agent_runner_py -->
<g id="edge18" class="edge">
<title>src_rag&#45;&gt;agent_runner_py</title><style>.edge>path:hover{stroke-width:8}</style>
<path fill="none" stroke="#ffffff" d="M771.22,-469.68C823.46,-478.19 836.79,-505.81 888.06,-492.68"/>
<path fill="none" stroke="#ffffff" d="M890.06,-492.68C893.39,-491.83 1001.56,-445.18 1004.64,-446.68"/>
</g>
<!-- src_rag&#45;&gt;src_agent_loop -->
<g id="edge19" class="edge">
<title>src_rag&#45;&gt;src_agent_loop</title><style>.edge>path:hover{stroke-width:8}</style>
<path fill="none" stroke="#ffffff" d="M771.22,-469.68C795.46,-473.63 822.36,-468.96 844.24,-462.83"/>
<polygon fill="#c022e7" stroke="#ffffff" points="845.17,-466.2 853.73,-459.96 843.15,-459.5 845.17,-466.2"/>
<path fill="none" stroke="#ffffff" d="M659.14,-434.85C685.01,-446 729.19,-463.16 769.22,-469.68"/>
</g>
<!-- src_rag_agentic_retriever&#45;&gt;agent_runner_py -->
<g id="edge20" class="edge">
<title>src_rag_agentic_retriever&#45;&gt;agent_runner_py</title><style>.edge>path:hover{stroke-width:8}</style>
<path fill="none" stroke="#ffffff" d="M698.35,-123.24C721.6,-125.89 747.64,-131.45 769.22,-142.68"/>
</g>
<!-- src_rag_agentic_retriever&#45;&gt;src_agent_loop -->
<g id="edge21" class="edge">
<title>src_rag_agentic_retriever&#45;&gt;src_agent_loop</title><style>.edge>path:hover{stroke-width:8}</style>
<path fill="none" stroke="#ffffff" d="M771.22,-201.68C839.36,-259.56 870.68,-366.22 882.33,-417.56"/>
<polygon fill="#9238a8" stroke="#ffffff" points="878.84,-417.99 884.38,-427.02 885.68,-416.51 878.84,-417.99"/>
<path fill="none" stroke="#ffffff" d="M680.86,-143.65C707.82,-158.17 742.19,-178.73 769.22,-201.68"/>
</g>
<!-- src_rag_api -->
<g id="node13" class="node">
<title>src_rag_api</title><style>.edge>path:hover{stroke-width:8}</style>
<ellipse fill="#b13bce" stroke="#ffffff" cx="494.08" cy="-378.68" rx="37.13" ry="18"/>
<text xml:space="preserve" text-anchor="middle" x="494.08" y="-375.18" font-family="Helvetica,sans-Serif" font-size="10.00" fill="#e0e0e0">src.rag.api</text>
</g>
<!-- src_rag_api&#45;&gt;agent_runner_py -->
<g id="edge22" class="edge">
<title>src_rag_api&#45;&gt;agent_runner_py</title><style>.edge>path:hover{stroke-width:8}</style>
<path fill="none" stroke="#ffffff" d="M502.9,-361.05C514.46,-337.44 538.59,-296.58 573.53,-279.68 636.46,-249.26 833.02,-236.6 888.06,-279.68"/>
</g>
<!-- src_rag_api&#45;&gt;src_agent_loop -->
<g id="edge23" class="edge">
<title>src_rag_api&#45;&gt;src_agent_loop</title><style>.edge>path:hover{stroke-width:8}</style>
<path fill="none" stroke="#ffffff" d="M636.76,-378.68C676.58,-380.97 780.96,-412.43 841.94,-431.75"/>
<polygon fill="#b13bce" stroke="#ffffff" points="840.77,-435.05 851.36,-434.75 842.89,-428.38 840.77,-435.05"/>
<path fill="none" stroke="#ffffff" d="M531.56,-378C559.75,-377.64 599.74,-377.49 634.76,-378.68"/>
</g>
<!-- src_rag_rewriter -->
<g id="node19" class="node">
<title>src_rag_rewriter</title><style>.edge>path:hover{stroke-width:8}</style>
<ellipse fill="#9238a8" stroke="#ffffff" cx="635.76" cy="-545.68" rx="34.12" ry="31.11"/>
<text xml:space="preserve" text-anchor="middle" x="635.76" y="-554.18" font-family="Helvetica,sans-Serif" font-size="10.00" fill="#e0e0e0">src.</text>
<text xml:space="preserve" text-anchor="middle" x="635.76" y="-542.18" font-family="Helvetica,sans-Serif" font-size="10.00" fill="#e0e0e0">rag.</text>
<text xml:space="preserve" text-anchor="middle" x="635.76" y="-530.18" font-family="Helvetica,sans-Serif" font-size="10.00" fill="#e0e0e0">rewriter</text>
</g>
<!-- src_rag_api&#45;&gt;src_rag_rewriter -->
<g id="edge24" class="edge">
<title>src_rag_api&#45;&gt;src_rag_rewriter</title><style>.edge>path:hover{stroke-width:8}</style>
<path fill="none" stroke="#ffffff" d="M518.31,-392.57C525.22,-397.59 532.33,-403.74 537.53,-410.68 564.62,-446.81 545.24,-470.49 573.53,-505.68 579.59,-513.22 587.47,-519.82 595.54,-525.36"/>
<polygon fill="#b13bce" stroke="#ffffff" points="593.42,-528.16 603.74,-530.57 597.18,-522.25 593.42,-528.16"/>
</g>
<!-- src_rag_api_llm&#45;&gt;agent_runner_py -->
<g id="edge25" class="edge">
<title>src_rag_api_llm&#45;&gt;agent_runner_py</title><style>.edge>path:hover{stroke-width:8}</style>
<path fill="none" stroke="#ffffff" d="M495.08,-424.68C563.19,-465.88 506.04,-543.49 573.53,-585.68 620.43,-615 644.47,-599.68 697.98,-585.68 733.11,-576.5 733.63,-552.89 769.22,-545.68"/>
</g>
<!-- src_rag_api_llm&#45;&gt;src_agent_loop -->
<g id="edge26" class="edge">
<title>src_rag_api_llm&#45;&gt;src_agent_loop</title><style>.edge>path:hover{stroke-width:8}</style>
<path fill="none" stroke="#ffffff" d="M390.48,-365.01C406.78,-377.36 429.37,-393.56 450.64,-405.68 468.59,-415.92 475.4,-413.99 493.08,-424.68"/>
<path fill="none" stroke="#ffffff" d="M495.08,-424.68C526.63,-443.77 538.49,-409.15 573.53,-397.68 600.61,-388.82 606.28,-377.71 634.76,-378.68"/>
</g>
<!-- src_rag_api_llm&#45;&gt;src_rag_rewriter -->
<g id="edge27" class="edge">
<title>src_rag_api_llm&#45;&gt;src_rag_rewriter</title><style>.edge>path:hover{stroke-width:8}</style>
<path fill="none" stroke="#ffffff" d="M495.08,-424.68C537.96,-450.62 534.88,-473.78 573.53,-505.68 580.77,-511.66 588.94,-517.52 596.89,-522.83"/>
<polygon fill="#ae33cc" stroke="#ffffff" points="594.84,-525.68 605.14,-528.19 598.66,-519.81 594.84,-525.68"/>
</g>
<!-- src_rag_embeddings&#45;&gt;src_rag_index -->
<g id="edge28" class="edge">
<title>src_rag_embeddings&#45;&gt;src_rag_index</title><style>.edge>path:hover{stroke-width:8}</style>
<path fill="none" stroke="#ffffff" d="M414.79,-50.68C422.74,-50.68 431.04,-50.68 439.14,-50.68"/>
<polygon fill="#a640c0" stroke="#ffffff" points="438.88,-54.18 448.88,-50.68 438.88,-47.18 438.88,-54.18"/>
</g>
<!-- src_rag_embeddings&#45;&gt;src_rag_retriever -->
<g id="edge29" class="edge">
<title>src_rag_embeddings&#45;&gt;src_rag_retriever</title><style>.edge>path:hover{stroke-width:8}</style>
<path fill="none" stroke="#ffffff" d="M403.27,-71.03C419.04,-79.92 437.57,-90.37 453.69,-99.47"/>
<polygon fill="#a640c0" stroke="#ffffff" points="451.62,-102.32 462.05,-104.18 455.06,-96.22 451.62,-102.32"/>
</g>
<!-- src_rag_evaluator -->
<g id="node16" class="node">
<title>src_rag_evaluator</title><style>.edge>path:hover{stroke-width:8}</style>
<ellipse fill="#a947c2" stroke="#ffffff" cx="635.76" cy="-319.68" rx="39.42" ry="31.11"/>
<text xml:space="preserve" text-anchor="middle" x="635.76" y="-328.18" font-family="Helvetica,sans-Serif" font-size="10.00" fill="#e0e0e0">src.</text>
<text xml:space="preserve" text-anchor="middle" x="635.76" y="-316.18" font-family="Helvetica,sans-Serif" font-size="10.00" fill="#e0e0e0">rag.</text>
<text xml:space="preserve" text-anchor="middle" x="635.76" y="-304.18" font-family="Helvetica,sans-Serif" font-size="10.00" fill="#e0e0e0">evaluator</text>
</g>
<!-- src_rag_evaluator&#45;&gt;agent_runner_py -->
<g id="edge30" class="edge">
<title>src_rag_evaluator&#45;&gt;agent_runner_py</title><style>.edge>path:hover{stroke-width:8}</style>
<path fill="none" stroke="#ffffff" d="M672.5,-307.63C699.19,-300.18 736.53,-293.03 769.22,-298.68"/>
<path fill="none" stroke="#ffffff" d="M771.22,-298.68C823.06,-307.65 846.63,-247.26 888.06,-279.68"/>
</g>
<!-- src_rag_evaluator&#45;&gt;src_agent_loop -->
<g id="edge31" class="edge">
<title>src_rag_evaluator&#45;&gt;src_agent_loop</title><style>.edge>path:hover{stroke-width:8}</style>
<path fill="none" stroke="#ffffff" d="M771.22,-298.68C829.18,-308.7 863.34,-377.57 878.56,-417.74"/>
<polygon fill="#a947c2" stroke="#ffffff" points="875.23,-418.83 881.92,-427.05 881.82,-416.46 875.23,-418.83"/>
</g>
<!-- src_rag_index&#45;&gt;agent_runner_py -->
<g id="edge32" class="edge">
<title>src_rag_index&#45;&gt;agent_runner_py</title><style>.edge>path:hover{stroke-width:8}</style>
<path fill="none" stroke="#ffffff" d="M771.22,-142.68C842.2,-179.64 825.5,-229.79 888.06,-279.68"/>
<path fill="none" stroke="#ffffff" d="M1006.64,-446.68C1021.83,-454.13 1025.5,-456.37 1039.62,-465.68 1056.31,-476.7 1055.62,-493.06 1075.62,-492.68"/>
<path fill="none" stroke="#ffffff" d="M1076.62,-492.68C1084.62,-492.53 1093.03,-492.44 1101.35,-492.4"/>
<polygon fill="#854096" stroke="#ffffff" points="1101.08,-495.9 1111.07,-492.36 1101.06,-488.9 1101.08,-495.9"/>
<path fill="none" stroke="#ffffff" d="M537.82,-50.48C580.27,-51.79 646.32,-58 697.98,-81.68 735.87,-99.06 732.25,-123.44 769.22,-142.68"/>
<path fill="none" stroke="#ffffff" d="M890.06,-279.68C960.44,-335.81 923.82,-407.07 1004.64,-446.68"/>
</g>
<!-- src_rag_retriever&#45;&gt;src_rag_agentic_retriever -->
<g id="edge33" class="edge">
<title>src_rag_retriever&#45;&gt;src_rag_agentic_retriever</title><style>.edge>path:hover{stroke-width:8}</style>
<path fill="none" stroke="#ffffff" d="M530.69,-121.68C540.29,-121.68 551.03,-121.68 561.87,-121.68"/>
<polygon fill="#9246a4" stroke="#ffffff" points="561.65,-125.18 571.65,-121.68 561.65,-118.18 561.65,-125.18"/>
</g>
<!-- src_rag_rewriter&#45;&gt;agent_runner_py -->
<g id="edge34" class="edge">
<title>src_rag_rewriter&#45;&gt;agent_runner_py</title><style>.edge>path:hover{stroke-width:8}</style>
<path fill="none" stroke="#ffffff" d="M670.05,-549.31C697.07,-551.39 735.98,-552.42 769.22,-545.68"/>
</g>
<!-- src_rag_rewriter&#45;&gt;src_agent_loop -->
<g id="edge35" class="edge">
<title>src_rag_rewriter&#45;&gt;src_agent_loop</title><style>.edge>path:hover{stroke-width:8}</style>
<path fill="none" stroke="#ffffff" d="M668.48,-536.09C695.24,-528.12 734.6,-516.67 769.22,-507.68"/>
</g>
</g>
</svg>

