<?xml version="1.0" encoding="UTF-8" standalone="no"?>
<!DOCTYPE svg PUBLIC "-//W3C//DTD SVG 1.1//EN"
 "http://www.w3.org/Graphics/SVG/1.1/DTD/svg11.dtd">
<!-- Generated by graphviz version 15.0.0 (20260523.1842)
 -->
<!-- Title: G Pages: 1 -->
<svg style="background-color:#141414" width="785pt" height="362pt"
 viewBox="0.00 0.00 785.00 362.00" xmlns="http://www.w3.org/2000/svg" xmlns:xlink="http://www.w3.org/1999/xlink">
<g id="graph0" class="graph" transform="scale(1 1) rotate(0) translate(4 358.11)">
<title>G</title><style>.edge>path:hover{stroke-width:8}</style>
<polygon fill="#141414" stroke="none" points="-4,4 -4,-358.11 781.04,-358.11 781.04,4 -4,4"/>
<!-- flask -->
<g id="node1" class="node">
<title>flask</title><style>.edge>path:hover{stroke-width:8}</style>
<ellipse fill="#b83d3d" stroke="#ffffff" cx="117" cy="-90.11" rx="27" ry="18"/>
<text xml:space="preserve" text-anchor="middle" x="117" y="-86.61" font-family="Helvetica,sans-Serif" font-size="10.00" fill="#e0e0e0">flask</text>
</g>
<!-- src_rag_api_app -->
<g id="node7" class="node">
<title>src_rag_api_app</title><style>.edge>path:hover{stroke-width:8}</style>
<ellipse fill="#345079" stroke="#ffffff" cx="407.5" cy="-190.11" rx="27" ry="39.6"/>
<text xml:space="preserve" text-anchor="middle" x="407.5" y="-204.61" font-family="Helvetica,sans-Serif" font-size="10.00" fill="#e0e0e0">src.</text>
<text xml:space="preserve" text-anchor="middle" x="407.5" y="-192.61" font-family="Helvetica,sans-Serif" font-size="10.00" fill="#e0e0e0">rag.</text>
<text xml:space="preserve" text-anchor="middle" x="407.5" y="-180.61" font-family="Helvetica,sans-Serif" font-size="10.00" fill="#e0e0e0">api.</text>
<text xml:space="preserve" text-anchor="middle" x="407.5" y="-168.61" font-family="Helvetica,sans-Serif" font-size="10.00" fill="#e0e0e0">app</text>
</g>
<!-- flask&#45;&gt;src_rag_api_app -->
<g id="edge1" class="edge">
<title>flask&#45;&gt;src_rag_api_app</title><style>.edge>path:hover{stroke-width:8}</style>
<path fill="none" stroke="#ffffff" d="M263.25,-90.11C283.66,-96.55 292.27,-94.07 307.5,-109.11 335.53,-136.79 304.59,-183.96 343.5,-190.11"/>
<path fill="none" stroke="#ffffff" d="M143.54,-85.58C172.75,-81.42 221.64,-77.62 261.25,-90.11"/>
</g>
<!-- pathlib -->
<g id="node2" class="node">
<title>pathlib</title><style>.edge>path:hover{stroke-width:8}</style>
<ellipse fill="#b5d926" stroke="#ffffff" cx="27" cy="-290.11" rx="27" ry="18"/>
<text xml:space="preserve" text-anchor="middle" x="27" y="-286.61" font-family="Helvetica,sans-Serif" font-size="10.00" fill="#e0e0e0">pathlib</text>
</g>
<!-- pathlib&#45;&gt;src_rag_api_app -->
<g id="edge2" class="edge">
<title>pathlib&#45;&gt;src_rag_api_app</title><style>.edge>path:hover{stroke-width:8}</style>
<path fill="none" stroke="#ffffff" d="M181,-290.11C233.06,-267.26 262.27,-305.56 307.5,-271.11 338.84,-247.25 304.59,-183.96 343.5,-190.11"/>
</g>
<!-- src_rag_index -->
<g id="node8" class="node">
<title>src_rag_index</title><style>.edge>path:hover{stroke-width:8}</style>
<ellipse fill="#43679d" stroke="#ffffff" cx="262.25" cy="-136.11" rx="43.45" ry="18"/>
<text xml:space="preserve" text-anchor="middle" x="262.25" y="-132.61" font-family="Helvetica,sans-Serif" font-size="10.00" fill="#e0e0e0">src.rag.index</text>
</g>
<!-- pathlib&#45;&gt;src_rag_index -->
<g id="edge3" class="edge">
<title>pathlib&#45;&gt;src_rag_index</title><style>.edge>path:hover{stroke-width:8}</style>
<path fill="none" stroke="#ffffff" d="M181,-290.11C236.27,-270.43 181.51,-209.83 217,-163.11 218.94,-160.56 221.2,-158.19 223.64,-156.01"/>
<polygon fill="#b5d926" stroke="#ffffff" points="225.44,-159.04 231.31,-150.22 221.22,-153.46 225.44,-159.04"/>
<path fill="none" stroke="#ffffff" d="M53.36,-295.16C84.26,-300.19 137.61,-305.2 180,-290.11"/>
</g>
<!-- src_rag_loader -->
<g id="node10" class="node">
<title>src_rag_loader</title><style>.edge>path:hover{stroke-width:8}</style>
<ellipse fill="#4971ac" stroke="#ffffff" cx="262.25" cy="-244.11" rx="45.25" ry="18"/>
<text xml:space="preserve" text-anchor="middle" x="262.25" y="-240.61" font-family="Helvetica,sans-Serif" font-size="10.00" fill="#e0e0e0">src.rag.loader</text>
</g>
<!-- pathlib&#45;&gt;src_rag_loader -->
<g id="edge4" class="edge">
<title>pathlib&#45;&gt;src_rag_loader</title><style>.edge>path:hover{stroke-width:8}</style>
<path fill="none" stroke="#ffffff" d="M181,-290.11C197.84,-284.12 215.21,-274.64 229.46,-265.84"/>
<polygon fill="#b5d926" stroke="#ffffff" points="230.95,-269.04 237.51,-260.72 227.19,-263.13 230.95,-269.04"/>
</g>
<!-- server_py -->
<g id="node3" class="node">
<title>server_py</title><style>.edge>path:hover{stroke-width:8}</style>
<ellipse fill="#4e9269" stroke="#ffffff" cx="743.07" cy="-282.11" rx="33.98" ry="18"/>
<text xml:space="preserve" text-anchor="middle" x="743.07" y="-278.61" font-family="Helvetica,sans-Serif" font-size="10.00" fill="#e0e0e0">server.py</text>
</g>
<!-- src -->
<g id="node4" class="node">
<title>src</title><style>.edge>path:hover{stroke-width:8}</style>
<ellipse fill="#3b76ce" stroke="#ffffff" cx="608.43" cy="-336.11" rx="27" ry="18"/>
<text xml:space="preserve" text-anchor="middle" x="608.43" y="-332.61" font-family="Helvetica,sans-Serif" font-size="10.00" fill="#e0e0e0">src</text>
</g>
<!-- src&#45;&gt;server_py -->
<g id="edge5" class="edge">
<title>src&#45;&gt;server_py</title><style>.edge>path:hover{stroke-width:8}</style>
<path fill="none" stroke="#ffffff" d="M624.41,-321.4C640.96,-305.45 666.06,-282.24 672.09,-282.11"/>
</g>
<!-- src_rag -->
<g id="node5" class="node">
<title>src_rag</title><style>.edge>path:hover{stroke-width:8}</style>
<ellipse fill="#3b76ce" stroke="#ffffff" cx="608.43" cy="-282.11" rx="27.66" ry="18"/>
<text xml:space="preserve" text-anchor="middle" x="608.43" y="-278.61" font-family="Helvetica,sans-Serif" font-size="10.00" fill="#e0e0e0">src.rag</text>
</g>
<!-- src_rag&#45;&gt;server_py -->
<g id="edge6" class="edge">
<title>src_rag&#45;&gt;server_py</title><style>.edge>path:hover{stroke-width:8}</style>
<path fill="none" stroke="#ffffff" d="M636.57,-282.36C647.6,-282.39 660.45,-282.35 672.09,-282.11"/>
</g>
<!-- src_rag_api -->
<g id="node6" class="node">
<title>src_rag_api</title><style>.edge>path:hover{stroke-width:8}</style>
<ellipse fill="#537bb6" stroke="#ffffff" cx="507.63" cy="-236.11" rx="37.13" ry="18"/>
<text xml:space="preserve" text-anchor="middle" x="507.63" y="-232.61" font-family="Helvetica,sans-Serif" font-size="10.00" fill="#e0e0e0">src.rag.api</text>
</g>
<!-- src_rag_api&#45;&gt;server_py -->
<g id="edge7" class="edge">
<title>src_rag_api&#45;&gt;server_py</title><style>.edge>path:hover{stroke-width:8}</style>
<path fill="none" stroke="#ffffff" d="M542.56,-229.4C562.33,-227.1 587.25,-227.03 607.43,-236.11"/>
</g>
<!-- src_rag_api_app&#45;&gt;server_py -->
<g id="edge8" class="edge">
<title>src_rag_api_app&#45;&gt;server_py</title><style>.edge>path:hover{stroke-width:8}</style>
<path fill="none" stroke="#ffffff" d="M609.43,-236.11C622.7,-242.09 624.34,-246.52 636.09,-255.11 652.23,-266.92 652.09,-282.53 672.09,-282.11"/>
<path fill="none" stroke="#ffffff" d="M673.09,-282.11C680.89,-281.95 689.19,-281.87 697.23,-281.84"/>
<polygon fill="#345079" stroke="#ffffff" points="697.22,-285.34 707.22,-281.83 697.22,-278.34 697.22,-285.34"/>
<path fill="none" stroke="#ffffff" d="M434.8,-191.68C462.56,-193.82 507.39,-198.66 544.77,-209.11 573.97,-217.28 579.78,-223.66 607.43,-236.11"/>
</g>
<!-- src_rag_index&#45;&gt;src_rag_api_app -->
<g id="edge9" class="edge">
<title>src_rag_index&#45;&gt;src_rag_api_app</title><style>.edge>path:hover{stroke-width:8}</style>
<path fill="none" stroke="#ffffff" d="M288.32,-150.84C294.66,-154.71 301.39,-158.97 307.5,-163.11 324.06,-174.33 323.75,-186.99 343.5,-190.11"/>
</g>
<!-- src_rag_llm -->
<g id="node9" class="node">
<title>src_rag_llm</title><style>.edge>path:hover{stroke-width:8}</style>
<ellipse fill="#4c75b3" stroke="#ffffff" cx="262.25" cy="-190.11" rx="37.13" ry="18"/>
<text xml:space="preserve" text-anchor="middle" x="262.25" y="-186.61" font-family="Helvetica,sans-Serif" font-size="10.00" fill="#e0e0e0">src.rag.llm</text>
</g>
<!-- src_rag_llm&#45;&gt;src_rag_api_app -->
<g id="edge10" class="edge">
<title>src_rag_llm&#45;&gt;src_rag_api_app</title><style>.edge>path:hover{stroke-width:8}</style>
<path fill="none" stroke="#ffffff" d="M299.39,-187.72C313.26,-187.43 329.19,-187.85 343.5,-190.11"/>
</g>
<!-- src_rag_loader&#45;&gt;src_rag_api_app -->
<g id="edge11" class="edge">
<title>src_rag_loader&#45;&gt;src_rag_api_app</title><style>.edge>path:hover{stroke-width:8}</style>
<path fill="none" stroke="#ffffff" d="M288.79,-229.1C294.99,-225.3 301.54,-221.15 307.5,-217.11 324.06,-205.89 323.75,-186.99 343.5,-190.11"/>
</g>
<!-- src_rag_retriever -->
<g id="node11" class="node">
<title>src_rag_retriever</title><style>.edge>path:hover{stroke-width:8}</style>
<ellipse fill="#4c75b3" stroke="#ffffff" cx="262.25" cy="-31.11" rx="36.24" ry="31.11"/>
<text xml:space="preserve" text-anchor="middle" x="262.25" y="-39.61" font-family="Helvetica,sans-Serif" font-size="10.00" fill="#e0e0e0">src.</text>
<text xml:space="preserve" text-anchor="middle" x="262.25" y="-27.61" font-family="Helvetica,sans-Serif" font-size="10.00" fill="#e0e0e0">rag.</text>
<text xml:space="preserve" text-anchor="middle" x="262.25" y="-15.61" font-family="Helvetica,sans-Serif" font-size="10.00" fill="#e0e0e0">retriever</text>
</g>
<!-- src_rag_retriever&#45;&gt;src_rag_api_app -->
<g id="edge12" class="edge">
<title>src_rag_retriever&#45;&gt;src_rag_api_app</title><style>.edge>path:hover{stroke-width:8}</style>
<path fill="none" stroke="#ffffff" d="M344.5,-190.11C352.29,-191.34 360.69,-191.87 368.73,-191.99"/>
<polygon fill="#4c75b3" stroke="#ffffff" points="368.62,-195.49 378.6,-191.93 368.58,-188.5 368.62,-195.49"/>
<path fill="none" stroke="#ffffff" d="M288.53,-52.68C295.44,-59.59 302.42,-67.66 307.5,-76.11 334.88,-121.65 291.02,-181.82 343.5,-190.11"/>
</g>
<!-- typing -->
<g id="node12" class="node">
<title>typing</title><style>.edge>path:hover{stroke-width:8}</style>
<ellipse fill="#c716f3" stroke="#ffffff" cx="27" cy="-90.11" rx="27" ry="18"/>
<text xml:space="preserve" text-anchor="middle" x="27" y="-86.61" font-family="Helvetica,sans-Serif" font-size="10.00" fill="#e0e0e0">typing</text>
</g>
<!-- typing&#45;&gt;flask -->
<g id="edge13" class="edge">
<title>typing&#45;&gt;flask</title><style>.edge>path:hover{stroke-width:8}</style>
<path fill="none" stroke="#ffffff" d="M54.4,-90.11C61.89,-90.11 70.18,-90.11 78.2,-90.11"/>
<polygon fill="#c716f3" stroke="#ffffff" points="78.1,-93.61 88.1,-90.11 78.1,-86.61 78.1,-93.61"/>
</g>
<!-- typing&#45;&gt;src_rag_api_app -->
<g id="edge14" class="edge">
<title>typing&#45;&gt;src_rag_api_app</title><style>.edge>path:hover{stroke-width:8}</style>
<path fill="none" stroke="#ffffff" d="M49.39,-100.71C61.15,-106.21 76.13,-112.68 90,-117.11 128.94,-129.56 139.71,-129.18 180,-136.11"/>
<path fill="none" stroke="#ffffff" d="M181,-136.11C200.29,-141.39 199.69,-119.13 217,-109.11 235.53,-98.39 240.99,-83.2 261.25,-90.11"/>
</g>
<!-- typing&#45;&gt;src_rag_index -->
<g id="edge15" class="edge">
<title>typing&#45;&gt;src_rag_index</title><style>.edge>path:hover{stroke-width:8}</style>
<path fill="none" stroke="#ffffff" d="M181,-136.11C189.5,-137.58 198.58,-138.33 207.46,-138.64"/>
<polygon fill="#c716f3" stroke="#ffffff" points="207.39,-142.13 217.44,-138.78 207.49,-135.14 207.39,-142.13"/>
</g>
<!-- typing&#45;&gt;src_rag_llm -->
<g id="edge16" class="edge">
<title>typing&#45;&gt;src_rag_llm</title><style>.edge>path:hover{stroke-width:8}</style>
<path fill="none" stroke="#ffffff" d="M181,-136.11C200.71,-139.51 200.44,-151.89 217,-163.11 220.48,-165.47 224.17,-167.87 227.87,-170.22"/>
<polygon fill="#c716f3" stroke="#ffffff" points="225.93,-173.13 236.28,-175.43 229.62,-167.19 225.93,-173.13"/>
</g>
<!-- typing&#45;&gt;src_rag_loader -->
<g id="edge17" class="edge">
<title>typing&#45;&gt;src_rag_loader</title><style>.edge>path:hover{stroke-width:8}</style>
<path fill="none" stroke="#ffffff" d="M181,-136.11C219.82,-142.79 191.01,-187.51 217,-217.11 219.06,-219.46 221.37,-221.66 223.84,-223.72"/>
<polygon fill="#c716f3" stroke="#ffffff" points="221.26,-226.18 231.4,-229.27 225.4,-220.53 221.26,-226.18"/>
</g>
<!-- typing&#45;&gt;src_rag_retriever -->
<g id="edge18" class="edge">
<title>typing&#45;&gt;src_rag_retriever</title><style>.edge>path:hover{stroke-width:8}</style>
<path fill="none" stroke="#ffffff" d="M49.35,-79.39C61.1,-73.85 76.08,-67.38 90,-63.11 131.31,-50.44 179.84,-41.94 214.67,-36.91"/>
<polygon fill="#c716f3" stroke="#ffffff" points="215.01,-40.4 224.43,-35.55 214.04,-33.47 215.01,-40.4"/>
</g>
</g>
</svg>

